<svg width="10" height="5" viewBox="0 0 10 5" fill="none" xmlns="http://www.w3.org/2000/svg">
<path d="M1.15656 0.467813C1.10694 0.514985 1.06756 0.571023 1.04069 0.632717C1.01383 0.694412 1 0.760551 1 0.827347C1 0.894142 1.01383 0.960281 1.04069 1.02198C1.06756 1.08367 1.10694 1.13971 1.15656 1.18688L4.69938 4.56283C4.73882 4.6005 4.78567 4.63037 4.83724 4.65076C4.88882 4.67115 4.94411 4.68164 4.99994 4.68164C5.05578 4.68164 5.11107 4.67115 5.16264 4.65076C5.21422 4.63037 5.26107 4.6005 5.30051 4.56283L8.84332 1.18688C9.05223 0.987816 9.05223 0.666877 8.84332 0.467813C8.63442 0.26875 8.29762 0.26875 8.08872 0.467813L4.99781 3.40908L1.90691 0.463751C1.70227 0.26875 1.3612 0.26875 1.15656 0.467813Z" fill="#1E1E1E" stroke="#1E1E1E" stroke-width="0.533333"/>
</svg>
