<svg width="313" height="175" viewBox="0 0 313 175" fill="none" xmlns="http://www.w3.org/2000/svg">
<path d="M111.077 62.2073C111.153 63.2561 111.084 64.3644 110.876 65.5088C110.722 66.3458 111.277 67.1499 112.116 67.3037C112.344 67.347 112.569 67.3369 112.779 67.2828C113.344 67.1373 113.801 66.675 113.913 66.0627C114.169 64.6667 114.252 63.2934 114.158 61.9877C114.096 61.1361 113.358 60.4973 112.506 60.5571C111.657 60.6195 111.016 61.3587 111.077 62.2073Z" fill="white"/>
<path d="M106.908 77.0772C107.294 77.3509 107.764 77.4244 108.19 77.3146C108.53 77.2271 108.842 77.0224 109.061 76.7139C109.833 75.6316 110.532 74.5301 111.138 73.4425C111.553 72.6978 111.287 71.7587 110.541 71.3416C109.797 70.9276 108.856 71.1953 108.441 71.9402C107.89 72.9273 107.252 73.9333 106.546 74.9222C106.051 75.6173 106.213 76.5832 106.908 77.0772Z" fill="white"/>
<path d="M108.723 56.3015C109.117 56.7837 109.74 56.9645 110.305 56.819C110.515 56.7648 110.717 56.665 110.897 56.5199C111.557 55.9799 111.654 55.0076 111.114 54.3463C110.215 53.2479 109.161 52.314 107.981 51.572C107.259 51.1171 106.306 51.3338 105.852 52.0568C105.397 52.7766 105.615 53.7315 106.336 54.1834C107.233 54.7496 108.036 55.4612 108.723 56.3015Z" fill="white"/>
<path d="M129.884 135.118C130.105 135.939 130.943 136.428 131.761 136.217C131.767 136.215 131.772 136.214 131.777 136.213C132.975 135.891 134.194 135.529 135.402 135.142C136.214 134.881 136.662 134.014 136.401 133.2C136.14 132.387 135.265 131.95 134.459 132.202C133.298 132.574 132.127 132.921 130.977 133.23C130.153 133.448 129.664 134.295 129.884 135.118Z" fill="white"/>
<path d="M229.171 83.4228C229.236 83.4063 229.3 83.3865 229.363 83.3606C230.5 82.9019 231.655 82.4514 232.792 82.0119C233.587 81.7081 233.985 80.8146 233.678 80.0168C233.374 79.2213 232.48 78.8232 231.683 79.1308C230.533 79.5737 229.365 80.0309 228.213 80.4934C227.422 80.8121 227.038 81.7114 227.354 82.5004C227.647 83.2288 228.431 83.6134 229.171 83.4228Z" fill="white"/>
<path d="M239.578 79.5111C239.62 79.5003 239.664 79.4858 239.705 79.472C240.857 79.0668 242.029 78.6659 243.189 78.2778C243.999 78.0054 244.434 77.1312 244.162 76.3242C243.893 75.5134 243.015 75.0763 242.208 75.348C241.037 75.7421 239.85 76.1468 238.683 76.5589C237.879 76.8395 237.455 77.7204 237.736 78.5281C238.006 79.2879 238.809 79.7091 239.578 79.5111Z" fill="white"/>
<path d="M271.606 70.511C272.8 70.2545 274.013 70.0024 275.214 69.7602C275.241 69.7532 275.268 69.7463 275.295 69.7394C276.084 69.536 276.583 68.7504 276.423 67.9403C276.252 67.1041 275.44 66.5639 274.603 66.7317C273.387 66.9778 272.162 67.233 270.956 67.4926C270.127 67.6775 269.591 68.4948 269.771 69.3287C269.95 70.1626 270.772 70.6907 271.606 70.511Z" fill="white"/>
<path d="M96.6855 52.7948C97.8536 52.5864 98.9966 52.4865 100.082 52.497C100.222 52.4993 100.358 52.4835 100.486 52.4503C101.146 52.2805 101.636 51.6853 101.644 50.9721C101.653 50.1182 100.97 49.4205 100.117 49.4106C98.8373 49.3959 97.4992 49.5109 96.1411 49.7555C95.2945 49.9067 94.7434 50.7088 94.8933 51.5471C95.0443 52.3884 95.8465 52.9471 96.6855 52.7948Z" fill="white"/>
<path d="M99.0311 84.9009C99.4271 85.3698 100.041 85.5433 100.596 85.4002C100.815 85.3439 101.024 85.239 101.208 85.0832C101.535 84.8044 101.861 84.5258 102.187 84.2443C102.815 83.6997 103.44 83.1241 104.045 82.5345C104.656 81.9402 104.67 80.964 104.075 80.3519C103.481 79.7428 102.502 79.727 101.892 80.3212C101.329 80.8711 100.747 81.4038 100.164 81.911C99.8479 82.1839 99.5307 82.4569 99.2119 82.7272C98.5612 83.2775 98.4806 84.2519 99.0311 84.9009Z" fill="white"/>
<path d="M250.143 76.0559C250.164 76.0505 250.185 76.0451 250.206 76.0397C251.371 75.6853 252.559 75.3345 253.738 74.9958C254.557 74.7592 255.032 73.9034 254.796 73.0842C254.559 72.2649 253.71 71.7916 252.884 72.0267C251.694 72.3716 250.491 72.7262 249.31 73.0845C248.494 73.33 248.034 74.1947 248.282 75.0078C248.522 75.8038 249.347 76.2608 250.143 76.0559Z" fill="white"/>
<path d="M218.947 87.7916C219.033 87.7694 219.118 87.738 219.201 87.7006C220.315 87.1968 221.447 86.6915 222.567 86.202C223.35 85.8634 223.706 84.9519 223.366 84.1721C223.025 83.3893 222.117 83.03 221.333 83.3724C220.199 83.8655 219.053 84.3776 217.925 84.888C217.149 85.2411 216.805 86.1558 217.157 86.9325C217.472 87.6264 218.235 87.9751 218.947 87.7916Z" fill="white"/>
<path d="M282.458 68.3946C283.658 68.1846 284.88 67.9781 286.092 67.7807C286.141 67.7713 286.186 67.7628 286.231 67.7513C286.997 67.554 287.499 66.8029 287.367 66.0076C287.23 65.166 286.439 64.5948 285.597 64.7319C284.369 64.9302 283.135 65.1398 281.924 65.3529C281.087 65.4982 280.522 66.3007 280.668 67.1401C280.817 67.9787 281.616 68.5415 282.458 68.3946Z" fill="white"/>
<path d="M260.848 73.0559L260.949 73.0297C262.098 72.7339 263.266 72.4394 264.422 72.1608C264.428 72.1592 264.437 72.1569 264.443 72.1554C265.259 71.9451 265.757 71.1153 265.557 70.2928C265.354 69.4651 264.518 68.9565 263.69 69.1602C262.522 69.4419 261.339 69.7402 260.17 70.0414L260.077 70.0653C259.252 70.278 258.755 71.1204 258.967 71.9458C259.18 72.7712 260.022 73.2686 260.848 73.0559Z" fill="white"/>
<path d="M161.791 122.017C161.946 121.977 162.096 121.912 162.238 121.822C163.245 121.176 164.268 120.514 165.363 119.792C166.075 119.322 166.272 118.365 165.803 117.654C165.333 116.939 164.376 116.742 163.663 117.213C162.58 117.926 161.57 118.585 160.574 119.221C159.856 119.68 159.646 120.636 160.105 121.354C160.474 121.929 161.162 122.178 161.791 122.017Z" fill="white"/>
<path d="M75.5064 111.556C75.1038 110.802 74.1673 110.52 73.4165 110.921C72.6639 111.322 72.3807 112.259 72.7822 113.01C73.3797 114.129 74.0322 115.24 74.7227 116.312C75.0923 116.886 75.7792 117.134 76.4063 116.972C76.5621 116.932 76.7145 116.867 76.8572 116.776C77.5743 116.314 77.7812 115.358 77.3201 114.641C76.674 113.638 76.0639 112.599 75.5064 111.556Z" fill="white"/>
<path d="M142.262 132.593C142.334 132.575 142.405 132.55 142.476 132.522C143.617 132.04 144.776 131.528 145.919 130.991C146.692 130.632 147.025 129.711 146.664 128.94C146.304 128.168 145.382 127.835 144.612 128.196C143.505 128.711 142.384 129.21 141.28 129.673C140.494 130.003 140.124 130.909 140.454 131.694C140.755 132.411 141.532 132.781 142.262 132.593Z" fill="white"/>
<path d="M82.0113 125.15C82.4113 125.531 82.9661 125.66 83.467 125.53C83.7352 125.461 83.9878 125.317 84.1948 125.104C84.7843 124.486 84.7641 123.509 84.1485 122.918C83.2898 122.097 82.4519 121.228 81.6583 120.339C81.0903 119.704 80.1135 119.649 79.4779 120.215C78.8421 120.784 78.7871 121.761 79.355 122.396C80.2013 123.345 81.0948 124.27 82.0113 125.15Z" fill="white"/>
<path d="M208.924 92.6091C209.031 92.5815 209.137 92.5415 209.24 92.4895C210.327 91.9353 211.436 91.3816 212.537 90.8428C213.303 90.47 213.62 89.5434 213.245 88.7788C212.87 88.0113 211.945 87.6946 211.179 88.0705C210.065 88.6159 208.941 89.1764 207.84 89.7343C207.08 90.1214 206.777 91.051 207.164 91.8125C207.498 92.4695 208.238 92.7858 208.924 92.6091Z" fill="white"/>
<path d="M124.365 137.784C124.416 137.774 124.467 137.764 124.516 137.751C125.275 137.556 125.777 136.811 125.655 136.02C125.525 135.179 124.736 134.601 123.893 134.729C122.695 134.917 121.489 135.065 120.31 135.174C119.462 135.252 118.836 136.003 118.915 136.854C118.993 137.701 119.745 138.327 120.594 138.248C121.835 138.133 123.105 137.978 124.365 137.784Z" fill="white"/>
<path d="M112.98 138.443C113.138 138.45 113.29 138.433 113.435 138.396C114.075 138.231 114.561 137.663 114.592 136.969C114.63 136.118 113.969 135.395 113.118 135.359C111.915 135.305 110.712 135.207 109.54 135.066C108.694 134.965 107.925 135.568 107.824 136.417C107.722 137.262 108.326 138.031 109.173 138.132C110.421 138.283 111.702 138.386 112.98 138.443Z" fill="white"/>
<path d="M89.688 127.465C88.9879 126.975 88.0263 127.15 87.5377 127.846C87.0501 128.546 87.2212 129.51 87.9202 129.996C88.966 130.728 90.0497 131.422 91.1418 132.062C91.5081 132.277 91.9274 132.325 92.3087 132.227C92.6927 132.128 93.039 131.883 93.2549 131.511C93.6869 130.778 93.4406 129.83 92.7048 129.398C91.6825 128.8 90.6667 128.147 89.688 127.465Z" fill="white"/>
<path d="M102.484 136.631C102.995 136.5 103.425 136.108 103.583 135.567C103.821 134.747 103.35 133.889 102.532 133.653C101.397 133.324 100.258 132.938 99.1459 132.51C98.3498 132.202 97.4556 132.598 97.1496 133.394C96.8429 134.191 97.2394 135.083 98.0354 135.392C99.2282 135.85 100.451 136.262 101.669 136.618C101.944 136.697 102.225 136.698 102.484 136.631Z" fill="white"/>
<path d="M189.553 103.534C189.701 103.496 189.846 103.433 189.984 103.35C191.023 102.703 192.081 102.054 193.129 101.423C193.859 100.983 194.095 100.033 193.655 99.3043C193.215 98.5727 192.265 98.339 191.536 98.7788C190.475 99.4156 189.404 100.071 188.353 100.724C187.628 101.176 187.407 102.129 187.856 102.852C188.222 103.44 188.917 103.698 189.553 103.534Z" fill="white"/>
<path d="M199.122 97.861C199.25 97.8281 199.375 97.7766 199.496 97.7103C200.56 97.1077 201.645 96.5063 202.72 95.9232C203.468 95.5135 203.744 94.5751 203.336 93.8256C202.928 93.0792 201.989 92.8013 201.241 93.2107C200.154 93.8033 199.056 94.4114 197.979 95.0206C197.236 95.4384 196.973 96.3798 197.392 97.1234C197.744 97.7471 198.461 98.0312 199.122 97.861Z" fill="white"/>
<path d="M180.23 109.591C180.396 109.548 180.558 109.477 180.708 109.375C181.728 108.688 182.751 108.003 183.778 107.328C184.489 106.857 184.685 105.898 184.215 105.187C183.746 104.475 182.787 104.279 182.076 104.749C181.042 105.433 180.011 106.123 178.982 106.816C178.274 107.291 178.088 108.251 178.564 108.958C178.94 109.515 179.615 109.749 180.23 109.591Z" fill="white"/>
<path d="M152.25 127.721C152.373 127.689 152.494 127.642 152.61 127.577C153.67 126.995 154.767 126.374 155.868 125.73C156.604 125.298 156.853 124.354 156.422 123.617C155.992 122.882 155.046 122.635 154.311 123.063C153.231 123.692 152.159 124.303 151.122 124.873C150.375 125.283 150.102 126.221 150.513 126.969C150.86 127.601 151.583 127.893 152.25 127.721Z" fill="white"/>
<path d="M86.6017 57.0061C86.7674 56.9634 86.9288 56.8931 87.0779 56.7909C88.0436 56.1435 89.0622 55.5494 90.1069 55.0284C90.87 54.6468 91.1789 53.719 90.7977 52.9561C90.4163 52.1933 89.4886 51.8838 88.7264 52.2651C87.5632 52.8454 86.4297 53.5073 85.3551 54.2306C84.6475 54.7063 84.4592 55.6637 84.9357 56.3733C85.3104 56.9305 85.9859 57.1647 86.6017 57.0061Z" fill="white"/>
<path d="M171.048 115.859C171.217 115.816 171.381 115.745 171.534 115.642C172.555 114.942 173.575 114.245 174.595 113.546C175.297 113.062 175.476 112.1 174.994 111.399C174.513 110.697 173.55 110.517 172.848 110.998C171.831 111.697 170.812 112.393 169.793 113.089C169.088 113.571 168.908 114.532 169.388 115.235C169.765 115.788 170.436 116.017 171.048 115.859Z" fill="white"/>
<path d="M90.0993 91.5135C90.4774 92.0667 91.1478 92.2958 91.7588 92.1384C91.9287 92.0946 92.0935 92.0203 92.2468 91.917C93.277 91.2083 94.3079 90.4772 95.3099 89.7407C95.9967 89.2353 96.1429 88.2664 95.6377 87.5802C95.1324 86.8939 94.166 86.7475 93.4792 87.2529C92.5049 87.9695 91.5026 88.6805 90.5004 89.3692C89.7971 89.8501 89.6177 90.8116 90.0993 91.5135Z" fill="white"/>
<path d="M40.1104 111.818C41.343 111.647 42.5901 111.454 43.8179 111.246C43.8614 111.238 43.9046 111.23 43.9471 111.219C44.7157 111.021 45.2177 110.263 45.0827 109.466C44.9402 108.626 44.1431 108.059 43.3027 108.202C42.1046 108.406 40.8868 108.592 39.6848 108.761C38.8413 108.876 38.2502 109.657 38.3685 110.503C38.4857 111.347 39.2662 111.937 40.1104 111.818Z" fill="white"/>
<path d="M-4.63841 110.076C-3.42618 110.348 -2.18996 110.603 -0.963607 110.839C-0.732602 110.881 -0.503931 110.87 -0.289803 110.815C0.270639 110.671 0.727163 110.218 0.843118 109.611C1.00281 108.773 0.453833 107.964 -0.383832 107.803C-1.57882 107.576 -2.78385 107.325 -3.965 107.061C-4.7964 106.877 -5.62275 107.399 -5.80885 108.231C-5.99495 109.064 -5.47117 109.889 -4.63841 110.076Z" fill="white"/>
<path d="M51.1745 109.775C52.212 109.536 53.259 109.283 54.286 109.018L54.8172 108.878C55.6422 108.662 56.1354 107.818 55.9195 106.993C55.7041 106.172 54.8639 105.677 54.0408 105.889C54.0387 105.889 54.0364 105.89 54.0343 105.891L53.5156 106.027C52.5137 106.286 51.4922 106.533 50.4806 106.768C49.656 106.958 49.1313 107.788 49.323 108.619C49.5147 109.45 50.3434 109.967 51.1745 109.775Z" fill="white"/>
<path d="M28.9103 112.879C30.1543 112.817 31.4139 112.735 32.6537 112.636C32.7443 112.628 32.832 112.612 32.9172 112.59C33.6305 112.406 34.1307 111.732 34.0699 110.973C34.0019 110.123 33.2574 109.489 32.4075 109.558C31.1971 109.653 29.9684 109.733 28.7544 109.794C27.903 109.838 27.247 110.562 27.2903 111.415C27.3337 112.268 28.059 112.923 28.9103 112.879Z" fill="white"/>
<path d="M17.6608 112.952C18.9041 112.998 20.1658 113.027 21.4111 113.038C21.5484 113.038 21.6826 113.022 21.8103 112.99C22.4712 112.819 22.9616 112.221 22.9672 111.505C22.9752 110.655 22.2895 109.958 21.4369 109.951C20.2219 109.939 18.9912 109.911 17.7776 109.863C16.9251 109.831 16.2089 110.497 16.1757 111.348C16.1436 112.201 16.8086 112.919 17.6608 112.952Z" fill="white"/>
<path d="M6.4469 112.02C7.68245 112.18 8.93705 112.323 10.1756 112.444C10.3603 112.46 10.5408 112.445 10.711 112.401C11.3214 112.244 11.7976 111.72 11.8622 111.056C11.9459 110.208 11.3253 109.453 10.476 109.369C9.26894 109.252 8.04506 109.111 6.84117 108.959C5.99503 108.849 5.22137 109.447 5.11205 110.291C5.00381 111.139 5.60153 111.913 6.4469 112.02Z" fill="white"/>
<path d="M80.5556 97.209C80.9028 97.8402 81.6269 98.1353 82.2935 97.9636C82.4164 97.9319 82.5365 97.8818 82.6535 97.8198C83.7461 97.2194 84.8433 96.5924 85.9142 95.9561C86.648 95.5215 86.8893 94.5728 86.4545 93.8397C86.0198 93.1066 85.074 92.8655 84.3387 93.3005C83.2966 93.9197 82.2285 94.5298 81.1644 95.1132C80.4179 95.5256 80.1447 96.4633 80.5556 97.209Z" fill="white"/>
<path d="M78.7213 64.7734C79.0485 64.6891 79.3498 64.4967 79.569 64.2075C80.2865 63.2541 81.0492 62.3241 81.8369 61.4451C82.406 60.8105 82.3515 59.8327 81.7169 59.2659C81.0815 58.6961 80.1055 58.7499 79.5358 59.3845C78.6905 60.3294 77.8717 61.328 77.1015 62.3492C76.5887 63.0298 76.7252 63.9992 77.4066 64.5126C77.7968 64.8043 78.282 64.8865 78.7213 64.7734Z" fill="white"/>
<path d="M61.9185 106.787C61.9508 106.779 61.9834 106.77 62.0153 106.759C63.2011 106.371 64.3946 105.958 65.5634 105.536C66.3655 105.246 66.7804 104.361 66.4905 103.559C66.2019 102.759 65.3193 102.342 64.5139 102.633C63.3746 103.044 62.2107 103.446 61.0541 103.824C60.2438 104.09 59.8021 104.963 60.0672 105.772C60.3222 106.551 61.1365 106.989 61.9185 106.787Z" fill="white"/>
<path d="M72.1947 74.3092C72.5194 74.4456 72.8662 74.4648 73.1838 74.3829C73.6326 74.2673 74.0246 73.9527 74.2205 73.494C74.6886 72.3944 75.2045 71.3047 75.7535 70.2544C76.1489 69.4988 75.8567 68.5663 75.1011 68.171C74.3455 67.7757 73.4119 68.0672 73.0171 68.8226C72.4309 69.9463 71.8795 71.1089 71.379 72.2807C71.0447 73.0652 71.4098 73.9725 72.1947 74.3092Z" fill="white"/>
<path d="M69.4039 85.0515C69.6261 85.0899 69.8454 85.078 70.0502 85.0253C70.6205 84.8784 71.081 84.4089 71.1879 83.7914C71.3898 82.6169 71.6399 81.4362 71.9319 80.2831C72.1403 79.4545 71.6399 78.6172 70.8128 78.4061C69.9859 78.1981 69.1465 78.6982 68.9377 79.5269C68.6262 80.7552 68.3591 82.0135 68.1446 83.2679C67.9991 84.1058 68.563 84.9046 69.4039 85.0515Z" fill="white"/>
<path d="M69.7474 105.976C70.0053 106.748 70.8177 107.183 71.5962 106.982C71.6311 106.973 71.6657 106.961 71.7013 106.952C72.5095 106.68 72.9465 105.805 72.6772 104.998C72.5114 104.502 72.3547 104 72.2107 103.507C72.1517 103.306 72.0938 103.101 72.037 102.895C72.2062 102.884 72.3766 102.843 72.5413 102.772C73.6857 102.276 74.8367 101.756 75.9626 101.227C76.7339 100.863 77.0661 99.9446 76.7033 99.1739C76.34 98.4 75.4184 98.0698 74.6481 98.4308C73.552 98.9492 72.4302 99.455 71.3151 99.9369C71.0471 100.051 70.8292 100.234 70.6718 100.457C70.4099 100.371 70.1214 100.353 69.8342 100.424C69.8255 100.426 69.8157 100.425 69.8068 100.427C68.993 100.637 68.4954 101.464 68.6914 102.284C68.7493 102.527 68.8099 102.77 68.8726 103.012C68.9897 103.467 69.1148 103.922 69.2465 104.373C69.4012 104.904 69.5692 105.441 69.7474 105.976Z" fill="white"/>
<path d="M69.1875 96.1446C69.2848 96.1387 69.3795 96.1238 69.4708 96.1003C70.1765 95.9185 70.6751 95.2543 70.6245 94.502C70.5443 93.3203 70.5121 92.1168 70.5285 90.923C70.5394 90.0688 69.8571 89.3675 69.0046 89.3575C68.1532 89.344 67.4516 90.0286 67.4397 90.88C67.4226 92.1568 67.4577 93.4458 67.543 94.709C67.6001 95.5585 68.337 96.2042 69.1875 96.1446Z" fill="white"/>
<path d="M286.165 77.9415C290.939 72.6073 299.03 67.1234 305.671 63.6746C298.385 61.9605 289.2 58.6278 283.264 54.6239L288.932 65.7575L286.165 77.9415Z" fill="white"/>
</svg>
