<svg width="80" height="111" viewBox="0 0 80 111" fill="none" xmlns="http://www.w3.org/2000/svg">
<path d="M75.8022 22.9893L74.9968 20.971L74.1086 18.9777L73.1349 17.0156L72.0834 15.0822L70.9464 13.1809L69.7237 11.3176L68.4204 9.48928L67.029 7.70025L65.5517 5.95607L63.9911 4.25332L62.3421 2.59707L60.6166 1.00531C60.1887 0.614247 59.5243 0.644845 59.1335 1.0737C58.7402 1.50249 58.767 2.16728 59.1949 2.55859L60.889 4.11981L62.4753 5.71376L63.9781 7.35386L65.4028 9.03332L66.7392 10.7523L67.9924 12.5118L69.1675 14.3046L70.2597 16.1307L71.2712 17.991L72.2073 19.8794L73.0632 21.7947L73.8386 23.738L74.5413 25.7035L75.1638 27.6896L75.7086 29.6977L76.1834 31.7221L76.5807 33.761L76.9004 35.8154L77.1528 37.8801L77.3304 39.9528L77.4331 42.0348L77.4711 44.1213L77.4345 46.209L77.3233 48.2994L77.15 50.3887L76.9047 52.4727L76.5876 54.5526L76.2085 56.6251L75.7627 58.6861L75.2452 60.7362L74.6685 62.7731L74.0227 64.7917L73.3128 66.7932L72.5415 68.7752L71.7087 70.7324L70.8071 72.6654L69.8516 74.5734L68.8325 76.4499L67.7522 78.2956L66.6157 80.1104L65.4182 81.8869L64.1622 83.6265L62.8503 85.3287L61.4825 86.9868L60.0564 88.6008L58.5795 90.1718L57.0469 91.6923L55.4512 93.166L54.7466 93.7763L53.9978 94.3749L53.2096 94.9588L52.3895 95.5281L51.5352 96.0792L50.6466 96.6123L49.7288 97.1289L48.7844 97.6218L47.8082 98.0964L46.8053 98.5502L45.7808 98.9786L44.7296 99.3862L43.6593 99.7684L42.5674 100.125L41.4565 100.456L40.3289 100.762L39.1847 101.04L38.0242 101.288L36.8545 101.508L35.6708 101.698L34.4757 101.855L33.2741 101.983L32.0635 102.077L30.849 102.139L29.628 102.167L28.4057 102.159L27.1819 102.117L25.9568 102.037L24.7352 101.922L23.5149 101.766L22.2982 101.574L21.0877 101.343L19.8859 101.071L18.6902 100.761L17.5058 100.406L16.3326 100.01L15.1706 99.5719L14.025 99.0896L12.8906 98.5603L11.775 97.9894L10.6781 97.3719L9.59774 96.7051L8.53857 95.9943L7.5033 95.2333L6.48699 94.4207L5.49698 93.5614L4.53091 92.6504L4.36714 92.4796L4.65255 92.4913L5.42136 92.5407L6.30415 92.6016L7.29123 92.6641L8.39042 92.7174L9.60207 92.7498L10.919 92.7533L12.3515 92.7152L13.8875 92.6243L15.2721 92.5241L16.6519 92.4244L18.0291 92.3245L19.4088 92.2241L20.7889 92.1125L22.1664 92.0014C22.7444 91.955 23.1749 91.4468 23.1306 90.8665C23.0837 90.2858 22.5776 89.8528 21.9972 89.8989L20.6222 90.0101L19.2495 90.1212L17.8773 90.2208L16.5001 90.3208L15.1229 90.4205L13.7531 90.5197L12.2595 90.6079L10.8916 90.6443L9.63435 90.6408L8.46989 90.6096L7.4079 90.558L6.44315 90.4969L5.56036 90.436L4.7618 90.385L4.04206 90.356L3.37599 90.3587L2.75058 90.4144L2.20503 90.5398L1.86561 90.669L1.57494 90.8289L1.31027 91.0322L1.07413 91.278L0.876485 91.5654L0.7305 91.8695L0.626443 92.1842L0.561733 92.5119L0.526743 92.8431L0.518808 93.1831L0.530229 93.5407L0.563508 93.9145L0.611112 94.3078L0.677758 94.7283L0.760949 95.1759L0.860681 95.6524L0.974324 96.1603L1.10176 96.7059L1.24565 97.2818L1.40073 97.8979L1.57437 98.5567L1.75929 99.2532L1.95782 99.9923L2.17204 100.787L2.59228 102.238L3.04027 103.676L3.47368 105.103L3.67101 105.8L3.85345 106.496L4.01354 107.192L4.14888 107.884L4.25453 108.574L4.32952 109.289C4.38892 109.865 4.90549 110.281 5.48381 110.221C6.05972 110.16 6.478 109.646 6.4186 109.07L6.33776 108.302L6.21755 107.52L6.06718 106.75L5.8941 105.992L5.69837 105.243L5.48757 104.499L5.04973 103.054L4.60386 101.629L4.19505 100.21L3.98501 99.4406L3.78642 98.704L3.60368 98.0175L3.43467 97.3687L3.28163 96.7677L3.14474 96.2069L3.02153 95.6862L2.91444 95.2068L2.82349 94.7684L2.7488 94.3676L2.69269 94.0085L2.65859 93.7433L3.05848 94.1549L4.08975 95.128L5.1451 96.0445L6.22689 96.9101L7.33268 97.7217L8.46247 98.4794L9.61111 99.1905L10.7837 99.8501L11.9703 100.458L13.1732 101.019L14.395 101.531L15.6257 101.996L16.8702 102.417L18.126 102.791L19.3907 103.12L20.6592 103.408L21.9389 103.653L23.2199 103.854L24.5046 104.018L25.7904 104.141L27.0776 104.223L28.361 104.267L29.6454 104.277L30.9236 104.246L32.1978 104.184L33.4657 104.083L34.7247 103.95L35.9722 103.785L37.2108 103.587L38.4379 103.356L39.651 103.097L40.8478 102.806L42.028 102.487L43.1916 102.14L44.3387 101.765L45.4617 101.364L46.5632 100.936L47.6431 100.484L48.6964 100.007L49.7256 99.5069L50.7281 98.9835L51.6991 98.4367L52.6408 97.8716L53.5534 97.2833L54.4293 96.6747L55.276 96.0484L56.086 95.401L56.8594 94.7321L58.4961 93.2182L60.0824 91.6461L61.6056 90.0247L63.078 88.3594L64.4922 86.6463L65.8431 84.8906L67.1405 83.0969L68.3745 81.2621L69.5476 79.3916L70.6619 77.4889L71.7127 75.5518L72.6998 73.5856L73.6256 71.5932L74.4876 69.5733L75.2807 67.5304L76.0148 65.4675L76.68 63.3834L77.2736 61.2831L77.8055 59.1691L78.2683 57.0398L78.6618 54.9014L78.9859 52.7549L79.2408 50.6L79.4211 48.4424L79.5345 46.2828L79.5709 44.121L79.535 41.9635L79.4271 39.8097L79.2444 37.6611L78.9818 35.5227L78.6494 33.3944L78.2371 31.2776L77.7448 29.1781L77.1799 27.0951L76.5324 25.0302L75.8022 22.9893Z" fill="#1E1E1E"/>
</svg>
