<svg width="267" height="72" viewBox="0 0 267 72" fill="none" xmlns="http://www.w3.org/2000/svg">
<path d="M78.0507 55.816C77.6335 55.816 77.2923 55.6833 77.0268 55.4179C76.7614 55.1524 76.6287 54.8111 76.6287 54.394V17.4219C76.6287 17.0048 76.7614 16.6635 77.0268 16.398C77.2923 16.1326 77.6335 15.9999 78.0507 15.9999H104.159C104.576 15.9999 104.917 16.1326 105.183 16.398C105.486 16.6635 105.638 17.0048 105.638 17.4219V23.1668C105.638 23.5839 105.486 23.9252 105.183 24.1906C104.917 24.4561 104.576 24.5888 104.159 24.5888H86.6396V32.9502H103.021C103.438 32.9502 103.779 33.1019 104.045 33.4052C104.348 33.6707 104.5 34.0119 104.5 34.4291V40.1171C104.5 40.4963 104.348 40.8376 104.045 41.1409C103.779 41.4064 103.438 41.5391 103.021 41.5391H86.6396V54.394C86.6396 54.8111 86.5069 55.1524 86.2414 55.4179C85.976 55.6833 85.6347 55.816 85.2176 55.816H78.0507Z" fill="white"/>
<path d="M107.237 55.816C106.934 55.816 106.65 55.7023 106.384 55.4747C106.157 55.2093 106.043 54.9249 106.043 54.6215C106.043 54.4319 106.062 54.2613 106.1 54.1096L119.467 17.5925C119.58 17.1754 119.808 16.8152 120.149 16.5118C120.528 16.1705 121.04 15.9999 121.685 15.9999H130.103C130.748 15.9999 131.241 16.1705 131.582 16.5118C131.961 16.8152 132.208 17.1754 132.321 17.5925L145.631 54.1096C145.707 54.2613 145.745 54.4319 145.745 54.6215C145.745 54.9249 145.612 55.2093 145.347 55.4747C145.12 55.7023 144.835 55.816 144.494 55.816H137.498C136.929 55.816 136.493 55.6833 136.189 55.4179C135.924 55.1145 135.753 54.8491 135.677 54.6215L133.459 48.8198H118.272L116.111 54.6215C116.035 54.8491 115.864 55.1145 115.599 55.4179C115.333 55.6833 114.878 55.816 114.234 55.816H107.237ZM120.604 40.629H131.184L125.837 25.6126L120.604 40.629Z" fill="white"/>
<path d="M151.651 55.816C151.233 55.816 150.892 55.6833 150.627 55.4179C150.361 55.1524 150.229 54.8111 150.229 54.394V17.4219C150.229 17.0048 150.361 16.6635 150.627 16.398C150.892 16.1326 151.233 15.9999 151.651 15.9999H158.988C159.405 15.9999 159.746 16.1326 160.012 16.398C160.277 16.6635 160.41 17.0048 160.41 17.4219V31.13H174.459V17.4219C174.459 17.0048 174.592 16.6635 174.858 16.398C175.123 16.1326 175.464 15.9999 175.881 15.9999H183.219C183.636 15.9999 183.977 16.1326 184.243 16.398C184.508 16.6635 184.641 17.0048 184.641 17.4219V54.394C184.641 54.8111 184.508 55.1524 184.243 55.4179C183.977 55.6833 183.636 55.816 183.219 55.816H175.881C175.464 55.816 175.123 55.6833 174.858 55.4179C174.592 55.1524 174.459 54.8111 174.459 54.394V40.2308H160.41V54.394C160.41 54.8111 160.277 55.1524 160.012 55.4179C159.746 55.6833 159.405 55.816 158.988 55.816H151.651Z" fill="white"/>
<path d="M194.033 55.816C193.616 55.816 193.275 55.6833 193.009 55.4179C192.744 55.1524 192.611 54.8111 192.611 54.394V17.4219C192.611 17.0048 192.744 16.6635 193.009 16.398C193.275 16.1326 193.616 15.9999 194.033 15.9999H208.822C212.538 15.9999 215.704 16.6066 218.321 17.82C220.937 18.9956 222.947 20.7399 224.35 23.053C225.753 25.3282 226.512 28.1533 226.625 31.5282C226.663 33.1967 226.682 34.6566 226.682 35.9079C226.682 37.1593 226.663 38.6003 226.625 40.2308C226.474 43.7574 225.715 46.6773 224.35 48.9904C223.023 51.3035 221.07 53.0289 218.491 54.1665C215.951 55.2662 212.822 55.816 209.106 55.816H194.033ZM202.792 47.6253H208.822C210.452 47.6253 211.799 47.3788 212.86 46.8858C213.96 46.3549 214.775 45.5397 215.306 44.44C215.875 43.3403 216.178 41.8993 216.216 40.1171C216.292 39.0174 216.33 38.0315 216.33 37.1593C216.368 36.2871 216.368 35.415 216.33 34.5428C216.33 33.6707 216.292 32.7037 216.216 31.6419C216.14 29.0634 215.458 27.1863 214.169 26.0108C212.917 24.7973 211.04 24.1906 208.537 24.1906H202.792V47.6253Z" fill="white"/>
<path d="M249.993 56.3848C246.58 56.3848 243.584 55.835 241.006 54.7353C238.465 53.5977 236.493 51.8723 235.09 49.5592C233.687 47.2081 232.986 44.2314 232.986 40.629V17.4219C232.986 17.0048 233.118 16.6635 233.384 16.398C233.649 16.1326 233.991 15.9999 234.408 15.9999H241.745C242.162 15.9999 242.504 16.1326 242.769 16.398C243.034 16.6635 243.167 17.0048 243.167 17.4219V40.5721C243.167 43.0369 243.755 44.895 244.93 46.1464C246.144 47.3598 247.831 47.9666 249.993 47.9666C252.116 47.9666 253.766 47.3598 254.941 46.1464C256.155 44.895 256.762 43.0369 256.762 40.5721V17.4219C256.762 17.0048 256.894 16.6635 257.16 16.398C257.463 16.1326 257.804 15.9999 258.184 15.9999H265.578C265.957 15.9999 266.28 16.1326 266.545 16.398C266.848 16.6635 267 17.0048 267 17.4219V40.629C267 44.2314 266.298 47.2081 264.895 49.5592C263.492 51.8723 261.521 53.5977 258.98 54.7353C256.439 55.835 253.444 56.3848 249.993 56.3848Z" fill="white"/>
<path d="M60.2877 33.3749C60.2816 33.385 60.2756 33.3953 60.2698 33.4058L60.2691 33.4053C60.2751 33.3951 60.2813 33.3849 60.2877 33.3749ZM61.4996 33.0682L61.0524 33.8481L61.4996 33.0682C61.4733 33.0531 61.4469 33.0396 61.4205 33.0275L57.9416 31.041L57.9414 31.0409L53.9173 28.7444L53.9172 28.7444L22.0084 10.5304L22.0083 10.5303L14.1497 6.04265L14.1495 6.04259L6.37055 1.60194L6.36488 1.59816L6.34059 1.58197L6.3153 1.56739C3.99298 0.228138 1.10095 1.92442 1.10095 4.59006V67.5969C1.10095 70.2697 3.98547 71.9408 6.30965 70.6228L6.33784 70.6069L6.36481 70.5889L6.37048 70.5851L14.1495 66.1444L14.1497 66.1443L22.0083 61.6567L22.0084 61.6567L37.6731 52.7129L37.6732 52.7129L45.6267 48.1725L45.6269 48.1724L53.5381 43.6532L53.5383 43.6531L61.4909 39.1133C63.8316 37.7798 63.8345 34.4068 61.4996 33.0682ZM61.1975 32.959C60.9377 32.9158 60.688 32.9966 60.5041 33.1361C60.6929 32.9876 60.9382 32.9108 61.1975 32.959Z" fill="white" stroke="white" stroke-width="1.79809"/>
<path d="M13.2592 12.0695L13.2596 12.0697L21.1183 16.5574L21.1184 16.5574L46.6837 31.1572C46.6839 31.1573 46.6841 31.1574 46.6843 31.1575C47.1456 31.423 47.1457 32.0813 46.6846 32.3469C46.6843 32.3471 46.684 32.3472 46.6837 32.3474L41.9169 35.0623C41.9167 35.0624 41.9164 35.0626 41.9162 35.0627C41.7067 35.1808 41.443 35.1809 41.2334 35.063C41.2329 35.0628 41.2325 35.0625 41.232 35.0623L22 24.0876L21.9992 24.0872L16.5115 20.9483L16.5104 20.9476C14.8585 20.0061 12.8064 21.1958 12.8064 23.0982V28.4919C12.8064 29.3907 13.291 30.2002 14.0582 30.6409L14.0599 30.6419L21.118 34.6766L21.1183 34.6768L30.8188 40.2169C30.819 40.217 30.8193 40.2172 30.8196 40.2173C31.2806 40.4829 31.2807 41.1408 30.8198 41.4065C30.8195 41.4067 30.8191 41.4069 30.8188 41.4071L26.052 44.122C26.0516 44.1222 26.0512 44.1224 26.0509 44.1226C25.8414 44.2404 25.5779 44.2405 25.3684 44.1227C25.368 44.1225 25.3675 44.1222 25.3671 44.122L22.0106 42.2069L22.0097 42.2065L16.5221 39.0677L16.5209 39.067C14.869 38.1254 12.8169 39.3152 12.8169 41.2176V59.9479C12.8169 60.1864 12.6911 60.4088 12.4689 60.537C12.4684 60.5373 12.468 60.5376 12.4675 60.5378L7.82492 63.1802L7.82443 63.1805C7.36943 63.4398 6.80896 63.1126 6.80896 62.5921V9.55083C6.80896 9.03043 7.3691 8.70326 7.82403 8.96219C7.82417 8.96227 7.8243 8.96234 7.82443 8.96242L13.2592 12.0695Z" fill="#FFA86B" stroke="#FF832B" stroke-width="1.79809"/>
<path d="M53.5448 35.1084L55.2832 36.1059L48.717 39.8581L48.7169 39.8581L40.8058 44.3772L40.8055 44.3774L32.8523 48.9176L32.8522 48.9176L22.4615 54.848V52.8569L30.1723 48.4566L30.1725 48.4565L38.126 43.9162L38.1262 43.9161L46.0376 39.3967L53.5448 35.1084Z" fill="white" stroke="#121212" stroke-width="1.79809"/>
</svg>
