<svg width="205" height="192" viewBox="0 0 205 192" fill="none" xmlns="http://www.w3.org/2000/svg">
<rect x="5.1402" y="39.6746" width="168.143" height="151.057" rx="19.3834" fill="#1E1E1E" stroke="#1E1E1E" stroke-width="2.27673"/>
<rect x="1.16168" y="35.6746" width="168.143" height="151.057" rx="15.108" fill="white" stroke="#1E1E1E" stroke-width="2.27673"/>
<path d="M82.2116 166.87C82.153 166.87 82.105 166.851 82.0676 166.814C82.0303 166.776 82.0116 166.728 82.0116 166.67V161.47C82.0116 161.411 82.0303 161.363 82.0676 161.326C82.105 161.288 82.153 161.27 82.2116 161.27H85.8356C85.8943 161.27 85.9423 161.288 85.9796 161.326C86.017 161.363 86.0356 161.411 86.0356 161.47V162.11C86.0356 162.163 86.017 162.208 85.9796 162.246C85.9423 162.283 85.8943 162.302 85.8356 162.302H83.2436V163.558H85.6596C85.7183 163.558 85.7663 163.576 85.8036 163.614C85.841 163.651 85.8596 163.699 85.8596 163.758V164.35C85.8596 164.403 85.841 164.448 85.8036 164.486C85.7663 164.523 85.7183 164.542 85.6596 164.542H83.2436V165.838H85.8996C85.9583 165.838 86.0063 165.856 86.0436 165.894C86.081 165.931 86.0996 165.979 86.0996 166.038V166.67C86.0996 166.728 86.081 166.776 86.0436 166.814C86.0063 166.851 85.9583 166.87 85.8996 166.87H82.2116ZM88.1867 166.95C87.904 166.95 87.6507 166.896 87.4267 166.79C87.2027 166.678 87.024 166.528 86.8907 166.342C86.7574 166.155 86.6907 165.947 86.6907 165.718C86.6907 165.339 86.8427 165.04 87.1467 164.822C87.456 164.603 87.8614 164.454 88.3627 164.374L89.4107 164.222V164.078C89.4107 163.87 89.3627 163.71 89.2667 163.598C89.1707 163.486 89.0027 163.43 88.7627 163.43C88.5867 163.43 88.4454 163.464 88.3387 163.534C88.232 163.603 88.1494 163.694 88.0907 163.806C88.048 163.875 87.9867 163.91 87.9067 163.91H87.1467C87.088 163.91 87.0427 163.894 87.0107 163.862C86.9787 163.824 86.9654 163.782 86.9707 163.734C86.9707 163.643 87.0054 163.536 87.0747 163.414C87.144 163.291 87.2507 163.171 87.3947 163.054C87.5387 162.931 87.7227 162.83 87.9467 162.75C88.1707 162.67 88.4454 162.63 88.7707 162.63C89.1067 162.63 89.3947 162.67 89.6347 162.75C89.8747 162.83 90.0667 162.942 90.2107 163.086C90.3547 163.23 90.4614 163.398 90.5307 163.59C90.6 163.776 90.6347 163.979 90.6347 164.198V166.67C90.6347 166.728 90.616 166.776 90.5787 166.814C90.5414 166.851 90.4934 166.87 90.4347 166.87H89.6507C89.5974 166.87 89.552 166.851 89.5147 166.814C89.4774 166.776 89.4587 166.728 89.4587 166.67V166.374C89.3894 166.475 89.296 166.571 89.1787 166.662C89.0614 166.747 88.92 166.816 88.7547 166.87C88.5947 166.923 88.4054 166.95 88.1867 166.95ZM88.5067 166.118C88.6827 166.118 88.84 166.08 88.9787 166.006C89.1174 165.931 89.2267 165.816 89.3067 165.662C89.3867 165.507 89.4267 165.312 89.4267 165.078V164.942L88.6827 165.062C88.3947 165.11 88.184 165.182 88.0507 165.278C87.9174 165.374 87.8507 165.491 87.8507 165.63C87.8507 165.731 87.88 165.819 87.9387 165.894C88.0027 165.968 88.0854 166.024 88.1867 166.062C88.288 166.099 88.3947 166.118 88.5067 166.118ZM91.7953 166.87C91.742 166.87 91.6967 166.851 91.6593 166.814C91.622 166.776 91.6033 166.728 91.6033 166.67V162.91C91.6033 162.856 91.622 162.811 91.6593 162.774C91.6967 162.731 91.742 162.71 91.7953 162.71H92.5793C92.6327 162.71 92.678 162.731 92.7153 162.774C92.758 162.811 92.7793 162.856 92.7793 162.91V163.23C92.9127 163.064 93.0753 162.936 93.2673 162.846C93.4647 162.755 93.6913 162.71 93.9473 162.71H94.2913C94.3447 162.71 94.39 162.728 94.4273 162.766C94.4647 162.803 94.4833 162.851 94.4833 162.91V163.598C94.4833 163.656 94.4647 163.704 94.4273 163.742C94.39 163.779 94.3447 163.798 94.2913 163.798H93.5873C93.3527 163.798 93.1687 163.864 93.0353 163.998C92.902 164.126 92.8353 164.31 92.8353 164.55V166.67C92.8353 166.728 92.8167 166.776 92.7793 166.814C92.742 166.851 92.694 166.87 92.6353 166.87H91.7953ZM95.2719 166.87C95.2186 166.87 95.1732 166.851 95.1359 166.814C95.0986 166.776 95.0799 166.728 95.0799 166.67V162.91C95.0799 162.851 95.0986 162.803 95.1359 162.766C95.1732 162.728 95.2186 162.71 95.2719 162.71H96.0559C96.1146 162.71 96.1626 162.728 96.1999 162.766C96.2372 162.803 96.2559 162.851 96.2559 162.91V163.222C96.3946 163.051 96.5732 162.91 96.7919 162.798C97.0106 162.686 97.2772 162.63 97.5919 162.63C97.9066 162.63 98.1812 162.702 98.4159 162.846C98.6559 162.984 98.8426 163.19 98.9759 163.462C99.1146 163.728 99.1839 164.054 99.1839 164.438V166.67C99.1839 166.728 99.1626 166.776 99.1199 166.814C99.0826 166.851 99.0372 166.87 98.9839 166.87H98.1359C98.0772 166.87 98.0292 166.851 97.9919 166.814C97.9546 166.776 97.9359 166.728 97.9359 166.67V164.486C97.9359 164.203 97.8666 163.984 97.7279 163.83C97.5946 163.67 97.3972 163.59 97.1359 163.59C96.8852 163.59 96.6852 163.67 96.5359 163.83C96.3866 163.984 96.3119 164.203 96.3119 164.486V166.67C96.3119 166.728 96.2932 166.776 96.2559 166.814C96.2186 166.851 96.1732 166.87 96.1199 166.87H95.2719ZM100.334 166.87C100.281 166.87 100.236 166.851 100.198 166.814C100.161 166.776 100.142 166.728 100.142 166.67V162.91C100.142 162.851 100.161 162.803 100.198 162.766C100.236 162.728 100.281 162.71 100.334 162.71H101.134C101.193 162.71 101.241 162.728 101.278 162.766C101.316 162.803 101.334 162.851 101.334 162.91V166.67C101.334 166.728 101.316 166.776 101.278 166.814C101.241 166.851 101.193 166.87 101.134 166.87H100.334ZM100.31 162.07C100.257 162.07 100.212 162.051 100.174 162.014C100.137 161.976 100.118 161.928 100.118 161.87V161.23C100.118 161.171 100.137 161.123 100.174 161.086C100.212 161.043 100.257 161.022 100.31 161.022H101.15C101.209 161.022 101.257 161.043 101.294 161.086C101.337 161.123 101.358 161.171 101.358 161.23V161.87C101.358 161.928 101.337 161.976 101.294 162.014C101.257 162.051 101.209 162.07 101.15 162.07H100.31ZM85.225 174.87C85.1717 174.87 85.1263 174.851 85.089 174.814C85.0517 174.776 85.033 174.728 85.033 174.67V170.91C85.033 170.851 85.0517 170.803 85.089 170.766C85.1263 170.728 85.1717 170.71 85.225 170.71H86.009C86.0677 170.71 86.1157 170.728 86.153 170.766C86.1903 170.803 86.209 170.851 86.209 170.91V171.222C86.3477 171.051 86.5263 170.91 86.745 170.798C86.9637 170.686 87.2303 170.63 87.545 170.63C87.8597 170.63 88.1343 170.702 88.369 170.846C88.609 170.984 88.7957 171.19 88.929 171.462C89.0677 171.728 89.137 172.054 89.137 172.438V174.67C89.137 174.728 89.1157 174.776 89.073 174.814C89.0357 174.851 88.9903 174.87 88.937 174.87H88.089C88.0303 174.87 87.9823 174.851 87.945 174.814C87.9077 174.776 87.889 174.728 87.889 174.67V172.486C87.889 172.203 87.8197 171.984 87.681 171.83C87.5477 171.67 87.3503 171.59 87.089 171.59C86.8383 171.59 86.6383 171.67 86.489 171.83C86.3397 171.984 86.265 172.203 86.265 172.486V174.67C86.265 174.728 86.2463 174.776 86.209 174.814C86.1717 174.851 86.1263 174.87 86.073 174.87H85.225ZM92.0475 176.63C91.6528 176.63 91.3248 176.576 91.0635 176.47C90.8022 176.368 90.5942 176.243 90.4395 176.094C90.2902 175.95 90.1835 175.806 90.1195 175.662C90.0555 175.518 90.0208 175.406 90.0155 175.326C90.0102 175.267 90.0288 175.219 90.0715 175.182C90.1142 175.144 90.1622 175.126 90.2155 175.126H91.0715C91.1195 175.126 91.1595 175.136 91.1915 175.158C91.2288 175.184 91.2582 175.227 91.2795 175.286C91.3062 175.35 91.3435 175.416 91.3915 175.486C91.4395 175.56 91.5115 175.622 91.6075 175.67C91.7088 175.718 91.8422 175.742 92.0075 175.742C92.1942 175.742 92.3488 175.715 92.4715 175.662C92.5942 175.608 92.6848 175.518 92.7435 175.39C92.8075 175.262 92.8395 175.088 92.8395 174.87V174.334C92.7115 174.472 92.5488 174.587 92.3515 174.678C92.1595 174.768 91.9222 174.814 91.6395 174.814C91.3622 174.814 91.1168 174.771 90.9035 174.686C90.6955 174.595 90.5222 174.47 90.3835 174.31C90.2448 174.144 90.1382 173.947 90.0635 173.718C89.9888 173.488 89.9462 173.23 89.9355 172.942C89.9302 172.798 89.9302 172.656 89.9355 172.518C89.9462 172.24 89.9888 171.987 90.0635 171.758C90.1382 171.528 90.2448 171.331 90.3835 171.166C90.5222 170.995 90.6955 170.864 90.9035 170.774C91.1168 170.678 91.3622 170.63 91.6395 170.63C91.9328 170.63 92.1835 170.686 92.3915 170.798C92.5995 170.91 92.7702 171.048 92.9035 171.214V170.91C92.9035 170.856 92.9222 170.811 92.9595 170.774C92.9968 170.731 93.0422 170.71 93.0955 170.71H93.8795C93.9328 170.71 93.9782 170.731 94.0155 170.774C94.0582 170.811 94.0795 170.856 94.0795 170.91L94.0875 174.758C94.0875 175.158 94.0102 175.496 93.8555 175.774C93.7008 176.051 93.4715 176.262 93.1675 176.406C92.8688 176.555 92.4955 176.63 92.0475 176.63ZM92.0075 173.878C92.1995 173.878 92.3542 173.835 92.4715 173.75C92.5942 173.659 92.6848 173.547 92.7435 173.414C92.8022 173.275 92.8342 173.131 92.8395 172.982C92.8448 172.923 92.8475 172.84 92.8475 172.734C92.8475 172.622 92.8448 172.536 92.8395 172.478C92.8342 172.328 92.8022 172.187 92.7435 172.054C92.6848 171.915 92.5942 171.803 92.4715 171.718C92.3542 171.632 92.1995 171.59 92.0075 171.59C91.8048 171.59 91.6448 171.635 91.5275 171.726C91.4102 171.811 91.3248 171.926 91.2715 172.07C91.2182 172.214 91.1862 172.371 91.1755 172.542C91.1702 172.67 91.1702 172.795 91.1755 172.918C91.1862 173.094 91.2182 173.254 91.2715 173.398C91.3248 173.542 91.4102 173.659 91.5275 173.75C91.6448 173.835 91.8048 173.878 92.0075 173.878ZM96.7355 174.95C96.4048 174.95 96.1195 174.912 95.8795 174.838C95.6448 174.758 95.4528 174.662 95.3035 174.55C95.1595 174.438 95.0502 174.326 94.9755 174.214C94.9062 174.096 94.8688 173.998 94.8635 173.918C94.8582 173.859 94.8768 173.811 94.9195 173.774C94.9622 173.736 95.0048 173.718 95.0475 173.718H95.8235C95.8395 173.718 95.8555 173.72 95.8715 173.726C95.8875 173.731 95.9035 173.744 95.9195 173.766C95.9888 173.814 96.0608 173.87 96.1355 173.934C96.2102 173.992 96.2955 174.043 96.3915 174.086C96.4928 174.128 96.6182 174.15 96.7675 174.15C96.9435 174.15 97.0928 174.115 97.2155 174.046C97.3382 173.971 97.3995 173.867 97.3995 173.734C97.3995 173.638 97.3702 173.558 97.3115 173.494C97.2582 173.43 97.1542 173.371 96.9995 173.318C96.8448 173.264 96.6155 173.206 96.3115 173.142C96.0235 173.078 95.7782 172.992 95.5755 172.886C95.3728 172.779 95.2208 172.646 95.1195 172.486C95.0182 172.32 94.9675 172.123 94.9675 171.894C94.9675 171.686 95.0315 171.486 95.1595 171.294C95.2928 171.102 95.4875 170.944 95.7435 170.822C95.9995 170.694 96.3195 170.63 96.7035 170.63C96.9968 170.63 97.2528 170.667 97.4715 170.742C97.6955 170.811 97.8822 170.902 98.0315 171.014C98.1808 171.12 98.2928 171.232 98.3675 171.35C98.4475 171.462 98.4902 171.56 98.4955 171.646C98.5008 171.699 98.4848 171.744 98.4475 171.782C98.4102 171.819 98.3675 171.838 98.3195 171.838H97.6075C97.5808 171.838 97.5568 171.835 97.5355 171.83C97.5142 171.819 97.4955 171.806 97.4795 171.79C97.4155 171.747 97.3488 171.699 97.2795 171.646C97.2155 171.587 97.1382 171.536 97.0475 171.494C96.9568 171.451 96.8395 171.43 96.6955 171.43C96.5195 171.43 96.3835 171.47 96.2875 171.55C96.1968 171.624 96.1515 171.72 96.1515 171.838C96.1515 171.912 96.1755 171.982 96.2235 172.046C96.2715 172.11 96.3702 172.168 96.5195 172.222C96.6688 172.275 96.8955 172.331 97.1995 172.39C97.5622 172.454 97.8502 172.55 98.0635 172.678C98.2768 172.806 98.4288 172.955 98.5195 173.126C98.6155 173.291 98.6635 173.47 98.6635 173.662C98.6635 173.912 98.5888 174.136 98.4395 174.334C98.2902 174.526 98.0715 174.678 97.7835 174.79C97.5008 174.896 97.1515 174.95 96.7355 174.95Z" fill="#1E1E1E"/>
<path d="M24.2656 126.69C24.2656 126.749 24.2469 126.797 24.2096 126.834C24.1722 126.871 24.1242 126.89 24.0656 126.89H18.8656C18.8069 126.89 18.7589 126.871 18.7216 126.834C18.6842 126.797 18.6656 126.749 18.6656 126.69V123.122C18.6656 123.063 18.6842 123.015 18.7216 122.978C18.7589 122.941 18.8069 122.922 18.8656 122.922H19.5456C19.6042 122.922 19.6522 122.941 19.6896 122.978C19.7269 123.015 19.7456 123.063 19.7456 123.122V125.642H21.0976V123.282C21.0976 123.223 21.1162 123.175 21.1536 123.138C21.1909 123.101 21.2389 123.082 21.2976 123.082H21.9776C22.0309 123.082 22.0762 123.101 22.1136 123.138C22.1509 123.175 22.1696 123.223 22.1696 123.282V125.642H24.0656C24.1242 125.642 24.1722 125.661 24.2096 125.698C24.2469 125.735 24.2656 125.783 24.2656 125.842V126.69ZM24.3456 120.277C24.3456 120.72 24.2736 121.091 24.1296 121.389C23.9802 121.688 23.7696 121.917 23.4976 122.077C23.2256 122.232 22.9082 122.317 22.5456 122.333C22.4389 122.339 22.3189 122.341 22.1856 122.341C22.0469 122.341 21.9269 122.339 21.8256 122.333C21.4576 122.317 21.1402 122.227 20.8736 122.061C20.6016 121.896 20.3936 121.664 20.2496 121.365C20.1002 121.067 20.0256 120.704 20.0256 120.277C20.0256 119.856 20.1002 119.496 20.2496 119.197C20.3936 118.899 20.6016 118.667 20.8736 118.501C21.1402 118.336 21.4576 118.245 21.8256 118.229C21.9269 118.219 22.0469 118.213 22.1856 118.213C22.3189 118.213 22.4389 118.219 22.5456 118.229C22.9082 118.245 23.2256 118.333 23.4976 118.493C23.7696 118.648 23.9802 118.875 24.1296 119.173C24.2736 119.472 24.3456 119.84 24.3456 120.277ZM23.4656 120.277C23.4656 120.016 23.3856 119.819 23.2256 119.685C23.0602 119.552 22.8202 119.48 22.5056 119.469C22.4256 119.464 22.3189 119.461 22.1856 119.461C22.0522 119.461 21.9456 119.464 21.8656 119.469C21.5562 119.48 21.3189 119.552 21.1536 119.685C20.9882 119.819 20.9056 120.016 20.9056 120.277C20.9056 120.539 20.9882 120.739 21.1536 120.877C21.3189 121.011 21.5562 121.083 21.8656 121.093C21.9456 121.099 22.0522 121.101 22.1856 121.101C22.3189 121.101 22.4256 121.099 22.5056 121.093C22.8202 121.083 23.0602 121.011 23.2256 120.877C23.3856 120.739 23.4656 120.539 23.4656 120.277ZM24.2656 117.176C24.2656 117.235 24.2469 117.283 24.2096 117.32C24.1722 117.358 24.1242 117.376 24.0656 117.376H18.7856C18.7269 117.376 18.6789 117.358 18.6416 117.32C18.6042 117.283 18.5856 117.235 18.5856 117.176V116.376C18.5856 116.323 18.6042 116.278 18.6416 116.24C18.6789 116.203 18.7269 116.184 18.7856 116.184H24.0656C24.1242 116.184 24.1722 116.203 24.2096 116.24C24.2469 116.278 24.2656 116.323 24.2656 116.376V117.176ZM24.2656 114.973C24.2656 115.032 24.2469 115.08 24.2096 115.117C24.1722 115.155 24.1242 115.173 24.0656 115.173H18.7856C18.7269 115.173 18.6789 115.155 18.6416 115.117C18.6042 115.08 18.5856 115.032 18.5856 114.973V114.173C18.5856 114.12 18.6042 114.075 18.6416 114.037C18.6789 114 18.7269 113.981 18.7856 113.981H24.0656C24.1242 113.981 24.1722 114 24.2096 114.037C24.2469 114.075 24.2656 114.12 24.2656 114.173V114.973ZM24.3456 111.066C24.3456 111.509 24.2736 111.88 24.1296 112.178C23.9802 112.477 23.7696 112.706 23.4976 112.866C23.2256 113.021 22.9082 113.106 22.5456 113.122C22.4389 113.128 22.3189 113.13 22.1856 113.13C22.0469 113.13 21.9269 113.128 21.8256 113.122C21.4576 113.106 21.1402 113.016 20.8736 112.85C20.6016 112.685 20.3936 112.453 20.2496 112.154C20.1002 111.856 20.0256 111.493 20.0256 111.066C20.0256 110.645 20.1002 110.285 20.2496 109.986C20.3936 109.688 20.6016 109.456 20.8736 109.29C21.1402 109.125 21.4576 109.034 21.8256 109.018C21.9269 109.008 22.0469 109.002 22.1856 109.002C22.3189 109.002 22.4389 109.008 22.5456 109.018C22.9082 109.034 23.2256 109.122 23.4976 109.282C23.7696 109.437 23.9802 109.664 24.1296 109.962C24.2736 110.261 24.3456 110.629 24.3456 111.066ZM23.4656 111.066C23.4656 110.805 23.3856 110.608 23.2256 110.474C23.0602 110.341 22.8202 110.269 22.5056 110.258C22.4256 110.253 22.3189 110.25 22.1856 110.25C22.0522 110.25 21.9456 110.253 21.8656 110.258C21.5562 110.269 21.3189 110.341 21.1536 110.474C20.9882 110.608 20.9056 110.805 20.9056 111.066C20.9056 111.328 20.9882 111.528 21.1536 111.666C21.3189 111.8 21.5562 111.872 21.8656 111.882C21.9456 111.888 22.0522 111.89 22.1856 111.89C22.3189 111.89 22.4256 111.888 22.5056 111.882C22.8202 111.872 23.0602 111.8 23.2256 111.666C23.3856 111.528 23.4656 111.328 23.4656 111.066ZM24.2656 107.139C24.2656 107.213 24.2469 107.272 24.2096 107.315C24.1722 107.352 24.1242 107.381 24.0656 107.403L20.3616 108.547C20.3349 108.557 20.3082 108.563 20.2816 108.563C20.2336 108.563 20.1936 108.547 20.1616 108.515C20.1242 108.477 20.1056 108.435 20.1056 108.387V107.683C20.1056 107.613 20.1242 107.56 20.1616 107.523C20.1989 107.485 20.2336 107.461 20.2656 107.451L22.7376 106.723L20.2816 105.947C20.2442 105.936 20.2069 105.912 20.1696 105.875C20.1269 105.832 20.1056 105.773 20.1056 105.699V105.243C20.1056 105.168 20.1269 105.112 20.1696 105.075C20.2069 105.032 20.2442 105.005 20.2816 104.995L22.7376 104.219L20.2656 103.491C20.2336 103.485 20.1989 103.464 20.1616 103.427C20.1242 103.384 20.1056 103.331 20.1056 103.267V102.563C20.1056 102.515 20.1242 102.475 20.1616 102.443C20.1936 102.405 20.2336 102.387 20.2816 102.387C20.3082 102.387 20.3349 102.389 20.3616 102.395L24.0656 103.547C24.1242 103.563 24.1722 103.592 24.2096 103.635C24.2469 103.672 24.2656 103.728 24.2656 103.803V104.419C24.2656 104.493 24.2469 104.552 24.2096 104.595C24.1722 104.637 24.1242 104.669 24.0656 104.691L21.6976 105.467L24.0656 106.259C24.1242 106.275 24.1722 106.304 24.2096 106.347C24.2469 106.389 24.2656 106.448 24.2656 106.523V107.139ZM24.3456 99.9111C24.3456 100.524 24.1749 101.012 23.8336 101.375C23.4922 101.732 22.9962 101.922 22.3456 101.943C22.3029 101.943 22.2469 101.943 22.1776 101.943C22.1029 101.943 22.0442 101.943 22.0016 101.943C21.5909 101.922 21.2389 101.828 20.9456 101.663C20.6469 101.498 20.4202 101.266 20.2656 100.967C20.1056 100.668 20.0256 100.319 20.0256 99.9191C20.0256 99.4711 20.1189 99.0978 20.3056 98.7991C20.4869 98.4951 20.7376 98.2685 21.0576 98.1191C21.3722 97.9645 21.7349 97.8871 22.1456 97.8871H22.3296C22.3829 97.8871 22.4282 97.9085 22.4656 97.9511C22.5029 97.9885 22.5216 98.0338 22.5216 98.0871V100.703C22.5269 100.703 22.5376 100.703 22.5536 100.703C22.5642 100.703 22.5749 100.703 22.5856 100.703C22.7562 100.698 22.9136 100.666 23.0576 100.607C23.1962 100.543 23.3082 100.455 23.3936 100.343C23.4789 100.226 23.5216 100.087 23.5216 99.9271C23.5216 99.7938 23.5029 99.6845 23.4656 99.5991C23.4282 99.5138 23.3829 99.4445 23.3296 99.3911C23.2762 99.3325 23.2309 99.2898 23.1936 99.2631C23.1402 99.2151 23.1082 99.1778 23.0976 99.1511C23.0816 99.1191 23.0736 99.0711 23.0736 99.0071V98.1751C23.0736 98.1218 23.0896 98.0791 23.1216 98.0471C23.1482 98.0098 23.1882 97.9938 23.2416 97.9991C23.3269 98.0045 23.4336 98.0498 23.5616 98.1351C23.6842 98.2151 23.8069 98.3351 23.9296 98.4951C24.0469 98.6551 24.1456 98.8551 24.2256 99.0951C24.3056 99.3298 24.3456 99.6018 24.3456 99.9111ZM21.7936 100.703V99.1351H21.7776C21.5856 99.1351 21.4202 99.1671 21.2816 99.2311C21.1376 99.2898 21.0256 99.3778 20.9456 99.4951C20.8656 99.6125 20.8256 99.7538 20.8256 99.9191C20.8256 100.084 20.8656 100.226 20.9456 100.343C21.0256 100.46 21.1376 100.551 21.2816 100.615C21.4202 100.674 21.5856 100.703 21.7776 100.703H21.7936ZM24.2656 96.8954C24.2656 96.9488 24.2469 96.9941 24.2096 97.0314C24.1722 97.0688 24.1242 97.0874 24.0656 97.0874H20.3056C20.2522 97.0874 20.2069 97.0688 20.1696 97.0314C20.1269 96.9941 20.1056 96.9488 20.1056 96.8954V96.1114C20.1056 96.0581 20.1269 96.0128 20.1696 95.9754C20.2069 95.9328 20.2522 95.9114 20.3056 95.9114H20.6256C20.4602 95.7781 20.3322 95.6154 20.2416 95.4234C20.1509 95.2261 20.1056 94.9994 20.1056 94.7434V94.3994C20.1056 94.3461 20.1242 94.3008 20.1616 94.2634C20.1989 94.2261 20.2469 94.2074 20.3056 94.2074H20.9936C21.0522 94.2074 21.1002 94.2261 21.1376 94.2634C21.1749 94.3008 21.1936 94.3461 21.1936 94.3994L21.1936 95.1034C21.1936 95.3381 21.2602 95.5221 21.3936 95.6554C21.5216 95.7888 21.7056 95.8554 21.9456 95.8554H24.0656C24.1242 95.8554 24.1722 95.8741 24.2096 95.9114C24.2469 95.9488 24.2656 95.9968 24.2656 96.0554V96.8954ZM24.3456 91.9709C24.3456 92.3015 24.3082 92.5869 24.2336 92.8269C24.1536 93.0615 24.0576 93.2535 23.9456 93.4029C23.8336 93.5469 23.7216 93.6562 23.6096 93.7309C23.4922 93.8002 23.3936 93.8375 23.3136 93.8429C23.2549 93.8482 23.2069 93.8295 23.1696 93.7869C23.1322 93.7442 23.1136 93.7015 23.1136 93.6589V92.8829C23.1136 92.8669 23.1162 92.8509 23.1216 92.8349C23.1269 92.8189 23.1402 92.8029 23.1616 92.7869C23.2096 92.7175 23.2656 92.6455 23.3296 92.5709C23.3882 92.4962 23.4389 92.4109 23.4816 92.3149C23.5242 92.2135 23.5456 92.0882 23.5456 91.9389C23.5456 91.7629 23.5109 91.6135 23.4416 91.4909C23.3669 91.3682 23.2629 91.3069 23.1296 91.3069C23.0336 91.3069 22.9536 91.3362 22.8896 91.3949C22.8256 91.4482 22.7669 91.5522 22.7136 91.7069C22.6602 91.8615 22.6016 92.0909 22.5376 92.3949C22.4736 92.6829 22.3882 92.9282 22.2816 93.1309C22.1749 93.3335 22.0416 93.4855 21.8816 93.5869C21.7162 93.6882 21.5189 93.7389 21.2896 93.7389C21.0816 93.7389 20.8816 93.6749 20.6896 93.5469C20.4976 93.4135 20.3402 93.2189 20.2176 92.9629C20.0896 92.7069 20.0256 92.3869 20.0256 92.0029C20.0256 91.7095 20.0629 91.4535 20.1376 91.2349C20.2069 91.0109 20.2976 90.8242 20.4096 90.6749C20.5162 90.5255 20.6282 90.4135 20.7456 90.3389C20.8576 90.2589 20.9562 90.2162 21.0416 90.2109C21.0949 90.2055 21.1402 90.2215 21.1776 90.2589C21.2149 90.2962 21.2336 90.3389 21.2336 90.3869V91.0989C21.2336 91.1255 21.2309 91.1495 21.2256 91.1709C21.2149 91.1922 21.2016 91.2109 21.1856 91.2269C21.1429 91.2909 21.0949 91.3575 21.0416 91.4269C20.9829 91.4909 20.9322 91.5682 20.8896 91.6589C20.8469 91.7495 20.8256 91.8669 20.8256 92.0109C20.8256 92.1869 20.8656 92.3229 20.9456 92.4189C21.0202 92.5095 21.1162 92.5549 21.2336 92.5549C21.3082 92.5549 21.3776 92.5309 21.4416 92.4829C21.5056 92.4349 21.5642 92.3362 21.6176 92.1869C21.6709 92.0375 21.7269 91.8109 21.7856 91.5069C21.8496 91.1442 21.9456 90.8562 22.0736 90.6429C22.2016 90.4295 22.3509 90.2775 22.5216 90.1869C22.6869 90.0909 22.8656 90.0429 23.0576 90.0429C23.3082 90.0429 23.5322 90.1175 23.7296 90.2669C23.9216 90.4162 24.0736 90.6349 24.1856 90.9229C24.2922 91.2055 24.3456 91.5549 24.3456 91.9709Z" fill="#1E1E1E"/>
<mask id="path-5-inside-1_1_3249" fill="white">
<path d="M40.6502 124.126C40.6502 121.759 42.5688 119.841 44.9355 119.841H50.2178C52.5845 119.841 54.5031 121.759 54.5031 124.126V151.445H40.6502V124.126Z"/>
</mask>
<path d="M40.6502 124.126C40.6502 121.759 42.5688 119.841 44.9355 119.841H50.2178C52.5845 119.841 54.5031 121.759 54.5031 124.126V151.445H40.6502V124.126Z" fill="#C0F4C9"/>
<path d="M39.5789 124.126C39.5789 121.167 41.9771 118.769 44.9355 118.769H50.2178C53.1762 118.769 55.5744 121.167 55.5744 124.126L53.4318 124.126C53.4318 122.351 51.9928 120.912 50.2178 120.912H44.9355C43.1604 120.912 41.7215 122.351 41.7215 124.126L39.5789 124.126ZM54.5031 151.445H40.6502H54.5031ZM39.5789 151.445V124.126C39.5789 121.167 41.9771 118.769 44.9355 118.769L44.9355 120.912C43.1604 120.912 41.7215 122.351 41.7215 124.126V151.445H39.5789ZM50.2178 118.769C53.1762 118.769 55.5744 121.167 55.5744 124.126V151.445H53.4318V124.126C53.4318 122.351 51.9928 120.912 50.2178 120.912L50.2178 118.769Z" fill="#1E1E1E" mask="url(#path-5-inside-1_1_3249)"/>
<mask id="path-7-inside-2_1_3249" fill="white">
<path d="M66.2263 112.341C66.2263 109.974 68.1449 108.056 70.5116 108.056H75.794C78.1607 108.056 80.0793 109.975 80.0793 112.341V151.445H66.2263V112.341Z"/>
</mask>
<path d="M66.2263 112.341C66.2263 109.974 68.1449 108.056 70.5116 108.056H75.794C78.1607 108.056 80.0793 109.975 80.0793 112.341V151.445H66.2263V112.341Z" fill="#C0D5F4"/>
<path d="M65.155 112.341C65.155 109.383 67.5533 106.985 70.5116 106.985H75.794C78.7524 106.985 81.1506 109.383 81.1506 112.341L79.0079 112.341C79.0079 110.566 77.569 109.127 75.794 109.127H70.5116C68.7366 109.127 67.2977 110.566 67.2977 112.341L65.155 112.341ZM80.0793 151.445H66.2263H80.0793ZM65.155 151.445V112.341C65.155 109.383 67.5533 106.985 70.5116 106.985L70.5116 109.127C68.7366 109.127 67.2977 110.566 67.2977 112.341V151.445H65.155ZM75.794 106.985C78.7524 106.985 81.1506 109.383 81.1506 112.341V151.445H79.0079V112.341C79.0079 110.566 77.569 109.127 75.794 109.127L75.794 106.985Z" fill="#1E1E1E" mask="url(#path-7-inside-2_1_3249)"/>
<mask id="path-9-inside-3_1_3249" fill="white">
<path d="M92.3337 97.8783C92.3337 95.5116 94.2523 93.593 96.619 93.593H102.434C104.801 93.593 106.719 95.5116 106.719 97.8783V151.445H92.3337V97.8783Z"/>
</mask>
<path d="M92.3337 97.8783C92.3337 95.5116 94.2523 93.593 96.619 93.593H102.434C104.801 93.593 106.719 95.5116 106.719 97.8783V151.445H92.3337V97.8783Z" fill="#CEC0F4"/>
<path d="M91.2624 97.8783C91.2624 94.9199 93.6607 92.5217 96.619 92.5217H102.434C105.393 92.5217 107.791 94.9199 107.791 97.8783L105.648 97.8783C105.648 96.1033 104.209 94.6643 102.434 94.6643H96.619C94.844 94.6643 93.4051 96.1033 93.4051 97.8783L91.2624 97.8783ZM106.719 151.445H92.3337H106.719ZM91.2624 151.445V97.8783C91.2624 94.9199 93.6607 92.5217 96.619 92.5217L96.619 94.6643C94.844 94.6643 93.4051 96.1033 93.4051 97.8783V151.445H91.2624ZM102.434 92.5217C105.393 92.5217 107.791 94.9199 107.791 97.8783V151.445H105.648V97.8783C105.648 96.1033 104.209 94.6643 102.434 94.6643L102.434 92.5217Z" fill="#1E1E1E" mask="url(#path-9-inside-3_1_3249)"/>
<mask id="path-11-inside-4_1_3249" fill="white">
<path d="M118.439 87.7008C118.439 85.3341 120.358 83.4155 122.725 83.4155H128.54C130.906 83.4155 132.825 85.3341 132.825 87.7008V151.98H118.439V87.7008Z"/>
</mask>
<path d="M118.439 87.7008C118.439 85.3341 120.358 83.4155 122.725 83.4155H128.54C130.906 83.4155 132.825 85.3341 132.825 87.7008V151.98H118.439V87.7008Z" fill="#F4C0E5"/>
<path d="M117.368 87.7008C117.368 84.7424 119.766 82.3442 122.725 82.3442H128.54C131.498 82.3442 133.896 84.7424 133.896 87.7008L131.754 87.7008C131.754 85.9258 130.315 84.4869 128.54 84.4869H122.725C120.949 84.4869 119.511 85.9258 119.511 87.7008L117.368 87.7008ZM132.825 151.98H118.439H132.825ZM117.368 151.98V87.7008C117.368 84.7424 119.766 82.3442 122.725 82.3442L122.725 84.4869C120.949 84.4869 119.511 85.9258 119.511 87.7008V151.98H117.368ZM128.54 82.3442C131.498 82.3442 133.896 84.7424 133.896 87.7008V151.98H131.754V87.7008C131.754 85.9258 130.315 84.4869 128.54 84.4869L128.54 82.3442Z" fill="#1E1E1E" mask="url(#path-11-inside-4_1_3249)"/>
<path d="M31.0953 65.3015C30.7816 64.9877 30.2728 64.9877 29.959 65.3015L24.8456 70.4149C24.5319 70.7287 24.5319 71.2374 24.8456 71.5512C25.1594 71.865 25.6682 71.865 25.9819 71.5512L30.5272 67.0059L35.0724 71.5512C35.3862 71.865 35.895 71.865 36.2087 71.5512C36.5225 71.2374 36.5225 70.7287 36.2087 70.4149L31.0953 65.3015ZM29.7237 65.8696L29.7237 152.647L31.3307 152.647L31.3307 65.8696L29.7237 65.8696Z" fill="#1E1E1E"/>
<path d="M152.445 152.548C152.759 152.235 152.759 151.726 152.445 151.412L147.332 146.299C147.018 145.985 146.51 145.985 146.196 146.299C145.882 146.612 145.882 147.121 146.196 147.435L150.741 151.98L146.196 156.525C145.882 156.839 145.882 157.348 146.196 157.662C146.51 157.976 147.018 157.976 147.332 157.662L152.445 152.548ZM29.865 152.784H151.877V151.177H29.865V152.784Z" fill="#1E1E1E"/>
<rect x="0.660939" y="1.03482" width="77.4902" height="27.7291" rx="4.88818" transform="matrix(0.975631 0.215353 -0.213542 0.977833 121.263 16.0611)" fill="#FFA86B" stroke="#1E1E1E" stroke-width="1.73455"/>
<path d="M141.808 41.2454L143.932 31.516L150.246 32.9096L149.923 34.3871L145.368 33.3816L144.792 36.023L149.02 36.9563L148.697 38.4337L144.469 37.5004L143.889 40.1561L148.482 41.1699L148.159 42.6474L141.808 41.2454ZM151.903 43.628C151.441 43.5261 151.044 43.3521 150.71 43.1058C150.38 42.857 150.143 42.5458 150 42.1722C149.859 41.7992 149.841 41.3736 149.945 40.8954C150.035 40.4837 150.186 40.1599 150.396 39.9242C150.607 39.6885 150.861 39.5188 151.158 39.4152C151.456 39.3116 151.778 39.2548 152.124 39.245C152.475 39.2328 152.831 39.2467 153.193 39.2868C153.63 39.3366 153.984 39.3734 154.257 39.3972C154.531 39.4177 154.736 39.4033 154.873 39.3538C155.014 39.3018 155.102 39.1935 155.138 39.0288L155.144 39.0003C155.222 38.6424 155.177 38.3419 155.008 38.0988C154.839 37.8557 154.556 37.6902 154.157 37.6023C153.737 37.5096 153.384 37.5278 153.097 37.6571C152.814 37.7871 152.602 37.9678 152.462 38.1992L150.91 37.6175C151.133 37.202 151.422 36.8775 151.778 36.6439C152.135 36.4072 152.539 36.2608 152.992 36.2047C153.445 36.1455 153.927 36.172 154.435 36.2843C154.786 36.3617 155.126 36.48 155.456 36.6391C155.786 36.7981 156.073 37.0044 156.319 37.2579C156.566 37.5082 156.741 37.8141 156.844 38.1755C156.951 38.5376 156.951 38.961 156.845 39.4455L155.779 44.3292L154.129 43.9651L154.348 42.9627L154.291 42.9502C154.143 43.1299 153.954 43.2875 153.726 43.423C153.502 43.556 153.235 43.645 152.927 43.6899C152.623 43.7323 152.282 43.7117 151.903 43.628ZM152.624 42.4626C152.968 42.5387 153.282 42.5365 153.565 42.4561C153.848 42.3726 154.082 42.2318 154.268 42.0337C154.457 41.8364 154.581 41.6031 154.639 41.3339L154.827 40.474C154.764 40.5065 154.663 40.5275 154.525 40.5369C154.39 40.547 154.241 40.5488 154.077 40.5425C153.913 40.5361 153.751 40.5269 153.591 40.5149C153.431 40.5029 153.293 40.4922 153.176 40.483C152.912 40.4613 152.67 40.4678 152.451 40.5023C152.231 40.5368 152.048 40.6125 151.9 40.7292C151.752 40.8427 151.654 41.0103 151.606 41.232C151.537 41.5487 151.6 41.8133 151.795 42.0258C151.991 42.2382 152.267 42.3838 152.624 42.4626ZM157.504 44.7101L159.098 37.413L160.761 37.7803L160.496 38.9964L160.572 39.0132C160.796 38.6213 161.095 38.3468 161.467 38.19C161.843 38.0306 162.239 37.997 162.657 38.089C162.751 38.11 162.856 38.1381 162.971 38.1734C163.09 38.2062 163.187 38.2393 163.262 38.2726L162.917 39.8545C162.85 39.8131 162.739 39.7655 162.585 39.7116C162.435 39.6553 162.288 39.6111 162.142 39.579C161.83 39.5099 161.533 39.516 161.254 39.597C160.978 39.6756 160.744 39.818 160.55 40.0242C160.356 40.2303 160.225 40.4886 160.157 40.799L159.22 45.0888L157.504 44.7101ZM165.446 41.9814L164.512 46.257L162.796 45.8782L164.39 38.5812L166.03 38.9432L165.759 40.1831L165.844 40.202C166.101 39.8304 166.439 39.5647 166.858 39.4049C167.28 39.2458 167.763 39.2262 168.307 39.3462C168.809 39.4571 169.223 39.6614 169.549 39.9591C169.878 40.2574 170.101 40.6336 170.217 41.0875C170.336 41.5421 170.331 42.0604 170.2 42.6424L169.186 47.2886L167.47 46.9098L168.426 42.5297C168.533 42.042 168.49 41.6324 168.297 41.3011C168.108 40.9705 167.792 40.7563 167.35 40.6587C167.049 40.5924 166.768 40.6 166.505 40.6814C166.246 40.7603 166.023 40.9086 165.836 41.1264C165.653 41.3448 165.523 41.6298 165.446 41.9814Z" fill="#1E1E1E"/>
<path d="M95.5121 57.3796C95.0876 57.4206 94.6601 57.342 94.2776 57.1525C93.8951 56.963 93.5725 56.6702 93.3462 56.3068C93.1199 55.9435 92.9987 55.5239 92.9961 55.0952C92.9936 54.6665 93.1099 54.2455 93.332 53.8795L105.294 34.1741C106.442 32.282 109.329 32.9492 109.54 35.1553L110.407 44.2257C110.441 44.5778 110.554 44.9175 110.739 45.2185C110.924 45.5196 111.175 45.7739 111.473 45.9619L119.364 50.9187C121.224 52.0864 120.551 54.9624 118.365 55.1736L95.5121 57.3796Z" fill="#1E1E1E"/>
</svg>
