<svg width="43" height="40" viewBox="0 0 43 40" fill="none" xmlns="http://www.w3.org/2000/svg">
<ellipse cx="22.2728" cy="19.375" rx="16.5296" ry="15.625" fill="#EDFDCC"/>
<path d="M21.1579 4.00001C18.5553 3.99783 15.9873 4.564 13.6542 5.65437C11.3212 6.74474 9.28614 8.32982 7.70782 10.286L12.6947 15H0V3.00001L4.69493 7.438C6.67623 5.11367 9.1837 3.2389 12.0328 1.95168C14.8819 0.66445 18.0001 -0.00246874 21.1579 6.86692e-06C32.8434 6.86692e-06 42.3158 8.95401 42.3158 20H38.0842C38.0842 15.7565 36.3009 11.6869 33.1266 8.6863C29.9523 5.68571 25.647 4.00001 21.1579 4.00001ZM4.23158 20C4.23149 23.346 5.34112 26.6078 7.40437 29.3266C9.46762 32.0454 12.3807 34.0843 15.7337 35.1566C19.0867 36.2288 22.711 36.2804 26.0966 35.3042C29.4823 34.3279 32.459 32.3728 34.608 29.714L29.621 25H42.3158V37L37.6208 32.562C35.6395 34.8863 33.1321 36.7611 30.283 38.0483C27.4339 39.3355 24.3157 40.0025 21.1579 40C9.47239 40 0 31.046 0 20H4.23158Z" fill="#1E1E1E"/>
<path d="M20.3848 29.934L20.5993 29.7071L20.3848 29.934C20.6429 30.178 20.9895 30.3123 21.3474 30.3123C21.7053 30.3123 22.0518 30.178 22.3099 29.934C22.5686 29.6895 22.7175 29.3539 22.7175 29V27.3123H23.4632C24.6628 27.3123 25.8165 26.862 26.6698 26.0554C27.5237 25.2482 28.007 24.1495 28.007 23C28.007 21.8505 27.5237 20.7518 26.6698 19.9446C25.8165 19.138 24.6628 18.6877 23.4632 18.6877H22.7175V15.3123H24.521C24.7243 15.3123 24.9159 15.3888 25.0546 15.5198C25.1926 15.6503 25.2667 15.8235 25.2667 16C25.2667 16.3539 25.4156 16.6895 25.6743 16.934C25.9324 17.178 26.2789 17.3123 26.6368 17.3123C26.9947 17.3123 27.3413 17.178 27.5994 16.934C27.8581 16.6895 28.007 16.3539 28.007 16C28.007 15.1157 27.6352 14.2714 26.9797 13.6518C26.3248 13.0327 25.4401 12.6877 24.521 12.6877H22.7175V11C22.7175 10.6461 22.5686 10.3105 22.3099 10.066C22.0518 9.82196 21.7053 9.68773 21.3474 9.68773C20.9895 9.68773 20.6429 9.82196 20.3848 10.066C20.1261 10.3105 19.9772 10.6461 19.9772 11V12.6877H19.2316C18.032 12.6877 16.8782 13.138 16.0249 13.9446C15.171 14.7518 14.6877 15.8505 14.6877 17C14.6877 18.1495 15.171 19.2482 16.0249 20.0554C16.8782 20.862 18.032 21.3123 19.2316 21.3123H19.9772V24.6877H18.1737C17.9704 24.6877 17.7788 24.6112 17.6401 24.4802C17.5021 24.3497 17.4281 24.1765 17.4281 24C17.4281 23.6461 17.2792 23.3105 17.0204 23.066C16.7623 22.822 16.4158 22.6877 16.0579 22.6877C15.7 22.6877 15.3535 22.822 15.0953 23.066C14.8366 23.3105 14.6877 23.6461 14.6877 24C14.6877 24.8843 15.0595 25.7286 15.715 26.3482C16.37 26.9673 17.2546 27.3123 18.1737 27.3123H19.9772V29C19.9772 29.3539 20.1261 29.6895 20.3848 29.934ZM19.9772 18.6877H19.2316C18.7478 18.6877 18.287 18.5059 17.95 18.1873C17.6135 17.8692 17.4281 17.4418 17.4281 17C17.4281 16.5582 17.6135 16.1308 17.95 15.8127C18.287 15.4941 18.7478 15.3123 19.2316 15.3123H19.9772V18.6877ZM23.4632 24.6877H22.7175V21.3123H23.4632C23.947 21.3123 24.4077 21.4941 24.7447 21.8127C25.0812 22.1308 25.2667 22.5582 25.2667 23C25.2667 23.4418 25.0812 23.8692 24.7447 24.1873C24.4077 24.5059 23.947 24.6877 23.4632 24.6877Z" fill="#1E1E1E" stroke="#1E1E1E" stroke-width="0.624532"/>
</svg>
