<svg width="57" height="40" viewBox="0 0 57 40" fill="none" xmlns="http://www.w3.org/2000/svg">
<path d="M26.5925 38.6229C26.4941 39.0162 26.2672 39.3653 25.9477 39.6149C25.6282 39.8644 25.2345 39.9999 24.8291 40C24.6759 40.0007 24.5233 39.9824 24.3746 39.9454L17.1031 38.1276C16.9006 38.0767 16.7085 37.9914 16.535 37.8753L11.0813 34.2395C10.6803 33.972 10.4019 33.556 10.3075 33.0832C10.2131 32.6104 10.3104 32.1194 10.578 31.7184C10.8456 31.3173 11.2615 31.0389 11.7344 30.9445C12.2072 30.8502 12.6981 30.9475 13.0992 31.215L18.2893 34.6758L25.2563 36.4187C25.4891 36.4752 25.7084 36.5771 25.9017 36.7185C26.095 36.86 26.2584 37.0383 26.3826 37.2431C26.5067 37.4479 26.5892 37.6753 26.6252 37.9121C26.6612 38.1489 26.6501 38.3904 26.5925 38.6229ZM56.7444 16.7038C56.5952 17.1568 56.3578 17.5758 56.0457 17.9366C55.7337 18.2974 55.3533 18.5928 54.9265 18.8057L49.5456 21.4962L46.1188 24.9252L37.0294 34.0146C36.8073 34.2365 36.5314 34.3971 36.2288 34.4807C35.9261 34.5644 35.607 34.5682 35.3024 34.4918L20.7593 30.856C20.5381 30.8005 20.3293 30.7041 20.1435 30.572L7.52736 21.5643L2.01007 18.8057C1.1478 18.3746 0.492005 17.6188 0.186901 16.7043C-0.118204 15.7899 -0.0476441 14.7917 0.383066 13.9292L6.02988 2.63786C6.46093 1.77558 7.21679 1.11979 8.13125 0.814681C9.04571 0.509577 10.0439 0.580137 10.9064 1.01085L15.9192 3.51044L27.9627 0.07009C28.2894 -0.0233633 28.6358 -0.0233633 28.9625 0.07009L41.006 3.51044L46.0188 1.01085C46.8813 0.580137 47.8795 0.509577 48.794 0.814681C49.7084 1.11979 50.4643 1.77558 50.8953 2.63786L56.5421 13.9292C56.7575 14.3554 56.8863 14.82 56.921 15.2962C56.9557 15.7725 56.8957 16.2509 56.7444 16.7038ZM32.8369 18.8057L35.8023 18.7466C31.3621 22.3824 25.7244 22.8619 21.0524 19.8828C20.5929 19.5905 20.2049 19.1986 19.9171 18.7362C19.6293 18.2737 19.449 17.7526 19.3897 17.2111C19.3304 16.6697 19.3934 16.1219 19.5743 15.6081C19.7551 15.0943 20.049 14.6277 20.4344 14.2428C20.4398 14.2362 20.4459 14.2301 20.4525 14.2246L30.6463 4.33758V6.09999L23.9108 11.9554L21.9682 16.7043L26.7574 20.495L31.3118 19.3564L32.8369 18.8057ZM46.2438 19.6442L40.0675 7.27801H32.8369L23.0112 16.8219C25.888 18.6603 30.3987 19.167 34.4457 15.0881C34.7618 14.7695 35.1845 14.5791 35.6326 14.5535C36.0806 14.5279 36.5223 14.669 36.8726 14.9495L44.6918 21.2144L46.2438 19.6442Z" fill="#8D5D3F"/>
<path d="M26.5925 38.6229C26.4941 39.0162 26.2672 39.3653 25.9477 39.6149C25.6282 39.8644 25.2345 39.9999 24.8291 40C24.6759 40.0007 24.5233 39.9824 24.3746 39.9454L17.1031 38.1276C16.9006 38.0767 16.7085 37.9914 16.535 37.8753L11.0813 34.2395C10.6803 33.972 10.4019 33.556 10.3075 33.0832C10.2131 32.6104 10.3104 32.1194 10.578 31.7184C10.8456 31.3173 11.2615 31.0389 11.7344 30.9445C12.2072 30.8502 12.6981 30.9475 13.0992 31.215L18.2893 34.6758L25.2563 36.4187C25.4891 36.4752 25.7084 36.5771 25.9017 36.7185C26.095 36.86 26.2584 37.0383 26.3826 37.2431C26.5067 37.4479 26.5892 37.6753 26.6252 37.9121C26.6612 38.1489 26.6501 38.3904 26.5925 38.6229ZM56.7444 16.7038C56.5952 17.1568 56.3578 17.5758 56.0457 17.9366C55.7337 18.2974 55.3533 18.5928 54.9265 18.8057L49.5456 21.4962L46.1188 24.9252L37.0294 34.0146C36.8073 34.2365 36.5314 34.3971 36.2288 34.4807C35.9261 34.5644 35.607 34.5682 35.3024 34.4918L20.7593 30.856C20.5381 30.8005 20.3293 30.7041 20.1435 30.572L7.52736 21.5643L2.01007 18.8057C1.1478 18.3746 0.492005 17.6188 0.186901 16.7043C-0.118204 15.7899 -0.0476441 14.7917 0.383066 13.9292L6.02988 2.63786C6.46093 1.77558 7.21679 1.11979 8.13125 0.814681C9.04571 0.509577 10.0439 0.580137 10.9064 1.01085L15.9192 3.51044L27.9627 0.07009C28.2894 -0.0233633 28.6358 -0.0233633 28.9625 0.07009L41.006 3.51044L46.0188 1.01085C46.8813 0.580137 47.8795 0.509577 48.794 0.814681C49.7084 1.11979 50.4643 1.77558 50.8953 2.63786L56.5421 13.9292C56.7575 14.3554 56.8863 14.82 56.921 15.2962C56.9557 15.7725 56.8957 16.2509 56.7444 16.7038ZM42.099 23.789L35.8023 18.7466C31.3621 22.3824 25.7244 22.8619 21.0524 19.8828C20.5929 19.5905 20.2049 19.1986 19.9171 18.7362C19.6293 18.2737 19.449 17.7526 19.3897 17.2111C19.3304 16.6697 19.3934 16.1219 19.5743 15.6081C19.7551 15.0943 20.049 14.6277 20.4344 14.2428C20.4398 14.2362 20.4459 14.2301 20.4525 14.2246L30.6463 4.33758L28.4649 3.71495L17.0076 6.98942L10.7882 19.426L21.9682 27.4134L35.1797 30.7151L42.099 23.789ZM46.2438 19.6442L40.0675 7.27801H32.8369L43.2672 5.69306C46.144 7.53139 30.3987 19.167 34.4457 15.0881C34.7618 14.7695 35.1845 14.5791 35.6326 14.5535C36.0806 14.5279 41.209 8.25906 41.5593 8.53959L47.2524 18.2178L46.2438 19.6442Z" fill="#F4D6B5"/>
<path d="M26.5925 38.6229C26.4941 39.0162 26.2672 39.3653 25.9477 39.6149C25.6282 39.8644 25.2345 39.9999 24.8291 40C24.6759 40.0007 24.5233 39.9824 24.3746 39.9454L17.1031 38.1276C16.9006 38.0767 16.7085 37.9914 16.535 37.8753L11.0813 34.2395C10.6803 33.972 10.4019 33.556 10.3075 33.0832C10.2131 32.6104 10.3104 32.1194 10.578 31.7184C10.8456 31.3173 11.2615 31.0389 11.7344 30.9445C12.2072 30.8502 12.6981 30.9475 13.0992 31.215L18.2893 34.6758L25.2563 36.4187C25.4891 36.4752 25.7084 36.5771 25.9017 36.7185C26.095 36.86 26.2584 37.0383 26.3826 37.2431C26.5067 37.4479 26.5892 37.6753 26.6252 37.9121C26.6612 38.1489 26.6501 38.3904 26.5925 38.6229ZM56.7444 16.7038C56.5952 17.1568 56.3578 17.5758 56.0457 17.9366C55.7337 18.2974 55.3533 18.5928 54.9265 18.8057L49.5456 21.4962L46.1188 24.9252L37.0294 34.0146C36.8073 34.2365 36.5314 34.3971 36.2288 34.4807C35.9261 34.5644 35.607 34.5682 35.3024 34.4918L20.7593 30.856C20.5381 30.8005 20.3293 30.7041 20.1435 30.572L7.52736 21.5643L2.01007 18.8057C1.1478 18.3746 0.492005 17.6188 0.186901 16.7043C-0.118204 15.7899 -0.0476441 14.7917 0.383066 13.9292L6.02988 2.63786C6.46093 1.77558 7.21679 1.11979 8.13125 0.814681C9.04571 0.509577 10.0439 0.580137 10.9064 1.01085L15.9192 3.51044L27.9627 0.07009C28.2894 -0.0233633 28.6358 -0.0233633 28.9625 0.07009L41.006 3.51044L46.0188 1.01085C46.8813 0.580137 47.8795 0.509577 48.794 0.814681C49.7084 1.11979 50.4643 1.77558 50.8953 2.63786L56.5421 13.9292C56.7575 14.3554 56.8863 14.82 56.921 15.2962C56.9557 15.7725 56.8957 16.2509 56.7444 16.7038ZM42.099 23.789L35.8023 18.7466C31.3621 22.3824 25.7244 22.8619 21.0524 19.8828C20.5929 19.5905 20.2049 19.1986 19.9171 18.7362C19.6293 18.2737 19.449 17.7526 19.3897 17.2111C19.3304 16.6697 19.3934 16.1219 19.5743 15.6081C19.7551 15.0943 20.049 14.6277 20.4344 14.2428C20.4398 14.2362 20.4459 14.2301 20.4525 14.2246L30.6463 4.33758L28.4649 3.71495L17.0076 6.98942L10.7882 19.426L21.9682 27.4134L35.1797 30.7151L42.099 23.789ZM46.2438 19.6442L40.0675 7.27801H32.8369L23.0112 16.8219C25.888 18.6603 30.3987 19.167 34.4457 15.0881C34.7618 14.7695 35.1845 14.5791 35.6326 14.5535C36.0806 14.5279 36.5223 14.669 36.8726 14.9495L44.6918 21.2144L46.2438 19.6442Z" fill="#1E1E1E"/>
</svg>
