<svg width="66" height="66" viewBox="0 0 66 66" fill="none" xmlns="http://www.w3.org/2000/svg">
<path d="M32.9996 33.6211L29.2701 61.7009C29.194 62.2351 29.2335 62.7795 29.386 63.2971C29.5385 63.8147 29.8005 64.2936 30.1541 64.7012C30.5077 65.1088 30.9448 65.4356 31.4357 65.6596C31.9267 65.8836 32.46 65.9995 32.9996 65.9995C33.5392 65.9995 34.0726 65.8836 34.5635 65.6596C35.0544 65.4356 35.4915 65.1088 35.8451 64.7012C36.1988 64.2936 36.4607 63.8147 36.6132 63.2971C36.7658 62.7795 36.8053 62.2351 36.7291 61.7009L32.9996 33.6211Z" fill="#FF964D"/>
<path d="M32.9996 32.3784L36.7291 4.29863C36.8053 3.76441 36.7658 3.22007 36.6132 2.70245C36.4607 2.18483 36.1988 1.70596 35.8451 1.29837C35.4915 0.890772 35.0544 0.563909 34.5635 0.339897C34.0726 0.115885 33.5392 0 32.9996 0C32.46 0 31.9267 0.115885 31.4357 0.339897C30.9448 0.563909 30.5077 0.890772 30.1541 1.29837C29.8005 1.70596 29.5385 2.18483 29.386 2.70245C29.2335 3.22007 29.194 3.76441 29.2701 4.29863L32.9996 32.3784Z" fill="#FF964D"/>
<path d="M4.29863 36.7292L32.3784 32.9996L4.29863 29.2701C3.76441 29.194 3.22007 29.2335 2.70245 29.386C2.18483 29.5386 1.70602 29.8005 1.29843 30.1541C0.890829 30.5078 0.563967 30.9448 0.339954 31.4358C0.115942 31.9267 0 32.46 0 32.9996C0 33.5393 0.115942 34.0726 0.339954 34.5635C0.563967 35.0545 0.890829 35.4915 1.29843 35.8452C1.70602 36.1988 2.18483 36.4607 2.70245 36.6133C3.22007 36.7658 3.76441 36.8053 4.29863 36.7292Z" fill="#FF964D"/>
<path d="M61.7019 36.7292C62.2361 36.8053 62.7804 36.7658 63.2981 36.6133C63.8157 36.4607 64.2945 36.1988 64.7021 35.8452C65.1097 35.4915 65.4365 35.0545 65.6606 34.5635C65.8846 34.0726 66.0005 33.5393 66.0005 32.9996C66.0005 32.46 65.8846 31.9267 65.6606 31.4358C65.4365 30.9448 65.1097 30.5078 64.7021 30.1541C64.2945 29.8005 63.8157 29.5386 63.2981 29.386C62.7804 29.2335 62.2361 29.194 61.7019 29.2701L33.6221 32.9996L61.7019 36.7292Z" fill="#FF964D"/>
<path d="M10.0677 50.6587C9.63964 50.9841 9.28616 51.3973 9.03105 51.8706C8.77594 52.344 8.62512 52.8665 8.58872 53.4029C8.55232 53.9394 8.63118 54.4774 8.82 54.9809C9.00883 55.4844 9.30324 55.9415 9.68346 56.3218C10.0637 56.702 10.5209 56.9964 11.0243 57.1852C11.5278 57.374 12.0659 57.4529 12.6023 57.4165C13.1388 57.3801 13.6613 57.2293 14.1346 56.9742C14.6079 56.7191 15.0212 56.3656 15.3465 55.9375L32.5579 33.4473L10.0677 50.6587Z" fill="#FF964D"/>
<path d="M55.9326 15.3407C56.3607 15.0153 56.7142 14.6021 56.9693 14.1288C57.2244 13.6554 57.3752 13.1329 57.4116 12.5964C57.448 12.06 57.3692 11.5219 57.1803 11.0185C56.9915 10.515 56.6971 10.0578 56.3169 9.67762C55.9367 9.29741 55.4795 9.003 54.976 8.81417C54.4725 8.62534 53.9345 8.54646 53.398 8.58286C52.8615 8.61926 52.3391 8.77008 51.8657 9.02519C51.3924 9.2803 50.9792 9.6338 50.6538 10.0619L33.4424 32.5521L55.9326 15.3407Z" fill="#FF964D"/>
<path d="M10.0677 15.3407L32.5579 32.5521L15.3465 10.0619C15.0212 9.6338 14.6079 9.2803 14.1346 9.02519C13.6613 8.77008 13.1388 8.61926 12.6023 8.58286C12.0659 8.54646 11.5278 8.62534 11.0243 8.81417C10.5209 9.003 10.0637 9.29741 9.68346 9.67762C9.30324 10.0578 9.00883 10.515 8.82 11.0185C8.63118 11.5219 8.55232 12.06 8.58872 12.5964C8.62512 13.1329 8.77594 13.6554 9.03105 14.1288C9.28616 14.6021 9.63964 15.0153 10.0677 15.3407Z" fill="#FF964D"/>
<path d="M55.9326 50.6587L33.4424 33.4473L50.6538 55.9375C50.9792 56.3656 51.3924 56.7191 51.8657 56.9742C52.3391 57.2293 52.8615 57.3801 53.398 57.4165C53.9345 57.4529 54.4725 57.374 54.976 57.1852C55.4795 56.9964 55.9367 56.702 56.3169 56.3218C56.6971 55.9415 56.9915 55.4844 57.1803 54.9809C57.3692 54.4774 57.448 53.9394 57.4116 53.4029C57.3752 52.8665 57.2244 52.344 56.9693 51.8706C56.7142 51.3973 56.3607 50.9841 55.9326 50.6587Z" fill="#FF964D"/>
</svg>
