<svg width="21" height="19" viewBox="0 0 21 19" fill="none" xmlns="http://www.w3.org/2000/svg">
<path d="M3.62614 2.74292L12.0739 3.21224L20.5216 2.74292L20.9909 9.31337L17.7057 14.0065L14.4204 16.3531L10.6659 16.8224L5.50341 12.1293L2.6875 7.90541L3.62614 2.74292Z" fill="#F16565"/>
<path d="M14.8187 0.865601C13.0368 0.865601 11.4554 1.5727 10.384 2.78807C9.31263 1.5727 7.73124 0.865601 5.94941 0.865601C4.39749 0.867488 2.90966 1.48813 1.81229 2.59139C0.714912 3.69465 0.0975808 5.19046 0.0957031 6.7507C0.0957031 13.2011 9.48026 18.3551 9.87938 18.5717C10.0345 18.6557 10.2079 18.6997 10.384 18.6997C10.5602 18.6997 10.7336 18.6557 10.8887 18.5717C11.2878 18.3551 20.6724 13.2011 20.6724 6.7507C20.6705 5.19046 20.0532 3.69465 18.9558 2.59139C17.8584 1.48813 16.3706 0.867488 14.8187 0.865601ZM14.3317 13.5596C13.0965 14.6134 11.776 15.5619 10.384 16.3951C8.99205 15.5619 7.67158 14.6134 6.43633 13.5596C4.51436 11.902 2.22432 9.37403 2.22432 6.7507C2.22432 5.75745 2.61679 4.80488 3.31538 4.10254C4.01397 3.40021 4.96146 3.00564 5.94941 3.00564C7.52814 3.00564 8.84966 3.84382 9.39866 5.19383C9.47857 5.39063 9.61497 5.55904 9.79047 5.67759C9.96596 5.79614 10.1726 5.85945 10.384 5.85945C10.5955 5.85945 10.8021 5.79614 10.9776 5.67759C11.1531 5.55904 11.2895 5.39063 11.3694 5.19383C11.9184 3.84382 13.2399 3.00564 14.8187 3.00564C15.8066 3.00564 16.7541 3.40021 17.4527 4.10254C18.1513 4.80488 18.5438 5.75745 18.5438 6.7507C18.5438 9.37403 16.2537 11.902 14.3317 13.5596Z" fill="#F16565"/>
</svg>
