<svg width="37" height="41" viewBox="0 0 37 41" fill="none" xmlns="http://www.w3.org/2000/svg">
<path d="M34.0234 0.795594C33.7608 0.795444 33.5006 0.847073 33.2579 0.947529C33.0152 1.04799 32.7946 1.1953 32.6089 1.38105C32.4231 1.56679 32.2758 1.78733 32.1754 2.03005C32.0749 2.27277 32.0233 2.53291 32.0234 2.79559V4.06903C30.3367 6.16044 28.2048 7.84942 25.7829 9.01303C23.3611 10.1766 20.7103 10.7856 18.0234 10.7956H6.02344C4.43267 10.7973 2.90756 11.43 1.78272 12.5549C0.657873 13.6797 0.0251739 15.2048 0.0234375 16.7956V20.7956C0.0251739 22.3864 0.657873 23.9115 1.78272 25.0363C2.90756 26.1612 4.43267 26.7939 6.02344 26.7956H6.99102L2.18556 38.0084C2.05497 38.3125 2.00195 38.6443 2.03126 38.974C2.06057 39.3037 2.1713 39.6209 2.3535 39.8972C2.5357 40.1735 2.78367 40.4002 3.07514 40.5571C3.36661 40.7139 3.69246 40.7958 4.02344 40.7956H12.0234C12.4149 40.7958 12.7979 40.681 13.1247 40.4653C13.4514 40.2497 13.7076 39.9428 13.8613 39.5827L19.3088 26.8716C21.7701 27.0523 24.1682 27.7357 26.3551 28.8794C28.5419 30.0232 30.4711 31.6032 32.0234 33.5217V34.7956C32.0234 35.326 32.2342 35.8347 32.6092 36.2098C32.9843 36.5849 33.493 36.7956 34.0234 36.7956C34.5539 36.7956 35.0626 36.5849 35.4377 36.2098C35.8127 35.8347 36.0234 35.326 36.0234 34.7956V2.79559C36.0236 2.53291 35.972 2.27277 35.8715 2.03005C35.7711 1.78733 35.6237 1.56679 35.438 1.38104C35.2522 1.19529 35.0317 1.04798 34.789 0.947524C34.5463 0.847069 34.2861 0.795441 34.0234 0.795594ZM8.20526 24.1895C7.67493 24.1892 4.21662 24.5645 3.84162 24.1895C3.46662 23.8146 2.20561 20.3562 2.20526 19.8259L3.84162 13.2805C3.84198 12.7501 8.37572 13.11 8.75071 12.735C9.12571 12.36 9.3113 16.0081 9.84162 16.0077L9.29617 18.1895L9.84162 20.9168L9.01011 25.0363L8.20526 24.1895ZM6.02344 35.0986L7.05664 36.7956L11.3418 26.7956L7.6598 31.2805L6.02344 35.0986ZM28.9325 10.5532C24.989 7.30443 27.4964 12.5675 22.3871 12.5549L15.8416 13.2805L12.0234 14.7955H18.0234C23.1329 14.7824 28.08 12.9998 32.0234 9.75081L28.9325 10.5532Z" fill="#C3C7EB"/>
<path d="M2.18556 38.0084C2.05497 38.3125 2.00195 38.6443 2.03126 38.974C2.06057 39.3037 2.1713 39.6209 2.3535 39.8972C2.5357 40.1735 2.78367 40.4002 3.07514 40.5571C3.36661 40.7139 3.69246 40.7958 4.02344 40.7956L2.18556 38.0084ZM2.18556 38.0084L6.88388 27.0456L2.18556 38.0084ZM32.2734 2.79559V2.79545C32.2733 2.56562 32.3185 2.33802 32.4064 2.12565C32.4943 1.91329 32.6232 1.72034 32.7857 1.55782C32.9482 1.39531 33.1411 1.26642 33.3535 1.17853C33.5659 1.09063 33.7935 1.04546 34.0233 1.04559L34.0236 1.04559C34.2534 1.04546 34.481 1.09063 34.6934 1.17852C34.9057 1.26641 35.0987 1.3953 35.2612 1.55782C35.4237 1.72033 35.5526 1.91329 35.6405 2.12565C35.7284 2.33801 35.7736 2.56562 35.7734 2.79545V2.79559V34.7956C35.7734 35.2597 35.5891 35.7048 35.2609 36.033C34.9327 36.3612 34.4876 36.5456 34.0234 36.5456C33.5593 36.5456 33.1142 36.3612 32.786 36.033C32.4578 35.7048 32.2734 35.2597 32.2734 34.7956V33.5217V33.4333L32.2178 33.3645C30.644 31.4194 28.6881 29.8175 26.471 28.6579C24.2538 27.4983 21.8225 26.8055 19.3271 26.6223L19.1493 26.6092L19.0791 26.7731L13.6316 39.4842L13.6314 39.4845C13.4969 39.7995 13.2728 40.068 12.987 40.2567C12.7011 40.4453 12.3661 40.5458 12.0236 40.5456H12.0234H4.02344H4.02326C3.73369 40.5458 3.4486 40.4741 3.19358 40.3369C2.93857 40.1997 2.72162 40.0013 2.56221 39.7596C2.4028 39.5178 2.30593 39.2403 2.28028 38.9518C2.25463 38.6634 2.30102 38.3731 2.41528 38.107L2.41534 38.1069L7.2208 26.8941L7.37015 26.5456H6.99102H6.02371C4.49915 26.5439 3.03752 25.9376 1.95949 24.8595C0.881499 23.7815 0.275137 22.32 0.273438 20.7955V16.7957C0.275137 15.2712 0.881499 13.8096 1.95949 12.7316C3.03752 11.6536 4.49915 11.0473 6.02371 11.0456L18.0234 11.0456L18.0244 11.0456C20.7484 11.0355 23.4359 10.4181 25.8912 9.23837C28.3465 8.05866 30.5079 6.34632 32.218 4.22598L32.2734 4.15729V4.06903V2.79559ZM13.8613 39.5827L19.3088 26.8716C21.7701 27.0523 24.1682 27.7357 26.3551 28.8794C28.5419 30.0232 30.4711 31.6032 32.0234 33.5217V34.7956C32.0234 35.326 32.2342 35.8347 32.6092 36.2098C32.9843 36.5849 33.493 36.7956 34.0234 36.7956C34.5539 36.7956 35.0626 36.5849 35.4377 36.2098C35.8127 35.8347 36.0234 35.326 36.0234 34.7956V2.79559C36.0236 2.53291 35.972 2.27277 35.8715 2.03005C35.7711 1.78733 35.6237 1.56679 35.438 1.38104C35.2522 1.19529 35.0317 1.04798 34.789 0.947524C34.5463 0.847069 34.2861 0.795441 34.0234 0.795593C33.7608 0.795444 33.5006 0.847073 33.2579 0.947529C33.0152 1.04799 32.7946 1.1953 32.6089 1.38105C32.4231 1.56679 32.2758 1.78733 32.1754 2.03005C32.0749 2.27277 32.0233 2.53291 32.0234 2.79559L13.8613 39.5827ZM6.02327 23.0456H6.02344H8.02344H8.27344V22.7956V14.7956V14.5456H8.02344H6.02344H6.02327C5.4267 14.546 4.85468 14.7832 4.43285 15.205C4.01101 15.6268 3.77384 16.1989 3.77344 16.7954V16.7956V20.7956V20.7958C3.77384 21.3923 4.011 21.9644 4.43284 22.3862C4.85468 22.808 5.4267 23.0452 6.02327 23.0456ZM10.7051 37.0456H10.8699L10.9349 36.8941L15.22 26.8941L15.3694 26.5456H14.9902H11.3418H11.1769L11.112 26.6971L6.82685 36.6971L6.67752 37.0456H7.05664H10.7051ZM31.8645 28.0321L32.2734 28.3691V27.8392V9.75081V9.22091L31.8645 9.55787C27.9657 12.77 23.0747 14.5325 18.0232 14.5455C18.023 14.5455 18.0229 14.5455 18.0228 14.5455L12.0234 14.5455H11.7734V14.7955V22.7955V23.0455H12.0234H18.0228C23.0744 23.058 27.9656 24.8201 31.8645 28.0321Z" fill="#1E1E1E" stroke="white" stroke-width="0.5"/>
</svg>
