<svg width="32" height="41" viewBox="0 0 32 41" fill="none" xmlns="http://www.w3.org/2000/svg">
<path d="M16 22.9389C15.3911 22.9318 14.7946 23.1114 14.2909 23.4535C13.7871 23.7956 13.4003 24.2839 13.1824 24.8525C12.9646 25.4212 12.9261 26.0429 13.0723 26.634C13.2185 27.2252 13.5422 27.7573 14 28.1589V30.9389C14 31.4693 14.2107 31.9781 14.5858 32.3531C14.9609 32.7282 15.4696 32.9389 16 32.9389C16.5304 32.9389 17.0391 32.7282 17.4142 32.3531C17.7893 31.9781 18 31.4693 18 30.9389V28.1589C18.4578 27.7573 18.7815 27.2252 18.9277 26.634C19.0739 26.0429 19.0354 25.4212 18.8176 24.8525C18.5997 24.2839 18.2129 23.7956 17.7091 23.4535C17.2054 23.1114 16.6089 22.9318 16 22.9389ZM26 14.9389V10.9389C26 8.28675 24.9464 5.74321 23.0711 3.86785C21.1957 1.99248 18.6522 0.938915 16 0.938915C13.3478 0.938915 10.8043 1.99248 8.92893 3.86785C7.05357 5.74321 6 8.28675 6 10.9389V14.9389C4.4087 14.9389 2.88258 15.5711 1.75736 16.6963C0.632141 17.8215 0 19.3476 0 20.9389V34.9389C0 36.5302 0.632141 38.0563 1.75736 39.1816C2.88258 40.3068 4.4087 40.9389 6 40.9389H26C27.5913 40.9389 29.1174 40.3068 30.2426 39.1816C31.3679 38.0563 32 36.5302 32 34.9389V20.9389C32 19.3476 31.3679 17.8215 30.2426 16.6963C29.1174 15.5711 27.5913 14.9389 26 14.9389ZM10 10.9389C10 9.34762 10.6321 7.82149 11.7574 6.69627C12.8826 5.57106 14.4087 4.93892 16 4.93892C17.5913 4.93892 19.1174 5.57106 20.2426 6.69627C21.3679 7.82149 22 9.34762 22 10.9389V14.9389H10V10.9389ZM16.9811 31.7315C16.9811 32.2619 16.375 30.3753 15.9999 30.7504C15.6249 31.1255 15.1162 31.8703 14.5858 31.8703L6 36.9389C5.46957 36.9389 15.7368 32.7282 15.3617 32.3531C14.9866 31.9781 16 31.4693 16 30.9389L15.9999 25.8447C15.9999 25.3143 15.6249 24.2575 15.9999 23.8825C16.375 23.5074 16.4506 23.8825 16.9811 23.8825V24.8636C17.5115 24.8636 16.606 25.4697 16.9811 25.8447C17.3561 26.2198 16.9811 26.2954 16.9811 26.8259V31.7315Z" fill="#97F5A1"/>
<path d="M14.1 28.1589V28.1136L14.0659 28.0837C13.6235 27.6956 13.3106 27.1813 13.1694 26.61C13.0281 26.0387 13.0653 25.4379 13.2758 24.8883C13.4864 24.3388 13.8602 23.8669 14.3471 23.5362C14.8339 23.2056 15.4104 23.032 15.9988 23.0389L16.0012 23.0389C16.5896 23.032 17.1661 23.2056 17.6529 23.5362C18.1398 23.8669 18.5136 24.3388 18.7242 24.8883C18.9348 25.4379 18.9719 26.0387 18.8306 26.61C18.6894 27.1813 18.3765 27.6956 17.9341 28.0837L17.9 28.1136V28.1589V30.9389C17.9 31.4428 17.6998 31.9261 17.3435 32.2824C16.9872 32.6387 16.5039 32.8389 16 32.8389C15.4961 32.8389 15.0128 32.6387 14.6565 32.2824C14.3002 31.9261 14.1 31.4428 14.1 30.9389V28.1589ZM25.9 14.9389V15.0389H26C27.5648 15.0389 29.0655 15.6605 30.1719 16.767C31.2784 17.8734 31.9 19.3741 31.9 20.9389V34.9389C31.9 36.5037 31.2784 38.0044 30.1719 39.1108C29.0655 40.2173 27.5648 40.8389 26 40.8389H6C4.43522 40.8389 2.93454 40.2173 1.82807 39.1108C0.721606 38.0044 0.1 36.5037 0.1 34.9389V20.9389C0.1 19.3741 0.721606 17.8734 1.82807 16.767C2.93454 15.6605 4.43522 15.0389 6 15.0389H6.1V14.9389V10.9389C6.1 8.31327 7.14303 5.79517 8.99964 3.93856C10.8563 2.08195 13.3744 1.03892 16 1.03892C18.6256 1.03892 21.1438 2.08195 23.0004 3.93856C24.857 5.79517 25.9 8.31327 25.9 10.9389V14.9389ZM22 15.0389H22.1V14.9389V10.9389C22.1 9.32109 21.4573 7.76954 20.3134 6.62556C19.1694 5.48159 17.6178 4.83892 16 4.83892C14.3822 4.83892 12.8306 5.48159 11.6866 6.62556C10.5427 7.76954 9.9 9.32109 9.9 10.9389V14.9389V15.0389H10H22ZM27.4849 36.4238C27.8788 36.03 28.1 35.4959 28.1 34.9389V20.9389C28.1 20.382 27.8788 19.8478 27.4849 19.454C27.0911 19.0602 26.557 18.8389 26 18.8389H6C5.44305 18.8389 4.9089 19.0602 4.51508 19.454C4.12125 19.8478 3.9 20.382 3.9 20.9389V34.9389C3.9 35.4959 4.12125 36.03 4.51508 36.4238C4.9089 36.8177 5.44305 37.0389 6 37.0389H26C26.557 37.0389 27.0911 36.8177 27.4849 36.4238Z" fill="#1E1E1E" stroke="white" stroke-width="0.2"/>
</svg>
