<svg width="43" height="43" viewBox="0 0 43 43" fill="none" xmlns="http://www.w3.org/2000/svg">
<path d="M13.8236 33.8184H16.8606M15.3421 1.93025H4.71274C3.90729 1.93025 3.13483 2.25022 2.56529 2.81976C1.99575 3.3893 1.67578 4.16176 1.67578 4.96722V38.3738C1.67578 39.1793 1.99575 39.9517 2.56529 40.5213C3.13483 41.0908 3.90729 41.4108 4.71274 41.4108H25.9715C26.7769 41.4108 27.5494 41.0908 28.1189 40.5213C28.6885 39.9517 29.0084 39.1793 29.0084 38.3738V27.7444" stroke="#1E1E1E" stroke-width="3" stroke-linecap="round" stroke-linejoin="round"/>
<path d="M21.4159 6.60557H24.5327L27.1301 4.00817L31.286 1.41077L41.1561 9.20297L39.5977 20.1121H20.3769L20.8964 14.9173L19.8574 10.7614L21.4159 6.60557Z" fill="#F9BDF7"/>
<path d="M41.1562 9.52266C41.1562 8.71721 40.8362 7.94474 40.2667 7.3752C39.6972 6.80566 38.9247 6.4857 38.1192 6.4857H36.6008L33.5638 1.93025H27.4899L24.4529 6.4857H22.9344C22.129 6.4857 21.3565 6.80566 20.787 7.3752C20.2174 7.94474 19.8975 8.71721 19.8975 9.52266V17.1151C19.8975 17.9205 20.2174 18.693 20.787 19.2625C21.3565 19.8321 22.129 20.152 22.9344 20.152H38.1192C38.9247 20.152 39.6972 19.8321 40.2667 19.2625C40.8362 18.693 41.1562 17.9205 41.1562 17.1151V9.52266Z" stroke="#1E1E1E" stroke-width="3" stroke-linecap="round" stroke-linejoin="round"/>
<path d="M30.5275 13.6984C30.2255 13.6984 29.9358 13.5785 29.7222 13.3649C29.5087 13.1513 29.3887 12.8616 29.3887 12.5596C29.3887 12.2575 29.5087 11.9679 29.7222 11.7543C29.9358 11.5407 30.2255 11.4207 30.5275 11.4207M30.5275 13.6984C30.8296 13.6984 31.1193 13.5785 31.3328 13.3649C31.5464 13.1513 31.6664 12.8616 31.6664 12.5596C31.6664 12.2575 31.5464 11.9679 31.3328 11.7543C31.1193 11.5407 30.8296 11.4207 30.5275 11.4207" stroke="#1E1E1E" stroke-width="3" stroke-linecap="round" stroke-linejoin="round"/>
</svg>
