<svg width="52" height="40" viewBox="0 0 52 40" fill="none" xmlns="http://www.w3.org/2000/svg">
<path d="M15.1211 13.9466H49.4005L47.8882 26.5493L49.4005 39.152H15.1211L16.6334 26.5493L15.1211 13.9466Z" fill="#AEC3F7"/>
<path d="M47.9976 21.3616L48.2519 21.2731V21.0038V16.7867V16.4079H47.873H27.7086H27.3298V16.7867C27.3298 17.1941 27.1612 17.5881 26.8557 17.8812C26.5497 18.1748 26.1315 18.3423 25.6922 18.3423C25.2529 18.3423 24.8347 18.1748 24.5286 17.8812C24.2232 17.5881 24.0546 17.1941 24.0546 16.7867V16.4079H23.6758H15.61H15.2311V16.7867V21.0038V21.2731L15.4854 21.3616C16.5824 21.7436 17.5274 22.4393 18.194 23.3517C18.8603 24.2638 19.2166 25.3487 19.2166 26.459C19.2166 27.5692 18.8603 28.6541 18.194 29.5662C17.5274 30.4786 16.5824 31.1743 15.4854 31.5563L15.2311 31.6448V31.9141V36.1312V36.51H15.61H23.6758H24.0546V36.1312C24.0546 35.7238 24.2232 35.3298 24.5286 35.0367C24.8347 34.7431 25.2529 34.5756 25.6922 34.5756C26.1315 34.5756 26.5497 34.7431 26.8557 35.0367C27.1612 35.3298 27.3298 35.7238 27.3298 36.1312V36.51H27.7086H47.873H48.2519V36.1312V31.9141V31.6448L47.9976 31.5563C46.9006 31.1743 45.9556 30.4786 45.289 29.5662C44.6227 28.6541 44.2664 27.5692 44.2664 26.459C44.2664 25.3487 44.6227 24.2638 45.289 23.3517C45.9556 22.4393 46.9006 21.7436 47.9976 21.3616ZM12.43 39.1601L12.1677 39.4335L12.43 39.1601C12.1246 38.867 11.956 38.473 11.956 38.0656V30.3278C11.956 29.9205 12.1246 29.5264 12.43 29.2334C12.736 28.9398 13.1543 28.7723 13.5936 28.7723C14.2239 28.7723 14.8314 28.5322 15.2817 28.1002C15.7325 27.6677 15.9889 27.0777 15.9889 26.459C15.9889 25.8402 15.7325 25.2502 15.2817 24.8177C14.8314 24.3857 14.2239 24.1456 13.5936 24.1456C13.1543 24.1456 12.736 23.9781 12.43 23.6845C12.1246 23.3915 11.956 22.9974 11.956 22.5901V14.8523C11.956 14.4449 12.1246 14.0509 12.43 13.7579C12.736 13.4643 13.1543 13.2967 13.5936 13.2967H49.8894C50.3287 13.2967 50.747 13.4643 51.053 13.7579C51.3584 14.0509 51.527 14.4449 51.527 14.8523V22.5901C51.527 22.9974 51.3584 23.3915 51.053 23.6845C50.747 23.9781 50.3287 24.1456 49.8894 24.1456C49.2591 24.1456 48.6516 24.3857 48.2013 24.8177C47.7505 25.2502 47.4941 25.8402 47.4941 26.459C47.4941 27.0777 47.7505 27.6677 48.2013 28.1002C48.6516 28.5322 49.2591 28.7723 49.8894 28.7723C50.3287 28.7723 50.747 28.9398 51.053 29.2334C51.3584 29.5264 51.527 29.9205 51.527 30.3278V38.0656C51.527 38.473 51.3584 38.867 51.053 39.1601C50.747 39.4536 50.3287 39.6212 49.8894 39.6212H13.5936C13.1543 39.6212 12.736 39.4536 12.43 39.1601ZM24.5286 23.4301C24.8347 23.1365 25.2529 22.9689 25.6922 22.9689C26.1315 22.9689 26.5497 23.1365 26.8557 23.4301C27.1612 23.7231 27.3298 24.1171 27.3298 24.5245V28.3934C27.3298 28.8008 27.1612 29.1948 26.8557 29.4878C26.5497 29.7814 26.1315 29.949 25.6922 29.949C25.2529 29.949 24.8347 29.7814 24.5286 29.4878C24.2232 29.1948 24.0546 28.8008 24.0546 28.3934V24.5245C24.0546 24.1171 24.2232 23.7231 24.5286 23.4301Z" fill="#1E1E1E" stroke="white" stroke-width="0.757746"/>
<ellipse cx="15.1233" cy="15.1233" rx="15.1233" ry="15.1233" fill="white"/>
<path d="M20.9196 12.7667H19.8168V8.5351H22.0223C22.3148 8.5351 22.5952 8.64656 22.802 8.84496C23.0089 9.04335 23.125 9.31243 23.125 9.593C23.125 9.87357 23.2412 10.1427 23.448 10.341C23.6548 10.5394 23.9353 10.6509 24.2278 10.6509C24.5202 10.6509 24.8007 10.5394 25.0075 10.341C25.2143 10.1427 25.3305 9.87357 25.3305 9.593C25.3305 8.75129 24.982 7.94405 24.3616 7.34886C23.7411 6.75368 22.8997 6.41931 22.0223 6.41931H19.8168V4.30351C19.8168 4.02294 19.7006 3.75386 19.4938 3.55547C19.287 3.35707 19.0065 3.24562 18.7141 3.24562C18.4216 3.24562 18.1411 3.35707 17.9343 3.55547C17.7275 3.75386 17.6113 4.02294 17.6113 4.30351V6.41931H16.5086C15.3387 6.41931 14.2168 6.86514 13.3896 7.65871C12.5624 8.45229 12.0977 9.52861 12.0977 10.6509C12.0977 11.7732 12.5624 12.8495 13.3896 13.6431C14.2168 14.4367 15.3387 14.8825 16.5086 14.8825H17.6113V19.1141H15.4059C15.1134 19.1141 14.8329 19.0026 14.6261 18.8042C14.4193 18.6058 14.3031 18.3368 14.3031 18.0562C14.3031 17.7756 14.187 17.5065 13.9801 17.3081C13.7733 17.1097 13.4929 16.9983 13.2004 16.9983C12.9079 16.9983 12.6274 17.1097 12.4206 17.3081C12.2138 17.5065 12.0977 17.7756 12.0977 18.0562C12.0977 18.8979 12.4462 19.7051 13.0666 20.3003C13.687 20.8955 14.5285 21.2299 15.4059 21.2299H17.6113V23.3457C17.6113 23.6262 17.7275 23.8953 17.9343 24.0937C18.1411 24.2921 18.4216 24.4036 18.7141 24.4036C19.0065 24.4036 19.287 24.2921 19.4938 24.0937C19.7006 23.8953 19.8168 23.6262 19.8168 23.3457V21.2299H20.9196C22.0894 21.2299 23.2114 20.784 24.0386 19.9905C24.8658 19.1969 25.3305 18.1206 25.3305 16.9983C25.3305 15.876 24.8658 14.7997 24.0386 14.0061C23.2114 13.2125 22.0894 12.7667 20.9196 12.7667ZM17.6113 12.7667H16.5086C15.9237 12.7667 15.3627 12.5438 14.9491 12.147C14.5355 11.7502 14.3031 11.212 14.3031 10.6509C14.3031 10.0898 14.5355 9.55159 14.9491 9.15481C15.3627 8.75802 15.9237 8.5351 16.5086 8.5351H17.6113V12.7667ZM20.9196 19.1141H19.8168V14.8825H20.9196C21.5045 14.8825 22.0655 15.1054 22.4791 15.5022C22.8927 15.899 23.125 16.4371 23.125 16.9983C23.125 17.5594 22.8927 18.0976 22.4791 18.4944C22.0655 18.8912 21.5045 19.1141 20.9196 19.1141Z" fill="#1E1E1E"/>
<path d="M20.9196 12.7667H19.8168V8.5351H22.0223C22.3148 8.5351 22.5952 8.64656 22.802 8.84496C23.0089 9.04335 23.125 9.31243 23.125 9.593C23.125 9.87357 23.2412 10.1427 23.448 10.341C23.6548 10.5394 23.9353 10.6509 24.2278 10.6509C24.5202 10.6509 24.8007 10.5394 25.0075 10.341C25.2143 10.1427 25.3305 9.87357 25.3305 9.593C25.3305 8.75129 24.982 7.94405 24.3616 7.34886C23.7411 6.75368 22.8997 6.41931 22.0223 6.41931H19.8168V4.30351C19.8168 4.02294 19.7006 3.75386 19.4938 3.55547C19.287 3.35707 19.0065 3.24562 18.7141 3.24562C18.4216 3.24562 18.1411 3.35707 17.9343 3.55547C17.7275 3.75386 17.6113 4.02294 17.6113 4.30351V6.41931H16.5086C15.3387 6.41931 14.2168 6.86514 13.3896 7.65871C12.5624 8.45229 12.0977 9.52861 12.0977 10.6509C12.0977 11.7732 12.5624 12.8495 13.3896 13.6431C14.2168 14.4367 15.3387 14.8825 16.5086 14.8825H17.6113V19.1141H15.4059C15.1134 19.1141 14.8329 19.0026 14.6261 18.8042C14.4193 18.6058 14.3031 18.3368 14.3031 18.0562C14.3031 17.7756 14.187 17.5065 13.9801 17.3081C13.7733 17.1097 13.4929 16.9983 13.2004 16.9983C12.9079 16.9983 12.6274 17.1097 12.4206 17.3081C12.2138 17.5065 12.0977 17.7756 12.0977 18.0562C12.0977 18.8979 12.4462 19.7051 13.0666 20.3003C13.687 20.8955 14.5285 21.2299 15.4059 21.2299H17.6113V23.3457C17.6113 23.6262 17.7275 23.8953 17.9343 24.0937C18.1411 24.2921 18.4216 24.4036 18.7141 24.4036C19.0065 24.4036 19.287 24.2921 19.4938 24.0937C19.7006 23.8953 19.8168 23.6262 19.8168 23.3457V21.2299H20.9196C22.0894 21.2299 23.2114 20.784 24.0386 19.9905C24.8658 19.1969 25.3305 18.1206 25.3305 16.9983C25.3305 15.876 24.8658 14.7997 24.0386 14.0061C23.2114 13.2125 22.0894 12.7667 20.9196 12.7667ZM17.6113 12.7667H16.5086C15.9237 12.7667 15.3627 12.5438 14.9491 12.147C14.5355 11.7502 14.3031 11.212 14.3031 10.6509C14.3031 10.0898 14.5355 9.55159 14.9491 9.15481C15.3627 8.75802 15.9237 8.5351 16.5086 8.5351H17.6113V12.7667ZM20.9196 19.1141H19.8168V14.8825H20.9196C21.5045 14.8825 22.0655 15.1054 22.4791 15.5022C22.8927 15.899 23.125 16.4371 23.125 16.9983C23.125 17.5594 22.8927 18.0976 22.4791 18.4944C22.0655 18.8912 21.5045 19.1141 20.9196 19.1141Z" stroke="#1E1E1E"/>
</svg>
