<svg width="39" height="41" viewBox="0 0 39 41" fill="none" xmlns="http://www.w3.org/2000/svg">
<path d="M16.4832 22.9043C17.9755 22.3753 19.2153 21.3063 19.958 19.9081L23.2717 13.6702C25.6825 9.13204 32.0481 8.76997 34.9579 13.0055C35.7038 14.0913 36.1206 15.3691 36.1582 16.6858L36.5584 30.6938C36.5824 31.534 36.443 32.3708 36.1479 33.1578L35.5637 34.7154C35.2768 35.4806 34.673 36.0844 33.9078 36.3713L33.7491 36.4309C32.3341 36.9615 30.7614 36.2112 30.2835 34.7776C29.9206 33.6888 28.9018 32.9545 27.7542 32.9545H23.7453H12.128C11.64 32.9545 11.1558 32.8679 10.698 32.6988C7.07631 31.3611 7.11008 26.2269 10.749 24.937L16.4832 22.9043Z" fill="#F3F499"/>
<path d="M33.4966 34.0174L34.1325 34.6047V33.739V12.7228C34.1325 12.0489 33.8648 11.4026 33.3883 10.926C32.9118 10.4495 32.2654 10.1818 31.5915 10.1818H22.9429C22.4699 10.1818 22.0163 9.9939 21.6819 9.65947C21.3475 9.32504 21.1596 8.87145 21.1596 8.3985C21.1596 7.92554 21.3475 7.47195 21.6819 7.13752C22.0163 6.80309 22.4699 6.61521 22.9429 6.61521H31.5915C33.2113 6.61521 34.7648 7.25869 35.9102 8.40409C37.0556 9.54949 37.6991 11.103 37.6991 12.7228L37.6991 38.6688L37.6991 38.6701C37.7003 39.0181 37.5997 39.3589 37.4095 39.6504C37.2204 39.9405 36.9508 40.1692 36.6339 40.3086C36.4074 40.3994 36.1662 40.448 35.9223 40.4519C35.5004 40.4307 35.0995 40.2603 34.7914 39.9709L34.7914 39.9709L34.787 39.9669L28.3006 34.0642L28.1921 33.9656H28.0456H9.96988C8.35004 33.9656 6.79655 33.3221 5.65115 32.1767C4.50575 31.0313 3.86227 29.4778 3.86227 27.858V25.6958C3.86227 25.2228 4.05015 24.7692 4.38458 24.4348C4.71902 24.1004 5.1726 23.9125 5.64556 23.9125C6.11852 23.9125 6.5721 24.1004 6.90654 24.4348C7.24097 24.7692 7.42885 25.2228 7.42885 25.6958V27.858C7.42885 28.5319 7.69657 29.1782 8.1731 29.6547C8.64964 30.1313 9.29596 30.399 9.96988 30.399L28.8875 30.399C28.8877 30.399 28.8878 30.399 28.888 30.399C29.3384 30.4007 29.7714 30.5727 30.1001 30.8805L30.102 30.8822L33.4966 34.0174Z" fill="#1E1E1E" stroke="white" stroke-width="0.757746"/>
<path d="M14.2942 10.2449H13.5288V6.55206H15.3752C15.5782 6.55206 15.7729 6.63269 15.9164 6.77623C16.06 6.91976 16.1406 7.11443 16.1406 7.31741C16.1406 7.68787 16.2878 8.04315 16.5497 8.3051C16.8117 8.56706 17.1669 8.71422 17.5374 8.71422C17.9079 8.71422 18.2631 8.56706 18.5251 8.3051C18.787 8.04315 18.9342 7.68787 18.9342 7.31741C18.9342 6.37351 18.5592 5.46828 17.8918 4.80084C17.2244 4.1334 16.3191 3.75844 15.3752 3.75844H13.5288V1.91201C13.5288 1.54155 13.3816 1.18627 13.1197 0.924313C12.8577 0.662361 12.5025 0.515198 12.132 0.515198C11.7615 0.515198 11.4063 0.662361 11.1443 0.924314C10.8823 1.18627 10.7352 1.54155 10.7352 1.91201V3.75844H9.96983C8.73921 3.75844 7.559 4.2473 6.68882 5.11748C5.81864 5.98766 5.32978 7.16787 5.32978 8.39849C5.32978 9.62911 5.81864 10.8093 6.68882 11.6795C7.559 12.5497 8.73921 13.0385 9.96983 13.0385H10.7352V16.7314H8.88875C8.68577 16.7314 8.4911 16.6508 8.34756 16.5072C8.20403 16.3637 8.1234 16.169 8.1234 15.9661C8.1234 15.5956 7.97623 15.2403 7.71428 14.9784C7.45233 14.7164 7.09705 14.5693 6.72659 14.5693C6.35613 14.5693 6.00085 14.7164 5.7389 14.9784C5.47694 15.2403 5.32978 15.5956 5.32978 15.9661C5.32978 16.91 5.70474 17.8152 6.37218 18.4826C7.03962 19.1501 7.94485 19.525 8.88875 19.525H10.7352V21.3715C10.7352 21.7419 10.8823 22.0972 11.1443 22.3592C11.4063 22.6211 11.7615 22.7683 12.132 22.7683C12.5024 22.7683 12.8577 22.6211 13.1197 22.3592C13.3816 22.0972 13.5288 21.7419 13.5288 21.3715V19.525H14.2942C15.5248 19.525 16.705 19.0362 17.5752 18.166C18.4453 17.2958 18.9342 16.1156 18.9342 14.885C18.9342 13.6544 18.4453 12.4741 17.5752 11.604C16.705 10.7338 15.5248 10.2449 14.2942 10.2449ZM10.7352 10.2449H9.96983C9.48013 10.2449 9.01048 10.0504 8.66421 9.70412C8.31793 9.35784 8.1234 8.8882 8.1234 8.39849C8.1234 7.90879 8.31793 7.43914 8.66421 7.09287C9.01048 6.74659 9.48013 6.55206 9.96983 6.55206H10.7352V10.2449ZM14.2942 16.7314H13.5288V13.0385H14.2942C14.7839 13.0385 15.2535 13.2331 15.5998 13.5794C15.9461 13.9256 16.1406 14.3953 16.1406 14.885C16.1406 15.3747 15.9461 15.8443 15.5998 16.1906C15.2535 16.5369 14.7839 16.7314 14.2942 16.7314Z" fill="#1E1E1E" stroke="#1E1E1E" stroke-width="0.631455"/>
</svg>
