<svg width="44" height="39" viewBox="0 0 44 39" fill="none" xmlns="http://www.w3.org/2000/svg">
<path d="M25.8667 17.4789H23.7133V15.3255C23.7133 14.7543 23.4865 14.2066 23.0826 13.8028C22.6788 13.3989 21.4102 7.74882 20.8391 7.74882C20.268 7.74882 19.0493 12.8289 18.6455 13.2328C18.2417 13.6366 16.4519 15.4037 16.4519 15.9748L17.0003 16.5232L17.2531 17.4789C16.682 17.4789 16.1343 17.7057 15.7304 18.1096C15.3266 18.5134 15.0997 19.0611 15.0997 19.6323C15.0997 20.2034 15.3266 20.7511 15.7304 21.155C16.1343 21.5588 16.682 21.7857 17.2531 21.7857H19.4065V23.9391C19.4065 24.5102 19.6334 25.0579 20.0372 25.4618C20.4411 25.8656 20.9888 26.0925 21.5599 26.0925C22.131 26.0925 22.6788 25.8656 23.0826 25.4618C23.4865 25.0579 23.7133 24.5102 23.7133 23.9391V21.7857H25.8667C26.4379 21.7857 26.9856 21.5588 27.3894 21.155C27.7933 20.7511 39.1317 21.194 39.1317 20.6228C39.1317 20.0517 27.7933 18.5134 27.3894 18.1096C26.9856 17.7057 26.4379 17.4789 25.8667 17.4789ZM39.1317 4.5584C36.8356 2.28592 33.8028 0.908954 30.5806 0.675979C27.3585 0.443004 24.1591 1.36936 21.5599 3.28789C18.82 1.24998 15.4098 0.325898 12.0158 0.701724C8.62191 1.07755 5.49644 2.72537 3.26881 5.31335C1.04118 7.90134 -0.123139 11.2372 0.0103265 14.6493C0.143792 18.0614 1.56512 21.2961 3.9881 23.7022L16.9086 36.7303C18.1199 37.9401 19.7618 38.6197 21.4738 38.6197C23.1858 38.6197 24.8277 37.9401 26.039 36.7303L38.9595 23.7022C40.232 22.4589 41.2463 20.9764 41.944 19.3399C42.6417 17.7034 43.0091 15.9451 43.0252 14.1661C43.0412 12.3871 42.7054 10.6225 42.0373 8.97371C41.3691 7.32489 40.3817 5.82438 39.1317 4.5584ZM24.1295 20.6228L20.8391 23.6523C20.6389 23.8542 20.3796 22.6132 20.1171 22.7225C19.8547 22.8318 20.3215 21.155 20.0372 21.155C19.753 21.155 16.4143 20.7752 16.1519 20.6659C15.8895 20.5566 17.2005 18.3702 17.0003 18.1684L20.0372 11.8453C18.3484 10.119 19.7423 11.809 19.7423 9.39401C19.7423 6.97904 18.4283 8.55133 20.1171 6.82504C21.8381 5.12597 11.2386 5.0506 13.6569 5.0506C16.0752 5.0506 19.1182 14.2757 20.8391 15.9748C21.0393 16.1766 20.5555 8.06442 20.8179 8.17374C21.0803 8.28307 22.2 14.878 22.4843 14.878C22.7686 14.878 24.9639 20.4713 25.2263 20.362C25.4887 20.2526 38.9316 20.0972 39.1317 19.8953C40.8527 18.1963 38.163 14.1841 40.5814 14.1841C42.9997 14.1841 34.3745 6.00331 36.0954 7.70238C37.7972 9.43059 38.751 11.7587 38.751 14.1841C38.751 16.6096 37.7972 18.9377 36.0954 20.6659L24.1295 20.6228Z" fill="#F38080"/>
<path d="M35.8954 21.1057V21.1541L36.238 20.8062C37.9765 19.0406 38.951 16.6621 38.951 14.1841C38.951 11.7062 37.9765 9.32768 36.238 7.56204L36.236 7.56006C34.4776 5.82403 32.1062 4.8506 29.6352 4.8506C27.1643 4.8506 24.7928 5.82403 23.0345 7.56005L23.033 7.56154C22.8514 7.74463 22.6353 7.88995 22.3973 7.98912C22.1593 8.08829 21.9039 8.13935 21.6461 8.13935C21.3882 8.13935 21.1329 8.08829 20.8948 7.98912C20.6568 7.88995 20.4407 7.74463 20.2592 7.56153L20.2577 7.56006C18.4993 5.82403 16.1279 4.8506 13.6569 4.8506C11.186 4.8506 8.81451 5.82403 7.05617 7.56006L7.05615 7.56004L7.05372 7.56252C5.32836 9.32618 4.36222 11.6954 4.36222 14.1626C4.36222 16.6299 5.32836 18.999 7.05371 20.7627L7.05526 20.7643L19.9751 33.6841L35.8954 21.1057ZM35.8954 21.1057L23.317 33.6841L35.8954 21.1057ZM23.5133 17.4789V17.6789H23.7133H25.8667C26.3848 17.6789 26.8817 17.8847 27.248 18.251C27.6144 18.6173 27.8202 19.1142 27.8202 19.6323C27.8202 20.1503 27.6144 20.6472 27.248 21.0135C26.8817 21.3799 26.3848 21.5857 25.8667 21.5857H23.7133H23.5133V21.7857V23.9391C23.5133 24.4572 23.3075 24.954 22.9412 25.3204C22.5749 25.6867 22.078 25.8925 21.5599 25.8925C21.0419 25.8925 20.545 25.6867 20.1787 25.3204C19.8123 24.954 19.6065 24.4572 19.6065 23.9391V21.7857V21.5857H19.4065H17.2531C16.735 21.5857 16.2382 21.3799 15.8718 21.0135C15.5055 20.6472 15.2997 20.1503 15.2997 19.6323C15.2997 19.1142 15.5055 18.6173 15.8718 18.251C16.2382 17.8847 16.735 17.6789 17.2531 17.6789H19.4065H19.6065V17.4789V15.3254C19.6065 14.8074 19.8123 14.3105 20.1787 13.9442C20.545 13.5778 21.0419 13.372 21.5599 13.372C22.078 13.372 22.5749 13.5778 22.9412 13.9442C23.3075 14.3105 23.5133 14.8074 23.5133 15.3254V17.4789ZM21.4406 3.44836L21.5595 3.53681L21.6787 3.4488C24.2395 1.5586 27.3916 0.645923 30.5662 0.875458C33.7404 1.10497 36.7281 2.46131 38.9903 4.69978C40.2213 5.94682 41.1938 7.4248 41.8519 9.04882C42.5102 10.6732 42.8409 12.4117 42.8252 14.1643C42.8094 15.917 42.4474 17.6492 41.76 19.2615C41.0726 20.8738 40.0734 22.3343 38.8197 23.5591L38.8175 23.5614L25.8977 36.5888C25.8975 36.589 25.8973 36.5892 25.8971 36.5894C24.7234 37.7614 23.1325 38.4197 21.4738 38.4197C19.8151 38.4197 18.2242 37.7614 17.0505 36.5894C17.0503 36.5892 17.0501 36.589 17.0499 36.5888L4.13011 23.5614L4.12903 23.5603C1.74194 21.1899 0.341662 18.003 0.210174 14.6415C0.0786849 11.28 1.22575 7.99348 3.42039 5.44383C5.61502 2.89418 8.6942 1.27077 12.0379 0.900509C15.3815 0.53025 18.7413 1.44065 21.4406 3.44836ZM22.5511 34.1993C22.8377 34.0799 23.0977 33.905 23.3164 33.6847H19.9757C20.1944 33.905 20.4545 34.0799 20.741 34.1993C21.0278 34.3188 21.3354 34.3803 21.6461 34.3803C21.9567 34.3803 22.2643 34.3188 22.5511 34.1993Z" fill="#1E1E1E" stroke="white" stroke-width="0.4"/>
</svg>
