<svg width="40" height="41" viewBox="0 0 40 41" fill="none" xmlns="http://www.w3.org/2000/svg">
<path d="M28 16.5822L18 10.8022C17.3922 10.4513 16.7028 10.2665 16.001 10.2663C15.2992 10.2661 14.6097 10.4506 14.0018 10.8012C13.3938 11.1517 12.8888 11.6561 12.5374 12.2636C12.1861 12.8711 12.0007 13.5604 12 14.2622V25.8222C12.0007 26.5236 12.1859 27.2126 12.5369 27.8199C12.888 28.4272 13.3925 28.9315 14 29.2822C14.6081 29.6333 15.2979 29.8181 16 29.8181C16.7021 29.8181 17.3919 29.6333 18 29.2822L28 23.5022C28.6062 23.1506 29.1093 22.6459 29.4591 22.0386C29.8088 21.4314 29.9929 20.7429 29.9929 20.0422C29.9929 19.3414 29.8088 18.653 29.4591 18.0457C29.1093 17.4385 28.6062 16.9338 28 16.5822ZM26 20.0422L25 16.5822L16 14.2622L26 20.0422ZM20 0.0421906C16.0444 0.0421906 12.1776 1.21517 8.8886 3.4128C5.59962 5.61042 3.03617 8.734 1.52242 12.3885C0.00866568 16.043 -0.387401 20.0644 0.384303 23.944C1.15601 27.8236 3.06082 31.3873 5.85787 34.1843C8.65492 36.9814 12.2186 38.8862 16.0982 39.6579C19.9778 40.4296 23.9991 40.0335 27.6537 38.5198C31.3082 37.006 34.4318 34.4426 36.6294 31.1536C38.827 27.8646 40 23.9978 40 20.0422C40 17.4157 39.4827 14.815 38.4776 12.3885C37.4725 9.96201 35.9993 7.75722 34.1421 5.90005C32.285 4.04288 30.0802 2.56969 27.6537 1.5646C25.2272 0.559506 22.6264 0.0421906 20 0.0421906ZM20 36.0422C16.8355 36.0422 13.7421 35.1038 11.1109 33.3457C8.4797 31.5876 6.42894 29.0887 5.21794 26.1651C4.00693 23.2415 3.69008 20.0244 4.30744 16.9207C4.92481 13.817 6.44866 10.9661 8.6863 8.72848C10.9239 6.49084 13.7749 4.96699 16.8786 4.34963C19.9823 3.73226 23.1993 4.04912 26.1229 5.26012C29.0465 6.47112 31.5454 8.52188 33.3035 11.1531C35.0616 13.7842 36 16.8777 36 20.0422C36 24.2856 34.3143 28.3553 31.3137 31.3559C28.3131 34.3565 24.2435 36.0422 20 36.0422Z" fill="#E46363"/>
<path d="M17.8421 11.0756L27.8416 16.8553L17.8421 11.0756ZM17.8421 11.0756C17.2823 10.7524 16.6474 10.5822 16.0009 10.582C15.3545 10.5818 14.7195 10.7518 14.1595 11.0747C13.5995 11.3976 13.1344 11.8621 12.8107 12.4217C12.4871 12.9813 12.3164 13.6161 12.3157 14.2625V25.8219C12.3164 26.4679 12.4869 27.1025 12.8103 27.6619C13.1336 28.2212 13.5983 28.6857 14.1579 29.0088C14.7179 29.3321 15.3533 29.5024 16 29.5024C16.6467 29.5024 17.282 29.3321 17.842 29.0088C17.8421 29.0088 17.8421 29.0088 17.8421 29.0088L27.8416 23.2291L17.8421 11.0756ZM26.158 20.3155L26.6309 20.0422L26.158 19.7688L16.158 13.9888L15.6843 13.715V14.2622V25.8222V26.3693L16.158 26.0955L26.158 20.3155ZM29.1855 21.8811C28.8634 22.4402 28.4001 22.905 27.842 23.2288V16.8555C28.4001 17.1794 28.8634 17.6442 29.1855 18.2033C29.5076 18.7626 29.6772 19.3967 29.6772 20.0422C29.6772 20.6876 29.5076 21.3218 29.1855 21.8811ZM9.06401 3.67532C12.3011 1.51238 16.1068 0.357918 20 0.357918C22.585 0.357918 25.1446 0.867067 27.5328 1.85629C29.921 2.84552 32.091 4.29545 33.9189 6.12331C35.7467 7.95116 37.1967 10.1211 38.1859 12.5093C39.1751 14.8975 39.6843 17.4572 39.6843 20.0422C39.6843 23.9354 38.5298 27.7411 36.3669 30.9782C34.2039 34.2152 31.1297 36.7382 27.5328 38.2281C23.936 39.7179 19.9782 40.1077 16.1598 39.3482C12.3414 38.5887 8.83402 36.714 6.08112 33.9611C3.32823 31.2082 1.45349 27.7008 0.693964 23.8824C-0.0655577 20.064 0.324256 16.1062 1.81411 12.5093C3.30397 8.91251 5.82695 5.83825 9.06401 3.67532ZM10.9355 33.6082C13.6186 35.401 16.7731 36.3579 20 36.3579C24.3272 36.3579 28.4772 34.6389 31.537 31.5791C34.5968 28.5194 36.3157 24.3694 36.3157 20.0422C36.3157 16.8152 35.3588 13.6608 33.566 10.9777C31.7732 8.29455 29.2251 6.20332 26.2438 4.96842C23.2624 3.73352 19.9819 3.41042 16.817 4.03996C13.652 4.66951 10.7448 6.22343 8.46304 8.50523C6.18125 10.787 4.62733 13.6942 3.99778 16.8591C3.36824 20.0241 3.69134 23.3046 4.92624 26.2859C6.16114 29.2672 8.25237 31.8154 10.9355 33.6082Z" fill="#1E1E1E" stroke="white" stroke-width="0.631455"/>
</svg>
