<svg width="141" height="43" viewBox="0 0 141 43" fill="none" xmlns="http://www.w3.org/2000/svg">
<path fill-rule="evenodd" clip-rule="evenodd" d="M107.414 5.78139C107.483 5.18764 107.9 3.46108 110.118 4.68374C112.331 5.9103 112.24 5.61733 113.152 6.00405C114.063 6.39077 113.178 8.25405 113.039 8.5353C112.9 8.82436 112.839 9.20327 112.566 10.5666C112.301 11.9259 111.216 11.4767 110.725 11.3595C110.231 11.2306 108.642 10.2892 107.44 9.99624C106.238 9.71108 106.815 8.69546 107.036 7.8478C107.396 6.50405 107.357 6.36733 107.414 5.78139ZM53.1126 5.51967C53.3861 4.27358 53.6595 4.26967 55.1786 4.75405C55.5519 4.87514 56.1421 5.01577 56.9538 5.08999C57.7611 5.17202 59.2671 5.58999 59.0935 6.70327C58.9069 7.93764 58.8027 9.07436 57.9303 9.91811C57.4442 10.3869 56.7064 10.383 56.077 10.3986C55.5605 10.4103 54.6534 10.5705 54.163 10.0197C53.8331 9.65639 53.2125 9.3478 52.7567 9.00796C52.301 8.66421 52.1534 7.21499 52.4659 6.78139C52.7133 6.42983 52.9998 6.12124 53.1126 5.51967ZM1.80186 17.7697C3.21245 17.8556 4.91818 16.5197 5.55186 15.633C6.70637 14.0001 2.50932 5.84389 11.294 0.464989C11.8366 0.136864 12.1838 -0.0506366 13.2645 0.70327C14.6057 1.64077 17.0232 2.75796 18.2472 3.62514C19.2585 4.33608 18.9286 4.67202 18.1951 4.92983C17.8565 5.04311 11.1552 8.24233 12.8088 13.3947C13.0215 14.0587 13.8722 14.4611 14.3539 14.3283C14.8314 14.2072 16.9277 13.9142 17.314 14.1759C17.9781 14.6681 18.5032 15.3986 19.2715 15.6251C19.2715 15.6251 19.7923 15.6134 20.1005 15.3126C21.0901 14.3361 24.1586 12.5392 25.7602 12.7111C26.8192 12.8205 27.7133 14.3712 28.0866 14.4416C28.4555 14.508 29.2324 14.0509 29.8314 13.9689C30.6907 13.8556 32.1881 15.9962 33.0041 16.7775C33.3774 17.1408 33.1083 17.8712 32.8826 18.1837C32.6612 18.508 30.7168 21.4689 30.6604 23.2697C30.5996 25.0783 33.7289 27.3048 34.9008 24.297C35.9208 21.008 36.6109 1.0353 36.7845 0.570457C36.9885 0.0470196 37.3401 0.0157696 37.8956 0.000144597C38.6465 -0.0193866 42.518 1.94546 42.9737 2.39077C43.4598 2.85952 43.6638 3.46889 43.5423 3.96108C43.3079 4.98843 41.9972 9.58608 42.0406 11.4767C42.071 12.9376 42.4355 13.7111 43.2081 13.3205C43.2081 13.3205 45.3826 11.9103 47.2663 13.2736C47.7307 13.5314 48.0432 14.3244 48.9546 14.9845C49.8574 15.6447 51.3809 14.508 51.5241 14.508C51.6673 14.508 51.3027 12.2736 52.0796 11.883C52.8522 11.5001 57.8956 13.7658 58.2472 14.3048C58.946 15.383 58.2168 15.7501 58.7289 16.7619C59.2411 17.758 63.3296 15.9455 63.7593 15.0509C64.7359 12.9611 64.2758 11.8439 65.5215 11.8595C66.242 11.8634 69.3713 12.9376 70.0441 13.4845C70.8687 14.1525 70.2133 17.4689 70.6039 18.09C71.1725 19.0001 75.235 16.34 76.1031 14.0626C76.7628 12.3517 77.9564 11.7423 78.5249 11.7306C79.0935 11.7228 79.2498 11.9689 80.0571 12.1603C80.8774 12.3517 83.373 13.2111 83.6161 14.1916C83.9373 15.5197 83.551 15.8478 83.2211 17.5626C82.8869 19.2775 82.7567 23.297 82.7697 25.008C82.7784 25.7267 83.156 26.2228 83.959 26.2345C85.0961 26.2423 85.196 24.9455 85.1612 24.2697C85.0658 22.3751 86.4633 13.1876 93.0388 12.4142C94.2628 12.2736 94.9442 13.5001 96.0119 13.0275C96.8843 12.6408 96.8713 3.56264 96.8453 1.54702C96.8409 1.14858 97.1578 0.589989 97.8262 0.754051C98.4555 0.914207 98.1691 0.73452 99.0762 1.31655C99.9876 1.89077 101.225 2.03921 102.566 2.57046C103.134 2.69546 103.234 3.41811 103.147 3.81655C102.184 7.78921 102.123 19.2111 101.941 25.9845C102.197 26.504 102.696 26.754 103.017 26.672C105.009 26.172 104.844 25.4103 105.022 23.8439C105.127 22.922 105.799 14.8439 105.825 14.3595C105.851 13.8869 106.381 12.5705 107.505 12.7697C109.072 13.0431 112.11 14.2775 112.188 14.3869C112.271 14.4962 112.7 14.8361 112.431 15.9103C112.166 16.9923 111.29 24.6095 112.427 25.8947C113.195 26.758 113.508 27.0744 114.037 27.0431C114.645 27.004 116.524 26.0314 116.489 25.2423C116.463 24.6134 115.348 22.8673 115.196 22.6642C114.875 22.2228 114.71 21.2228 115.929 20.4494C116.954 19.3087 121.867 15.5275 122.939 14.4025C123.278 14.0822 124.081 13.0822 125.287 13.9376C126.498 14.8048 132.839 18.633 132.683 18.7267C132.527 18.8087 133.829 19.1603 132.852 20.3712C131.919 21.5314 131.19 24.0001 131.702 24.8205C132.214 25.6408 135.348 24.9415 136.368 24.383C136.993 24.0314 139.71 21.8244 139.797 21.7931C140.061 21.6994 139.91 21.965 140.166 22.2267C139.701 23.0939 139.15 24.9337 137.852 26.4142C137.24 27.6994 138.686 26.9415 138.434 27.5665C138.182 28.1994 134.94 31.2619 132.114 31.047C130.587 30.9298 130.213 29.5236 129.341 28.4415C128.881 27.8712 128.798 27.879 128.117 28.1759C127.436 28.4728 124.879 30.297 124.202 30.547C123.521 30.797 123.134 31.1251 122.101 30.6915C121.073 30.258 119.488 28.4533 119.024 28.883C118.46 29.4025 116.077 30.6642 115.144 31.0783C114.206 31.4884 113.36 31.715 112.557 31.0978C111.654 30.4025 109.818 28.9494 107.8 29.8165C105.821 30.7736 104.124 31.672 102.904 31.8869C101.945 32.0509 101.298 31.5978 101.168 31.547L98.3253 30.3361C98.1777 30.2697 97.2012 29.9962 96.5111 30.1212C95.0354 30.4103 92.5571 32.1447 90.5258 32.0587C89.4711 32.008 86.1682 30.297 85.7776 29.84C85.3913 29.3869 84.4885 29.2736 84.0979 29.5392C83.2125 30.1447 81.498 30.9767 81.1942 31.0783C80.8904 31.1915 80.1135 31.7345 78.8071 30.9337C77.5093 30.1369 76.5111 29.8439 76.4807 29.7775C76.4503 29.7072 75.5692 29.5665 75.6039 28.0705C75.6387 26.5744 75.3175 24.9806 75.2914 24.6681C75.2697 24.3595 74.9355 23.4962 74.0588 23.883C73.0085 24.3439 70.5345 25.8048 69.8965 26.8751C69.2585 27.9415 69.3843 27.7189 68.9546 28.7228C68.5336 29.7306 68.4946 29.9415 68.3644 30.2775C68.1473 30.84 67.097 31.1486 66.5762 30.8908C65.031 30.1369 63.8765 29.2931 62.7524 28.5119C61.7541 27.8165 61.7845 27.1564 61.9581 26.1681C62.2185 24.7111 62.5571 21.8751 62.6048 21.3712C62.6612 20.8673 63.0302 19.9259 61.6803 20.4142C60.3392 20.8947 59.9138 21.1681 59.0935 21.6681C58.4859 22.0392 58.0605 22.129 57.9564 23.5353C57.8479 24.9376 57.4703 28.258 57.2923 29.3361C57.2098 29.8595 56.4286 31.0001 55.248 30.6915C54.0501 30.3869 53.0996 29.9845 52.1578 29.4611C51.2203 28.9337 50.8166 28.8322 51.025 27.422C51.2289 26.0119 51.7237 21.5548 51.7585 20.8244C51.7932 20.0939 51.9321 18.7228 51.1769 18.8869C50.5562 19.0236 50.4607 19.0665 49.8618 19.59C49.571 19.84 49.1847 28.5353 41.9364 30.9962C39.9138 31.6837 37.2619 28.8556 36.038 29.1173C35.1526 29.3087 34.2888 29.9415 33.0822 30.6681C31.4112 31.6759 29.9399 30.1603 29.0371 29.59C28.1473 29.0236 27.544 28.9572 26.7237 29.4337C25.248 30.2814 24.7489 30.8986 24.1326 31.2111C23.4946 31.5314 21.5979 31.504 20.9512 31.1408C18.7333 29.9806 15.6213 27.34 15.3392 27.1447C15.0571 26.9455 14.5579 26.1955 14.788 25.2931C15.1048 24.0392 15.5736 22.5626 15.6083 22.0861C15.656 21.5548 15.5909 21.1681 15.3131 21.0861C13.0605 20.4415 12.7437 21.5744 12.7177 22.4884C12.6743 24.1525 12.696 33.629 12.4486 35.2736C12.2315 36.7072 11.8149 38.5783 10.6256 40.0236C9.43641 41.4728 8.07356 42.1994 6.98415 42.6603C6.12477 43.0275 5.76019 42.7931 5.31748 42.5314C4.15863 41.8595 2.36609 40.3361 1.50238 39.6447C1.10741 39.3244 0.972865 38.9728 1.57616 38.5353C5.5345 35.7072 6.53276 34.8595 6.43293 30.0705C6.33745 25.5705 6.41557 24.8087 6.32877 23.883C6.23328 22.9572 4.24543 23.3869 3.63779 23.1603C3.05186 22.9494 2.99543 22.8165 2.36609 21.633C1.42425 20.8947 0.820955 20.3048 0.28276 19.2306C-0.389983 17.879 1.08571 17.7228 1.80186 17.7697Z" fill="white"/>
</svg>
