<svg width="189" height="34" viewBox="0 0 189 34" fill="none" xmlns="http://www.w3.org/2000/svg">
<path d="M172.563 9.07361C176.604 7.8462 181.1 7.05067 185.292 8.25534C187.691 8.98269 188.979 11.2784 188.954 13.4604C189.004 17.9382 189.055 22.4159 188.878 26.8937C187.439 26.8937 185.999 26.8937 184.585 26.871C184.408 26.1663 184.256 25.4617 184.08 24.7571C181.403 26.6664 177.842 28.0302 174.407 26.8937C170.518 25.5072 170.038 20.2566 172.967 17.8245C175.922 15.3697 180.165 15.347 183.878 14.5969C183.65 13.4604 183.448 12.0057 181.958 11.6875C178.978 10.892 175.973 12.0967 173.119 12.824C172.892 11.5966 172.715 10.3465 172.563 9.07361ZM177.311 19.4611C175.922 20.4612 175.847 22.8933 177.665 23.5297C179.862 24.2798 181.984 22.9387 183.701 21.8704C183.701 20.4157 183.701 18.961 183.676 17.5063C181.504 17.8473 179.054 18.0746 177.311 19.4611ZM60.5312 0.118107C62.9304 -0.018271 65.3549 -0.0182713 67.7794 0.0271881C70.6333 6.55061 72.4769 13.4377 75.558 19.8929C78.1088 13.3013 80.4576 6.66426 82.9578 0.0726477C85.3571 0.00445855 87.7563 0.00445855 90.1556 0.0726477C90.8627 9.02815 91.8729 17.9837 92.3023 26.9392H86.7461C86.0895 20.5521 85.7864 14.1196 85.0793 7.73256C82.2254 14.006 80.205 20.5976 77.6037 26.9619C75.8611 27.0301 74.1185 27.0073 72.3759 26.9392C69.8756 20.5748 67.8552 14.0287 64.8751 7.82347C64.269 14.1878 63.9911 20.5976 63.3345 26.9619C61.6677 26.9619 60.0008 26.9619 58.334 26.9392C58.8138 17.9609 59.8493 9.05088 60.5312 0.118107ZM143.04 2.14105C144.707 1.82283 146.424 1.61827 148.116 1.48189C148.167 3.64121 148.167 5.80053 148.167 7.98258C149.556 8.00531 150.97 8.0735 152.384 8.09623C152.662 9.32364 152.89 10.5738 153.092 11.8239C151.45 11.8921 149.834 11.9603 148.217 11.983C148.243 15.2561 147.965 18.5519 148.344 21.825C148.874 23.416 151.172 22.9615 152.561 23.2569C152.839 24.5071 153.041 25.7799 153.193 27.0528C150.541 27.3028 147.561 27.621 145.187 26.2573C143.621 25.3253 143.141 23.5752 143.065 22.0068C142.863 18.6883 143.116 15.3697 142.964 12.0512C142.005 11.9603 141.02 11.8694 140.06 11.7784C140.085 10.5738 140.136 9.39182 140.186 8.18715C141.121 8.11896 142.055 8.02804 143.015 7.95985C142.964 6.0051 142.989 4.07307 143.04 2.14105ZM95.4592 8.48264C97.2523 8.16442 99.0707 7.98258 100.889 7.89166C102.531 12.2103 103.97 16.5971 105.662 20.8931C107.38 16.7108 108.718 12.3921 110.233 8.14169C111.976 8.05077 113.693 8.00531 115.436 8.02804C113.491 13.7559 110.966 19.302 108.819 24.9844C107.683 27.5983 106.976 30.5532 104.602 32.5307C102.657 34.1217 99.8536 34.1899 97.4038 33.8035C97.1765 32.5534 96.9492 31.3033 96.7219 30.0759C97.9342 30.0531 99.1464 30.1213 100.333 29.9395C101.95 29.4394 103.364 27.6892 102.632 26.1436C100.283 20.2339 97.7069 14.4151 95.4592 8.48264ZM118.82 8.05077C120.285 8.05077 121.75 8.0735 123.189 8.09623C123.391 8.9145 123.568 9.73277 123.77 10.551C126.018 8.89177 128.695 7.27796 131.776 7.73256C134.453 7.82347 136.575 10.0055 136.625 12.3467C136.751 17.1881 136.676 22.0523 136.65 26.8937C134.984 26.9164 133.317 26.9392 131.675 26.9619C131.195 22.5523 131.776 18.12 131.423 13.7332C131.195 11.9148 128.695 11.4602 127.129 12.1876C125.791 12.7786 123.998 13.6195 124.099 15.1879C123.998 19.0974 124.149 23.0069 124.073 26.9164C122.305 26.9392 120.563 26.9392 118.795 26.8937C118.82 20.5976 118.795 14.3242 118.82 8.05077ZM157.107 8.05077C158.597 8.05077 160.087 8.05077 161.577 8.0735C161.754 9.16453 161.956 10.2556 162.158 11.3693C164.002 9.64185 166.022 7.84621 168.851 7.64164C169.305 9.1418 169.558 10.6874 169.608 12.233C166.83 12.8013 163.674 13.8468 162.436 16.3244C162.183 19.8475 162.487 23.3933 162.335 26.9164C160.592 26.9392 158.85 26.9392 157.107 26.8937V8.05077Z" fill="white"/>
<path d="M13.0969 0.500576C13.6515 0.172196 14.3374 -0.16932 15.0088 0.0933843C16.1909 0.553117 17.052 1.47258 17.8693 2.33951C20.6715 5.43941 22.7148 8.99906 24.9478 12.4273C23.5467 16.0133 21.8829 19.6123 21.7807 23.4609C21.7077 24.6956 22.0726 25.9041 22.5834 27.0468C21.1094 26.0748 20.1461 24.6168 19.2558 23.2114C16.9937 19.4153 15.5488 15.2777 14.4104 11.1007C13.5931 7.633 12.8342 4.08649 13.0969 0.500576Z" fill="white"/>
<path d="M34.2295 0.552334C34.7403 0.276494 35.3095 -0.117562 35.9371 0.0531955C36.7398 0.289629 37.3674 0.841308 37.9512 1.36672C39.4106 2.74591 40.622 4.32214 41.7604 5.92464C44.3582 9.66817 46.5036 13.6875 48.0507 17.8777C48.6637 19.4014 49.1161 20.9776 49.3934 22.5801C49.5247 23.9987 49.4518 25.5486 48.5907 26.7965C47.8755 27.8473 46.3139 28.2414 45.0588 27.7816C43.2928 27.138 42.1107 25.68 41.1036 24.2877C38.4182 20.3077 36.8566 15.8023 35.6014 11.2969C34.7549 7.78984 33.9668 4.19079 34.2295 0.552334ZM8.19265 5.97718C9.59374 4.00689 11.0824 2.02348 13.0965 0.499793C12.8338 4.07257 13.5927 7.63221 14.4246 11.0999C13.3592 15.1718 11.9289 19.1912 9.78347 22.9085C8.77644 24.5766 7.60886 26.2579 5.8575 27.3613C4.87966 27.9918 3.49317 28.2151 2.41316 27.6503C1.28937 27.0855 0.807748 25.8902 0.647207 24.7999C0.50126 23.6309 0.515855 22.4356 0.793154 21.2797C2.39857 15.8943 4.89425 10.7059 8.19265 5.97718Z" fill="#E2E2E2"/>
<path d="M30.8149 3.99416C31.822 2.74631 32.8728 1.5116 34.2301 0.552734C33.9674 4.17805 34.7555 7.79023 35.6166 11.3105C34.6095 15.0277 33.3106 18.6925 31.4571 22.1339C30.5814 23.697 29.589 25.2338 28.2317 26.4948C27.4436 27.1909 26.4803 27.8477 25.3419 27.9528C24.3203 28.0579 23.3425 27.6375 22.5981 27.0333C22.0873 25.8906 21.7225 24.6821 21.7954 23.4474C21.8976 19.5988 23.5614 15.9866 24.9625 12.4138C25.0063 12.3613 25.123 12.2562 25.1668 12.2037C25.4879 11.8621 25.7798 11.5075 26.0133 11.1134C27.4582 8.65716 29.0344 6.26655 30.8149 3.99416Z" fill="#D4D4D4"/>
</svg>
