<svg width="203" height="34" viewBox="0 0 203 34" fill="none" xmlns="http://www.w3.org/2000/svg">
<path d="M38.5773 16.9976C38.5773 25.5036 31.7356 32.5783 22.7319 34L20.6508 23.3735C24.0258 22.8397 26.5921 20.1904 26.5921 16.9976C26.5921 13.8048 24.0258 11.1554 20.6508 10.6217L22.7319 0C31.7356 1.42172 38.5773 8.49151 38.5773 17.0024M18.1492 23.3783C14.7741 22.8446 12.2078 20.1952 12.2078 17.0024C12.2078 13.8096 14.7741 11.1603 18.1492 10.6265L16.0681 0C7.06977 1.42172 0.222656 8.49151 0.222656 16.9976C0.222656 25.5036 7.06438 32.5783 16.0681 34L18.1492 23.3735" fill="white"/>
<path d="M48.8809 17.1976C48.8809 10.9849 54.0118 6.21873 61.0796 6.21873C65.3382 6.21873 69.0885 8.12273 71.1354 11.1086L66.5128 13.5195C65.4756 11.8936 63.4631 10.9231 61.0865 10.9231C56.931 10.9231 54.2453 13.4267 54.2453 17.1976C54.2453 20.9686 56.931 23.4722 61.0865 23.4722C63.4631 23.4722 65.51 22.5078 66.5128 20.8758L71.1354 23.2867C69.1229 26.2726 65.3726 28.1704 61.0796 28.1704C54.0049 28.1704 48.8809 23.4042 48.8809 17.1915M90.7936 11.7144V28.2075H85.6009V26.2787C84.4538 27.4656 82.7572 28.1827 80.4356 28.1827C75.8954 28.1827 72.152 24.5973 72.152 19.9486C72.152 15.2998 75.8954 11.7206 80.4356 11.7206C82.7572 11.7206 84.4538 12.4376 85.6009 13.6246V11.7206H90.7936V11.7144ZM85.6009 19.9424C85.6009 17.6056 83.87 16.1406 81.4797 16.1406C79.0893 16.1406 77.3584 17.6056 77.3584 19.9424C77.3584 22.2791 79.0893 23.7442 81.4797 23.7442C83.87 23.7442 85.6009 22.2791 85.6009 19.9424ZM103.315 11.7144V17.0616C101.145 16.7464 98.0744 17.5315 98.0744 20.6471V28.2075H92.8336V11.7144H98.0744V14.83C98.7681 12.722 101.11 11.7144 103.315 11.7144ZM158.443 28.2075L153.079 21.5435V28.2075H148.051V6.21873H153.079V18.3227L158.107 11.7144H163.973L157.873 19.7075L164.137 28.2075H158.443ZM182.264 17.958V28.2075H177.236V18.6256C177.236 16.7526 175.931 15.8809 174.324 15.8809C172.476 15.8809 171.205 16.8453 171.205 18.9904V28.2136H166.177V6.21873H171.205V13.5566C172.105 12.4376 173.781 11.7144 176 11.7144C179.386 11.7144 182.264 13.8842 182.264 17.958ZM184.297 19.9795C184.297 15.3369 188.384 11.7515 193.48 11.7515C198.577 11.7515 202.664 15.3369 202.664 19.9795C202.664 24.622 198.577 28.2136 193.48 28.2136C188.384 28.2136 184.297 24.6282 184.297 19.9795ZM197.464 19.9795C197.464 17.7664 195.733 16.3013 193.48 16.3013C191.228 16.3013 189.497 17.7664 189.497 19.9795C189.497 22.1926 191.228 23.6576 193.48 23.6576C195.733 23.6576 197.464 22.1926 197.464 19.9795ZM126.442 17.1791C126.442 23.398 121.311 28.1704 114.566 28.1704H105.341V6.18164H114.566C121.304 6.18164 126.442 10.954 126.442 17.1791ZM121.242 17.1791C121.242 13.4082 118.591 10.9293 114.738 10.9293H110.548V23.4351H114.738C118.571 23.4351 121.242 20.9562 121.242 17.1853M137.645 24.0038C138.668 24.0038 139.582 23.7504 140.282 23.3486C140.282 23.3486 141.903 23.8926 145.146 24.9744C143.449 27.1009 140.88 28.1951 137.576 28.1951C131.649 28.1951 127.967 24.6035 127.967 19.9486C127.967 15.2936 131.717 11.702 137.198 11.702C142.268 11.702 146.018 15.2318 146.018 19.9486C146.018 20.61 145.949 21.2282 145.812 21.8278H133.496C134.128 23.4475 135.722 24.0038 137.638 24.0038M140.825 18.3166C140.276 16.5115 138.703 15.85 137.143 15.85C135.172 15.85 133.84 16.7278 133.359 18.3166H140.825Z" fill="white"/>
</svg>
