<svg width="118" height="31" viewBox="0 0 118 31" fill="none" xmlns="http://www.w3.org/2000/svg">
<path d="M41.1267 23.8891C42.2369 24.8882 43.5489 25.3878 45.0627 25.3878C46.627 25.3878 47.939 24.9109 49.0239 23.9345C50.1341 22.9354 50.6892 21.7546 50.6892 20.324V0.0234375L56.3913 0.0234375V20.3467C56.3913 23.1397 55.2811 25.524 53.0861 27.545C50.8153 29.4979 48.1409 30.497 45.088 30.497C41.9594 30.497 39.3101 29.5206 37.0898 27.545L41.1267 23.8891Z" fill="white"/>
<path d="M67.9971 0.0234375L73.5983 0.0234375V30.4743H67.9971V0.0234375Z" fill="white"/>
<path d="M108.215 22.4585C105.995 24.4114 103.346 25.3878 100.268 25.3878C97.1897 25.3878 94.5152 24.4114 92.2697 22.4585C90.0999 20.4375 89.0149 18.0305 89.0149 15.2602C89.0149 12.4899 90.0999 10.1056 92.2697 8.10733C94.5152 6.10906 97.1897 5.13264 100.268 5.13264C103.346 5.13264 105.995 6.13177 108.215 8.10733C110.411 10.1056 111.521 12.4899 111.521 15.2602C111.521 18.0305 110.411 20.4375 108.215 22.4585ZM112.202 4.49683C108.922 1.52214 104.935 0.0234375 100.268 0.0234375C95.5497 0.0234375 91.5632 1.52214 88.3337 4.49683C85.0285 7.49423 83.3633 11.0593 83.3633 15.2602C83.3633 19.4611 85.0285 23.0489 88.3337 26.0009C91.6137 28.9983 95.6001 30.4743 100.268 30.4743C104.935 30.4743 108.922 28.9756 112.202 26.0009C115.558 23.0716 117.223 19.4838 117.223 15.2602C117.223 11.0593 115.558 7.49423 112.202 4.49683Z" fill="white"/>
<path d="M12.515 20.3233H22.4558L17.4854 11.3765L12.515 20.3233ZM25.2817 25.3871H9.71438L6.83809 30.4736H0.555664L17.4854 0L34.4152 30.4736H28.1327L25.2817 25.3871Z" fill="white"/>
</svg>
