<svg width="113" height="31" viewBox="0 0 113 31" fill="none" xmlns="http://www.w3.org/2000/svg">
<path d="M0.555664 0L7.24259 0L18.6132 18.5117L29.9835 0L36.5258 0V30.4182H31.0701V7.10496L21.0996 23.2483H15.9818L6.01166 7.10496V30.4182H0.555664L0.555664 0Z" fill="white"/>
<path d="M58.1079 12.9163C56.9651 11.8664 55.4684 11.3413 53.6176 11.3409C51.8149 11.3409 50.3062 11.8769 49.0914 12.9489C47.8765 14.0209 47.1079 15.4622 46.7856 17.2727H60.0635C59.9023 15.4187 59.2504 13.9665 58.1079 12.9163ZM54.1257 30.9611C51.5986 30.9611 49.3776 30.4576 47.4626 29.4507C45.5475 28.4437 44.0544 27.0497 42.9833 25.2686C41.913 23.4868 41.3779 21.4444 41.3779 19.1412C41.3779 16.8095 41.9009 14.7454 42.947 12.9489C43.993 11.1524 45.4456 9.7474 47.3047 8.73385C49.1635 7.72009 51.3001 7.2131 53.7143 7.21289C56.1122 7.21289 58.1763 7.7235 59.9067 8.74473C61.637 9.76596 62.9685 11.1964 63.901 13.0359C64.8344 14.8757 65.3011 17.0339 65.3011 19.5105V20.8593H46.7856C47.1236 22.7134 47.9565 24.1727 49.2844 25.2372C50.6123 26.3017 52.2901 26.834 54.3177 26.834C55.9433 26.834 57.3435 26.6167 58.5182 26.1822C59.693 25.7476 60.7952 25.0886 61.8249 24.2052L64.722 27.3991C61.841 29.7737 58.3081 30.9611 54.1232 30.9611" fill="white"/>
<path d="M71.917 11.7772H66.8955V7.75769H71.917V1.10938H77.1792V7.75769H84.8073V11.7772H77.1796V21.9673C77.1796 23.6616 77.5015 24.871 78.1452 25.5955C78.789 26.3199 79.8913 26.6821 81.4519 26.6819C82.1438 26.6819 82.7313 26.6566 83.2144 26.606C83.6975 26.5555 84.2285 26.4865 84.8076 26.3993V30.3756C84.1464 30.5476 83.4728 30.6783 82.7916 30.7667C82.0123 30.8699 81.2256 30.9207 80.4379 30.9187C74.7566 30.9187 71.9161 28.1231 71.9163 22.5321L71.917 11.7772Z" fill="white"/>
<path d="M106.97 15.6875C106.407 14.3981 105.518 13.3804 104.303 12.6344C103.089 11.8883 101.685 11.515 100.091 11.5144C97.8373 11.5144 96.0429 12.1951 94.7074 13.5566C93.3719 14.9181 92.704 16.7577 92.7035 19.0753C92.7035 21.4079 93.3473 23.2547 94.6349 24.6158C95.9225 25.9769 97.6687 26.6576 99.8736 26.658C101.499 26.658 102.947 26.2815 104.219 25.5284C105.49 24.7754 106.408 23.7614 106.971 22.4865L106.97 15.6875ZM112.232 30.4184H107.066V27.2462C106.175 28.4131 104.971 29.3585 103.566 29.9947C102.149 30.6387 100.54 30.9611 98.7373 30.9617C96.5165 30.9617 94.5491 30.451 92.835 29.4296C91.121 28.4081 89.7734 27.0031 88.792 25.2145C87.81 23.4257 87.3191 21.3798 87.3193 19.0766C87.3193 16.7592 87.8183 14.7096 88.8162 12.9278C89.8141 11.146 91.1942 9.74871 92.9563 8.7358C94.7189 7.72204 96.7427 7.21506 99.0277 7.21484C100.75 7.21484 102.295 7.51543 103.663 8.1166C105.012 8.70432 106.181 9.5809 107.067 10.6696V7.75756H112.233L112.232 30.4184Z" fill="white"/>
</svg>
