<svg width="161" height="33" viewBox="0 0 161 33" fill="none" xmlns="http://www.w3.org/2000/svg">
<path fill-rule="evenodd" clip-rule="evenodd" d="M131.002 26.3448C132.428 27.2447 135.835 26.1745 138.765 22.6882C141.695 19.2041 141.903 16.4708 140.388 15.7038C138.548 14.7716 135.483 16.078 132.554 19.5619C129.627 23.0482 129.578 25.4543 131.002 26.3448ZM67.4265 26.4799C68.8473 27.3768 72.1105 26.3038 75.0381 22.823C77.9672 19.334 78.3096 16.2647 76.8831 15.3682C75.4592 14.4748 71.9795 15.7422 69.0493 19.2287C66.1222 22.7126 66 25.5867 67.4265 26.4799ZM2.4778 24.8492C2.4778 24.8492 4.87869 27.5467 6.8739 27.5467C8.79828 27.5467 9.9718 26.1886 10.4178 25.3828C10.8672 24.5803 18.8842 9.44772 18.8842 9.44772C18.8842 9.44772 19.245 8.81003 18.6244 9.0138C18.0045 9.21155 16.8894 9.58832 15.5265 10.416C14.164 11.2436 12.3397 12.6787 12.3397 12.6787C12.3397 12.6787 12.1289 12.8463 11.8323 12.7148C11.5328 12.5799 10.2349 11.3097 10.2349 11.3097C10.2349 11.3097 9.75187 11.0178 10.2715 10.515C10.7909 10.0144 15.2762 6.28028 22.4774 3.62415C29.6787 0.967884 33.8522 0.533222 37.9954 0.533222C41.9943 0.533222 52.1966 2.5292 52.1966 8.02061C52.1966 12.4121 44.7994 14.3428 44.7994 14.3428C44.7994 14.3428 47.9067 16.1021 48.9394 18.269C49.8434 20.172 49.7155 20.9887 49.7155 21.7253C49.7155 22.526 49.0857 24.255 49.0857 24.255C49.0857 24.255 48.9457 24.9508 49.8282 24.9508C50.708 24.9508 51.561 24.4236 51.9363 24.1896C52.3062 23.9584 53.3392 23.4248 53.3392 23.4248C53.3392 23.4248 54.1058 21.2249 55.554 19.262C57.0023 17.2984 60.2525 14.6008 62.9144 13.4709C65.5815 12.349 69.6729 11.2436 72.7062 11.2436C75.7436 11.2436 78.2459 12.1233 78.8416 12.5445C79.4372 12.9728 80.2256 13.4709 80.5866 13.4709C80.9497 13.4709 81.319 13.2291 81.4692 12.9728C81.6184 12.7148 82.111 11.6122 82.5813 11.6122C83.0548 11.6122 83.7116 12.0466 85.1598 12.0466C86.6112 12.0466 90.8886 11.3097 91.9665 11.3097C93.0423 11.3097 93.8488 11.4525 93.8488 12.3104C93.8488 13.171 93.4888 13.4488 93.1159 14.2075C92.7429 14.9666 89.8837 20.6309 89.2995 22.4296C88.7162 24.2246 87.7264 26.9448 88.7561 26.9448C89.7827 26.9448 91.9763 25.8198 93.0423 25.3496C94.1052 24.8853 95.93 23.8131 97.0328 22.6859C98.1366 21.5608 99.7983 19.0688 100.06 18.3324C100.32 17.5989 101.099 15.3352 101.099 15.3352C101.099 15.3352 98.1299 14.9994 97.9522 14.9364C97.775 14.8679 97.2928 14.6423 97.5155 14.109C97.7383 13.575 98.2485 12.4782 98.4717 12.2114C98.695 11.9447 99.113 11.6777 99.8091 11.6122C100.504 11.541 101.867 11.5761 102.202 11.541C102.535 11.5102 102.982 11.502 103.351 10.9768C103.724 10.4487 104.274 9.54972 104.534 9.34614C104.793 9.14545 105.041 8.75502 106.562 8.52119C108.089 8.28521 111.133 7.48433 112.783 6.35441C114.595 5.11704 115.407 4.21783 115.81 3.8578C116.33 3.39018 116.651 2.76303 117.806 2.76303C118.958 2.76303 119.438 3.36524 119.181 4.42723C118.918 5.48541 118.102 6.94822 117.839 7.78445C117.58 8.61736 116.116 11.0759 117.072 11.0759C117.072 11.0759 118.338 11.0178 118.881 10.6826C119.427 10.3469 119.874 10.0806 120.32 10.0806C120.766 10.0806 120.766 10.4076 120.916 10.9386C121.063 11.4741 121.285 13.1021 121.285 13.1021C121.285 13.1021 121.582 13.6053 120.803 13.9385C120.021 14.2736 118.585 14.9031 117.433 15.0324C116.8 15.107 114.855 15.4039 114.631 15.6046C114.408 15.8052 113.082 18.1807 112.117 20.5292C111.152 22.8856 110.345 24.8853 110.305 25.0832C110.268 25.2866 110.222 26.0899 111.001 25.8531C111.781 25.6191 114.915 24.5548 116.03 23.8568C117.146 23.1526 118.139 22.2922 118.139 22.2922C118.139 22.2922 120.136 18.4584 121.909 16.7955C123.678 15.1344 129.082 11.4086 135.031 11.4086C140.98 11.4086 143.531 13.8092 143.864 13.8092C144.203 13.8092 144.533 13.4295 144.759 13.0391C144.98 12.646 145.676 11.5761 146.418 11.5761C147.16 11.5761 147.448 11.9119 148.117 11.9447C148.786 11.9777 153.693 11.5761 154.661 11.5761C155.627 11.5761 157.362 11.4687 157.063 13.0391C156.767 14.6092 154.577 18.7006 154.065 20.0645C153.556 21.4257 151.535 25.8067 152.404 26.051C152.997 26.2208 154.661 25.2866 155.18 24.984C155.704 24.682 157.595 23.2573 157.845 22.9878C158.093 22.7183 158.835 22.1274 158.835 22.1274C158.835 22.1274 160.387 23.4552 160.571 23.6195C160.757 23.7876 161.182 24.3435 160.571 25.0504C159.654 26.1166 150.296 32.9008 143.421 32.9008C138.686 32.9008 137.806 30.3486 137.732 30.1124C137.655 29.8761 137.769 28.6087 137.473 28.4429C137.173 28.2736 136.443 28.7075 135.96 29.0785C135.96 29.0785 130.307 32.9667 125.24 32.9667C121.285 32.9667 119.502 31.0393 118.844 30.3382C117.741 29.161 117.32 27.1455 117.32 27.1455C117.32 27.1455 115.697 27.8138 112.997 29.0402C109.389 30.6815 105.349 33 100.653 33C95.9171 33 95.2209 30.6815 95.2209 30.1483C95.2209 29.6093 95.1474 27.8848 95.1474 27.8848C95.1474 27.8848 86.6568 31.2843 84.8361 31.7757C83.018 32.2656 80.9098 32.7354 78.9146 32.7354C76.9194 32.7354 75.3981 31.8992 74.5916 30.8736C73.782 29.8433 73.7085 28.4074 73.2987 28.4074C72.8932 28.4074 69.7366 30.8876 67.7601 31.5756C66.0554 32.1669 64.8268 32.7354 61.8018 32.7354C61.8018 32.7354 58.2547 32.7001 55.8166 30.9068C53.3728 29.1085 53.6593 27.5467 52.8901 27.3818C52.1225 27.2114 51.5177 27.6241 50.9682 27.9486C50.4239 28.2736 41.7837 32.6012 35.5998 32.6012C29.4189 32.6012 27.7294 31.006 27.0603 30.6382C26.391 30.2725 24.3992 28.9437 24.3992 28.9437L25.8351 26.8492C25.8351 26.8492 26.095 26.5815 26.391 26.7767C26.6902 26.9779 28.5389 27.913 30.0516 27.913C31.5636 27.913 32.9967 27.2251 33.9285 26.051C34.8574 24.8853 37.1124 21.8163 37.1124 19.0278C37.1124 16.237 35.0808 15.7038 34.5976 15.6348C34.1148 15.569 32.0832 15.3352 32.0832 15.3352L32.9727 12.9373C32.9727 12.9373 35.6762 12.8688 37.7447 11.7109C39.8164 10.5506 41.3986 8.61736 41.3986 6.7887C41.3986 4.96007 39.9536 3.59106 38.4411 3.59106C36.9291 3.59106 34.8849 4.63846 33.8186 6.9595C33.278 8.13058 31.387 12.379 29.2419 16.8306C27.0603 21.2554 24.5455 25.2504 24.5455 25.2504C24.5455 25.2504 22.6516 28.7753 19.4034 30.5056C16.1563 32.2325 13.3937 32.6012 11.7194 32.6012C10.0512 32.6012 6.43078 31.9963 3.987 30.5056C1.54828 29.0075 0.888672 28.3167 0.888672 27.3818C0.888672 26.4468 1.36213 25.8531 1.54828 25.6191C1.732 25.3828 2.4778 24.8492 2.4778 24.8492Z" fill="white"/>
</svg>
