<svg width="252" height="28" viewBox="0 0 252 28" fill="none" xmlns="http://www.w3.org/2000/svg">
<path fill-rule="evenodd" clip-rule="evenodd" d="M28.4889 13.791C28.4889 19.3968 32.2947 24.7593 39.1679 24.7593C45.9736 24.7593 49.7144 19.5178 49.7144 13.791C49.7144 6.41822 43.7757 3.31155 39.103 3.31155C33.6945 3.31155 28.4889 7.02939 28.4889 13.791ZM49.5779 1.33402H52.2463V26.404H49.5779V21.9576C46.8405 25.7965 42.5031 27.0769 38.9664 27.0769C31.8267 27.0769 25.6865 22.1416 25.6865 13.9773C25.6865 6.30083 31.0247 1 38.9664 1C43.2362 1 46.9771 2.52369 49.5779 5.87361V1.33402Z" fill="white"/>
<path fill-rule="evenodd" clip-rule="evenodd" d="M28.4889 13.791C28.4889 19.3968 32.2947 24.7593 39.1679 24.7593C45.9736 24.7593 49.7144 19.5178 49.7144 13.791C49.7144 6.41822 43.7757 3.31155 39.103 3.31155C33.6945 3.31155 28.4889 7.02939 28.4889 13.791ZM49.5779 1.33402H52.2463V26.404H49.5779V21.9576C46.8405 25.7965 42.5031 27.0769 38.9664 27.0769C31.8267 27.0769 25.6865 22.1416 25.6865 13.9773C25.6865 6.30083 31.0247 1 38.9664 1C43.2362 1 46.9771 2.52369 49.5779 5.87361V1.33402Z" stroke="white" stroke-width="0.658442"/>
<path fill-rule="evenodd" clip-rule="evenodd" d="M108.166 13.791C108.166 19.3968 111.972 24.7593 118.845 24.7593C125.651 24.7593 129.391 19.5178 129.391 13.791C129.391 6.41822 123.453 3.31155 118.78 3.31155C113.374 3.31155 108.166 7.02939 108.166 13.791ZM129.258 1.33402H131.926V26.404H129.258V21.9576C126.52 25.7965 122.183 27.0769 118.646 27.0769C111.506 27.0769 105.366 22.1416 105.366 13.9773C105.366 6.30083 110.704 1 118.646 1C122.916 1 126.657 2.52369 129.258 5.87361V1.33402Z" fill="white"/>
<path fill-rule="evenodd" clip-rule="evenodd" d="M108.166 13.791C108.166 19.3968 111.972 24.7593 118.845 24.7593C125.651 24.7593 129.391 19.5178 129.391 13.791C129.391 6.41822 123.453 3.31155 118.78 3.31155C113.374 3.31155 108.166 7.02939 108.166 13.791ZM129.258 1.33402H131.926V26.404H129.258V21.9576C126.52 25.7965 122.183 27.0769 118.646 27.0769C111.506 27.0769 105.366 22.1416 105.366 13.9773C105.366 6.30083 110.704 1 118.646 1C122.916 1 126.657 2.52369 129.258 5.87361V1.33402Z" stroke="white" stroke-width="0.658442"/>
<path fill-rule="evenodd" clip-rule="evenodd" d="M96.5649 3.43103V25.9904H93.6227V3.43103H83.6348V1L106.573 1V3.42862L96.5649 3.42862V3.43103Z" fill="white"/>
<path fill-rule="evenodd" clip-rule="evenodd" d="M96.5649 3.43103V25.9904H93.6227V3.43103H83.6348V1L106.573 1V3.42862L96.5649 3.42862V3.43103Z" stroke="white" stroke-width="0.658442"/>
<path fill-rule="evenodd" clip-rule="evenodd" d="M83.6351 25.9904H80.8327V13.7539C80.8327 7.01212 75.6284 3.31078 70.2226 3.31078C65.5498 3.31078 59.6111 6.40668 59.6111 13.7539L59.745 25.9904H57.0752V1H59.745V5.85673C62.3485 2.51841 66.0854 1 70.3551 1C78.2969 1 83.6351 6.28246 83.6351 13.9336V25.9904Z" fill="white"/>
<path fill-rule="evenodd" clip-rule="evenodd" d="M83.6351 25.9904H80.8327V13.7539C80.8327 7.01212 75.6284 3.31078 70.2226 3.31078C65.5498 3.31078 59.6111 6.40668 59.6111 13.7539L59.745 25.9904H57.0752V1H59.745V5.85673C62.3485 2.51841 66.0854 1 70.3551 1C78.2969 1 83.6351 6.28246 83.6351 13.9336V25.9904Z" stroke="white" stroke-width="0.658442"/>
<path fill-rule="evenodd" clip-rule="evenodd" d="M230.921 25.9904H228.119V13.7539C228.119 7.01212 222.914 3.31078 217.509 3.31078C212.836 3.31078 206.897 6.40668 206.897 13.7539L207.031 25.9904H204.361V1H207.031V5.85673C209.635 2.51841 213.371 1 217.641 1C225.583 1 230.921 6.28246 230.921 13.9336V25.9904Z" fill="white"/>
<path fill-rule="evenodd" clip-rule="evenodd" d="M230.921 25.9904H228.119V13.7539C228.119 7.01212 222.914 3.31078 217.509 3.31078C212.836 3.31078 206.897 6.40668 206.897 13.7539L207.031 25.9904H204.361V1H207.031V5.85673C209.635 2.51841 213.371 1 217.641 1C225.583 1 230.921 6.28246 230.921 13.9336V25.9904Z" stroke="white" stroke-width="0.658442"/>
<path fill-rule="evenodd" clip-rule="evenodd" d="M247.609 6.12124C246.682 4.17052 244.834 3.31738 242.918 3.31738C239.879 3.31738 238.358 5.44841 238.358 7.27811C238.358 9.71409 240.473 10.5055 243.117 11.4809C245.828 12.455 248.339 13.1254 250.056 15.1354C251.178 16.4157 251.445 17.7554 251.445 19.1567C251.445 24.8225 246.818 27.0769 242.654 27.0769C238.159 27.0769 234.458 24.6409 233.336 20.4975L235.914 19.7654C236.841 23.0557 239.683 24.7595 242.658 24.7595C246.094 24.7595 248.67 22.5039 248.67 19.2765C248.67 16.475 246.753 15.438 242.658 13.9144C239.947 12.8798 237.966 12.0859 236.777 10.6241C236.181 9.89198 235.586 8.85732 235.586 7.39671C235.586 3.61991 238.693 1 242.789 1C245.963 1 248.606 2.33961 249.859 5.02124L247.609 6.12124Z" fill="white"/>
<path fill-rule="evenodd" clip-rule="evenodd" d="M247.609 6.12124C246.682 4.17052 244.834 3.31738 242.918 3.31738C239.879 3.31738 238.358 5.44841 238.358 7.27811C238.358 9.71409 240.473 10.5055 243.117 11.4809C245.828 12.455 248.339 13.1254 250.056 15.1354C251.178 16.4157 251.445 17.7554 251.445 19.1567C251.445 24.8225 246.818 27.0769 242.654 27.0769C238.159 27.0769 234.458 24.6409 233.336 20.4975L235.914 19.7654C236.841 23.0557 239.683 24.7595 242.658 24.7595C246.094 24.7595 248.67 22.5039 248.67 19.2765C248.67 16.475 246.753 15.438 242.658 13.9144C239.947 12.8798 237.966 12.0859 236.777 10.6241C236.181 9.89198 235.586 8.85732 235.586 7.39671C235.586 3.61991 238.693 1 242.789 1C245.963 1 248.606 2.33961 249.859 5.02124L247.609 6.12124Z" stroke="white" stroke-width="0.658442"/>
<path fill-rule="evenodd" clip-rule="evenodd" d="M139.798 1V23.5596H154.865V25.9904H136.756V1H139.798Z" fill="white"/>
<path fill-rule="evenodd" clip-rule="evenodd" d="M139.798 1V23.5596H154.865V25.9904H136.756V1H139.798Z" stroke="white" stroke-width="0.658442"/>
<path fill-rule="evenodd" clip-rule="evenodd" d="M18.9911 10.3304C18.9911 15.4322 15.0464 17.8854 9.23103 17.8854H3.34791V3.43029H9.25626C14.8048 3.43029 18.6499 5.66519 18.9911 10.3026V10.3304ZM22.0648 10.2267C21.6492 4.03696 16.491 1 9.12216 1H0.442857H0.408337L0.333984 25.9904H3.27355L3.34791 20.3145H9.09826C16.7857 20.3145 22.0648 17.0098 22.0648 10.2677V10.2267Z" fill="white"/>
<path fill-rule="evenodd" clip-rule="evenodd" d="M18.9911 10.3304C18.9911 15.4322 15.0464 17.8854 9.23103 17.8854H3.34791V3.43029H9.25626C14.8048 3.43029 18.6499 5.66519 18.9911 10.3026V10.3304ZM22.0648 10.2267C21.6492 4.03696 16.491 1 9.12216 1H0.442857H0.408337L0.333984 25.9904H3.27355L3.34791 20.3145H9.09826C16.7857 20.3145 22.0648 17.0098 22.0648 10.2677V10.2267Z" stroke="white" stroke-width="0.658442"/>
<path fill-rule="evenodd" clip-rule="evenodd" d="M168.252 24.7613C161.569 24.7613 156.521 20.0718 156.521 14.0372C156.521 8.00514 161.569 3.31566 168.252 3.31566C171.227 3.31566 173.879 4.24629 175.904 5.81187C175.891 5.82641 175.879 5.84095 175.866 5.85428C175.406 6.37291 174.991 6.92426 174.626 7.50711C173.433 9.40956 172.757 11.6343 172.757 14.0372C172.757 16.4426 173.433 18.6649 174.63 20.5698C175.077 20.2075 175.482 19.8052 175.843 19.369C176.106 19.0527 176.348 18.7134 176.562 18.362C175.955 17.0485 175.622 15.5859 175.622 14.0372C175.622 8.00514 180.67 3.31566 187.355 3.31566C194.038 3.31566 199.086 8.00514 199.086 14.0372C199.086 20.0681 194.038 24.7613 187.355 24.7613C184.378 24.7613 181.725 23.8294 179.7 22.2651C180.125 21.7925 180.511 21.292 180.853 20.7625C182.13 18.8152 182.85 16.5226 182.85 14.0336C182.85 11.5459 182.127 9.25446 180.853 7.30596C180.089 7.92153 179.437 8.64253 178.924 9.4544C179.608 10.8358 179.985 12.3844 179.985 14.0312C179.985 15.6816 179.602 17.2266 178.924 18.6104C178.204 20.0827 175.176 24.7613 168.252 24.7613ZM187.353 1C183.652 1 180.334 2.14147 177.802 4.06089C175.267 2.13905 171.953 1 168.252 1C160 1 153.656 6.66616 153.656 14.0372C153.656 21.4071 160 27.0769 168.252 27.0769C171.953 27.0769 175.267 25.9355 177.802 24.0136C180.334 25.9355 183.652 27.0769 187.353 27.0769C195.603 27.0769 201.947 21.4096 201.947 14.0372C201.951 6.66373 195.607 1 187.353 1Z" fill="white"/>
<path fill-rule="evenodd" clip-rule="evenodd" d="M168.252 24.7613C161.569 24.7613 156.521 20.0718 156.521 14.0372C156.521 8.00514 161.569 3.31566 168.252 3.31566C171.227 3.31566 173.879 4.24629 175.904 5.81187C175.891 5.82641 175.879 5.84095 175.866 5.85428C175.406 6.37291 174.991 6.92426 174.626 7.50711C173.433 9.40957 172.757 11.6343 172.757 14.0372C172.757 16.4426 173.433 18.6649 174.63 20.5698C175.077 20.2075 175.482 19.8052 175.843 19.369C176.106 19.0527 176.348 18.7134 176.562 18.362C175.955 17.0485 175.622 15.5859 175.622 14.0372C175.622 8.00514 180.67 3.31566 187.355 3.31566C194.038 3.31566 199.086 8.00514 199.086 14.0372C199.086 20.0681 194.038 24.7613 187.355 24.7613C184.378 24.7613 181.725 23.8294 179.7 22.2651C180.125 21.7925 180.511 21.292 180.853 20.7625C182.13 18.8152 182.85 16.5226 182.85 14.0336C182.85 11.5459 182.127 9.25446 180.853 7.30596C180.089 7.92153 179.437 8.64253 178.924 9.4544C179.608 10.8358 179.985 12.3844 179.985 14.0312C179.985 15.6816 179.602 17.2266 178.924 18.6104C178.204 20.0827 175.176 24.7613 168.252 24.7613ZM187.353 1C183.652 1 180.334 2.14147 177.802 4.06089C175.267 2.13905 171.953 1 168.252 1C160 1 153.656 6.66616 153.656 14.0372C153.656 21.4071 160 27.0769 168.252 27.0769C171.953 27.0769 175.267 25.9355 177.802 24.0136C180.334 25.9355 183.652 27.0769 187.353 27.0769C195.603 27.0769 201.947 21.4096 201.947 14.0372C201.951 6.66373 195.607 1 187.353 1Z" stroke="white" stroke-width="0.658442"/>
</svg>
