<svg width="435" height="93" viewBox="0 0 435 93" fill="none" xmlns="http://www.w3.org/2000/svg">
<path d="M191.827 5.67551C239.602 6.27257 292.661 8.42197 344.801 14.8702C361.109 16.9002 376.958 19.2885 391.888 23.2291C398.549 25.0203 405.21 27.0503 411.182 29.4385C415.546 31.2297 419.221 33.618 421.977 36.1256C428.638 42.0963 426.801 48.1863 416.695 52.6045C410.723 55.2316 404.061 57.381 396.941 59.1722C376.728 64.4264 355.137 67.8893 333.317 70.6358C315.171 72.9046 296.566 73.8599 277.961 74.457C275.664 74.5764 273.367 74.457 271.529 74.9346C269.922 75.2929 268.084 76.3676 268.084 77.0841C268.314 78.0394 270.151 78.9947 271.759 79.4723C273.367 79.95 275.664 79.7111 277.501 79.7111C307.821 79.8305 336.992 76.7258 365.244 71.5911C379.025 69.0834 392.577 66.0981 405.899 62.874C412.79 61.2022 419.451 58.6946 424.964 55.9481C435.087 48.8208 435.587 43.3208 432.543 34.5733C429.098 30.5132 423.585 27.2891 417.154 24.5426C405.44 19.6467 392.117 16.542 378.336 14.0344C351.462 9.13847 323.669 6.27255 295.417 4.24255C261.883 1.73489 228.347 0.421349 194.353 0.0631104C153.928 -0.295128 113.502 0.779602 73.9948 5.67551C58.1461 7.58611 42.9863 10.452 28.9752 14.7508C19.7876 17.6167 15.1937 20.8409 8.76239 25.3785C-1.57367 32.6627 -2.72216 40.3051 5.08731 48.4251C9.45143 52.9628 11.9781 56.6645 19.0985 60.0081C37.9331 68.8446 59.9837 74.8152 83.4121 79.5917C113.961 85.8012 145.888 89.1447 178.275 91.1747C219.849 93.8018 261.423 93.4435 302.997 91.0553C338.829 89.0253 374.202 85.5623 408.196 78.8752C412.56 78.0394 416.695 76.9646 420.829 75.8899C423.815 75.1735 425.653 74.0987 424.504 72.3076C423.585 70.994 420.599 70.5164 416.924 71.4717C395.563 76.487 372.823 78.9946 350.084 81.5023C323.44 84.3682 296.336 85.9206 269.233 86.8759C220.998 88.4282 173.221 86.5176 126.364 80.547C101.099 77.3229 76.7509 72.7852 54.0116 65.9787C42.2973 62.5157 31.272 58.4557 21.8547 53.321C18.4094 51.4104 15.1937 49.261 12.4374 46.9921C4.16852 39.9468 5.54672 32.9015 16.5719 27.0503C22.0844 24.065 28.7455 21.5573 35.6362 19.2885C50.7958 14.3926 67.7931 11.8849 85.2496 10.0937C118.325 6.63078 152.09 5.55609 191.827 5.67551Z" fill="#FF9C57"/>
</svg>
