<svg width="214" height="66" viewBox="0 0 214 66" fill="none" xmlns="http://www.w3.org/2000/svg">
<path d="M95.0849 4.02777C118.321 4.4515 144.127 5.97688 169.486 10.5531C177.418 11.9937 185.126 13.6886 192.387 16.4852C195.627 17.7563 198.867 19.197 201.771 20.8919C203.894 22.163 205.681 23.8579 207.022 25.6376C210.262 29.8748 209.368 34.1967 204.453 37.3322C201.548 39.1966 198.308 40.722 194.845 41.9932C185.014 45.7219 174.513 48.1795 163.9 50.1286C155.075 51.7388 146.026 52.4167 136.978 52.8404C135.86 52.9252 134.743 52.8404 133.85 53.1794C133.068 53.4336 132.174 54.1963 132.174 54.7048C132.286 55.3828 133.179 56.0607 133.961 56.3997C134.743 56.7387 135.86 56.5692 136.754 56.5692C151.5 56.6539 165.688 54.4506 179.429 50.8066C186.132 49.0269 192.723 46.9083 199.202 44.6203C202.553 43.4338 205.793 41.6542 208.474 39.7051C214.283 35.5526 215.512 30.0442 212.161 24.5359C210.485 21.6546 207.804 19.3665 204.676 17.4174C198.979 13.9428 192.499 11.7395 185.796 9.95987C172.726 6.48536 159.209 4.45149 145.468 3.01084C129.158 1.23121 112.847 0.299019 96.3138 0.0447845C76.6522 -0.20945 56.9906 0.553261 37.7758 4.02777C30.0676 5.38368 22.6945 7.41752 15.8799 10.4683C11.4114 12.5022 7.38971 14.7903 4.26173 18.0106C-0.765387 23.18 -1.32396 28.6036 2.4743 34.3662C4.59686 37.5865 7.61314 40.2135 11.0763 42.5864C20.2368 48.8575 30.9613 53.0947 42.3561 56.4844C57.214 60.8911 72.7422 63.264 88.4938 64.7046C108.714 66.569 128.934 66.3148 149.154 64.6199C166.582 63.1792 183.785 60.7217 200.319 55.976C202.442 55.3828 204.453 54.6201 206.463 53.8574C207.916 53.3489 208.809 52.5862 208.251 51.315C207.804 50.3829 206.352 50.0439 204.564 50.7218C194.175 54.2811 183.115 56.0607 172.056 57.8403C159.097 59.8742 145.915 60.9759 132.732 61.6538C109.273 62.7555 86.0361 61.3996 63.2465 57.1624C50.958 54.8743 39.1164 51.654 28.0567 46.8236C22.3593 44.366 16.9971 41.4847 12.4168 37.8407C10.7411 36.4848 9.17711 34.9594 7.83654 33.3493C3.81485 28.3493 4.48515 23.3495 9.84741 19.197C12.5285 17.0784 15.7682 15.2988 19.1196 13.6886C26.4927 10.2141 34.7595 8.43446 43.2498 7.1633C59.3365 4.70572 75.7584 3.94303 95.0849 4.02777Z" fill="#FF9C57"/>
</svg>
