<svg width="117" height="62" viewBox="0 0 117 62" fill="none" xmlns="http://www.w3.org/2000/svg">
<path d="M5.06963 37.5508L5.06883 37.549C3.37773 33.8073 3.85431 30.033 6.38737 27.2995L6.38811 27.2987C7.92519 25.6296 9.64087 24.2626 11.4781 23.1217L11.4825 23.119C16.7289 19.7526 22.3392 17.5298 28.0258 15.763L5.06963 37.5508ZM5.06963 37.5508C5.77783 39.1412 6.71651 40.6425 7.81907 41.7601C9.3576 43.2785 11.0776 44.5734 12.8062 45.7209C16.6675 48.2364 20.7731 49.7656 25.0238 51.0717C38.6085 55.2188 52.4402 56.6035 64.9097 56.9884C75.2769 57.0651 84.0674 56.3725 92.6707 54.149L92.6724 54.1486C97.2127 52.9986 101.6 51.3966 105.506 48.2831C107.295 46.8287 109.012 45.2319 110.428 43.3385L110.43 43.3358C113.225 39.6749 113.583 35.2719 111.474 30.8349C110.762 29.3901 109.933 28.022 109.046 26.807C106.61 23.5296 103.757 20.9344 100.716 18.7158L100.715 18.7146C94.8088 14.3508 88.482 11.439 81.9072 9.36802C69.7067 5.53057 57.2656 4.30184 44.7008 5.29986C37.6296 5.91512 30.5681 6.91413 23.6311 8.75586C17.6844 10.3746 11.7879 11.9817 6.2527 15.1882C5.72098 15.5275 5.18085 15.6485 4.70721 15.5031C4.22314 15.3546 3.89725 14.9553 3.75277 14.4454L3.75269 14.4454L3.75075 14.438C3.58414 13.7965 3.62642 13.2471 3.84897 12.783C4.06783 12.3266 4.44167 11.9933 4.86617 11.7409L4.8707 11.738C5.94427 11.0491 7.04022 10.3459 8.20068 9.79709C17.1285 5.46226 26.4114 3.22079 35.7982 1.90807C46.6914 0.363439 57.5925 0.130626 68.4986 1.83175C76.9858 3.14494 85.3684 5.31015 93.3955 9.33767L93.3959 9.33786C99.5458 12.4328 105.351 16.3102 110.313 22.0564L110.313 22.0565C112.192 24.235 113.838 26.657 114.996 29.6309C117.074 34.9627 116.77 40.0046 114.013 44.801C112.302 47.7823 110.103 49.8953 107.68 51.7607L107.678 51.7624C103.978 54.5645 99.9769 56.4307 95.8012 57.6734C85.426 60.847 74.8192 61.5407 64.235 61.3092L64.2335 61.3092C55.3326 61.0776 46.5499 60.2286 37.7658 58.6073C30.3659 57.2947 23.0718 55.4393 16.0128 52.2648C12.389 50.6372 8.8634 48.6121 5.75924 45.4097L5.75665 45.4069C4.04982 43.6077 2.57843 41.4864 1.65815 38.8107C-0.177193 33.7054 0.488472 28.5657 3.69853 24.6828C5.15799 22.8881 6.92838 21.2402 8.77238 20.1359L8.77271 20.1357C12.2623 18.051 15.8166 16.118 19.4346 14.4929L19.4348 14.4929C26.852 11.1653 34.526 9.14615 42.5122 9.22347C42.6161 9.22338 42.7292 9.21503 42.8619 9.20523L42.8629 9.20516C42.9916 9.19565 43.1373 9.18495 43.2836 9.18495C43.5733 9.18495 43.9189 9.22565 44.2184 9.4453C44.4632 9.62476 44.7162 9.88615 44.9179 10.188C45.1186 10.4886 45.2831 10.8515 45.3204 11.2344L45.322 11.2513V11.2684C45.322 11.6005 45.1588 11.959 44.9709 12.2419C44.7824 12.526 44.5235 12.8025 44.2507 12.9559C43.945 13.1489 43.6143 13.2134 43.3113 13.244C43.1786 13.2575 43.0429 13.2651 42.915 13.2722C42.8961 13.2733 42.8773 13.2743 42.8588 13.2754C42.7111 13.2838 42.5718 13.2928 42.4351 13.3104L42.4267 13.3115M5.06963 37.5508L42.4267 13.3115M42.4267 13.3115L42.4182 13.3121M42.4267 13.3115L42.4182 13.3121M42.4182 13.3121C37.5648 13.6966 32.7323 14.3104 28.0265 15.7628L42.4182 13.3121Z" fill="#FF9C57" stroke="#FF9C57" stroke-width="0.7"/>
</svg>
