<svg width="122" height="64" viewBox="0 0 122 64" fill="none" xmlns="http://www.w3.org/2000/svg">
<path d="M54.2073 3.90572C67.4542 4.3166 82.166 5.79576 96.623 10.2333C101.145 11.6303 105.539 13.2738 109.679 15.9856C111.526 17.2183 113.373 18.6153 115.029 20.2588C116.239 21.4914 117.258 23.135 118.022 24.8607C119.869 28.9695 119.359 33.1604 116.557 36.201C114.901 38.0088 113.054 39.488 111.08 40.7207C105.475 44.3364 99.4889 46.7195 93.4386 48.6096C88.4073 50.1709 83.2486 50.8283 78.09 51.2392C77.4531 51.3214 76.8162 51.2392 76.3067 51.5679C75.8609 51.8144 75.3514 52.554 75.3514 53.0471C75.4151 53.7045 75.9246 54.3619 76.3704 54.6906C76.8162 55.0193 77.4531 54.855 77.9626 54.855C86.3693 54.9371 94.4576 52.8006 102.291 49.267C106.112 47.5413 109.87 45.4869 113.564 43.2681C115.474 42.1177 117.321 40.392 118.85 38.5019C122.162 34.4753 122.862 29.1338 120.951 23.7924C119.996 20.9984 118.468 18.7796 116.684 16.8896C113.436 13.5203 109.743 11.3838 105.921 9.65806C98.4699 6.28883 90.7637 4.3166 82.9302 2.9196C73.6319 1.1939 64.3335 0.289955 54.9078 0.0434265C43.6989 -0.203102 32.4899 0.536495 21.5357 3.90572C17.1413 5.22054 12.938 7.19275 9.05305 10.1511C6.50556 12.1233 4.21282 14.3421 2.42958 17.4648C-0.436342 22.4775 -0.754782 27.7368 1.41058 33.3248C2.62064 36.4475 4.3402 38.995 6.31451 41.2959C11.5369 47.3769 17.6508 51.4857 24.1469 54.7728C32.6173 59.046 41.4698 61.3469 50.4497 62.7439C61.9771 64.5518 73.5045 64.3052 85.0319 62.6617C94.9671 61.2647 104.775 58.8816 114.201 54.2797C115.411 53.7045 116.557 52.9649 117.703 52.2253C118.531 51.7323 119.041 50.9927 118.722 49.76C118.468 48.8561 117.64 48.5274 116.621 49.1848C110.698 52.6362 104.393 54.3619 98.0878 56.0876C90.7 58.0598 83.185 59.1281 75.6699 59.7855C62.2956 60.8538 49.0486 59.539 36.0564 55.4302C29.0508 53.2114 22.3 50.0887 15.995 45.4047C12.7469 43.0216 9.68992 40.2276 7.07874 36.694C6.12343 35.3792 5.23181 33.9 4.46756 32.3387C2.17482 27.4903 2.55696 22.6419 5.61394 18.6153C7.14244 16.5609 8.98936 14.8352 10.9 13.2738C15.1033 9.90458 19.8162 8.17887 24.6564 6.94623C33.8274 4.56312 43.1894 3.82355 54.2073 3.90572Z" fill="#FF9C57"/>
</svg>
