<svg width="171" height="67" viewBox="0 0 171 67" fill="none" xmlns="http://www.w3.org/2000/svg">
<path d="M94.6459 62.9112C76.1518 62.4811 55.6125 60.9326 35.429 56.287C29.1161 54.8246 22.981 53.104 17.2016 50.2651C14.6231 48.9746 12.0445 47.5121 9.73274 45.7916C8.04338 44.5012 6.62079 42.7806 5.55382 40.974C2.97531 36.6726 3.68661 32.2852 7.59883 29.1021C9.91061 27.2095 12.4891 25.661 15.2455 24.3706C23.0699 20.5853 31.4279 18.0905 39.8747 16.1118C46.8989 14.4773 54.101 13.7891 61.3031 13.3589C62.1922 13.2729 63.0813 13.3589 63.7927 13.0148C64.4151 12.7568 65.1264 11.9825 65.1264 11.4663C65.0375 10.7781 64.3261 10.0899 63.7037 9.74576C63.0813 9.40165 62.1922 9.57371 61.4809 9.57371C49.7442 9.48768 38.4521 11.7244 27.5156 15.4236C22.1808 17.2302 16.9348 19.3809 11.7778 21.7037C9.1104 22.9081 6.53183 24.7147 4.39789 26.6933C-0.225647 30.9087 -1.2037 36.5005 1.46373 42.0924C2.79744 45.0173 4.9314 47.3401 7.42101 49.3187C11.9556 52.8459 17.1127 55.0826 22.4475 56.8892C32.8505 60.4164 43.6091 62.4811 54.5456 63.9436C67.5271 65.7501 80.5085 66.6964 93.6679 66.9545C109.317 67.2126 124.966 66.4384 140.259 62.9112C146.394 61.5347 152.262 59.4701 157.686 56.3731C161.243 54.3084 164.444 51.9856 166.933 48.7165C170.934 43.4688 171.379 37.963 168.356 32.1131C166.666 28.844 164.266 26.1772 161.509 23.7684C154.218 17.4023 145.683 13.1009 136.613 9.65973C124.788 5.18626 112.429 2.77747 99.8919 1.31499C83.7984 -0.57763 67.7049 -0.31954 51.6114 1.40102C37.7408 2.8635 24.048 5.35832 10.8887 10.1759C9.19931 10.7781 7.59885 11.5524 5.9984 12.3266C4.8425 12.8428 4.13116 13.617 4.57573 14.9075C4.93138 15.8538 6.08727 16.1979 7.50989 15.5097C15.7789 11.8965 24.5815 10.0899 33.384 8.28328C43.698 6.21861 54.1899 5.10024 64.6818 4.41201C83.3538 3.29365 101.848 4.6701 119.986 8.97151C129.767 11.2943 139.192 14.5633 147.994 19.467C152.529 21.9618 156.797 24.8867 160.443 28.5859C161.776 29.9624 163.021 31.5109 164.088 33.1455C167.289 38.2211 166.755 43.2968 162.488 47.5121C160.354 49.6629 157.775 51.4694 155.108 53.104C149.239 56.6311 142.66 58.4377 135.902 59.7282C123.098 62.223 110.028 62.9972 94.6459 62.9112Z" fill="#FF9C57"/>
</svg>
