<svg width="1920" height="628" viewBox="0 0 1920 628" fill="none" xmlns="http://www.w3.org/2000/svg">
<circle cx="1539.5" cy="618.5" r="8" fill="white" stroke="#1E1E1E" stroke-width="3"/>
<mask id="path-2-inside-1_5_3251" fill="white">
<path d="M1003 494.073C1003 478.016 1016.02 465 1032.07 465H1511.93C1527.98 465 1541 478.016 1541 494.073V610H1032.07C1016.02 610 1003 596.984 1003 580.928V494.073Z"/>
</mask>
<path fill-rule="evenodd" clip-rule="evenodd" d="M1003 494.073C1003 492.787 1003.08 491.519 1003.23 490.273L1003.3 490.282C1003.1 491.52 1003 492.786 1003 494.073ZM1005.6 483.106L1005.04 482.875C1005.96 480.451 1007.16 478.17 1008.62 476.073L1009.83 477.005C1008.13 478.842 1006.7 480.893 1005.6 483.106ZM1021.8 469.268C1019.52 470.054 1017.37 471.094 1015.41 472.35L1015.16 472.024L1013.8 470.264C1015.07 469.15 1016.43 468.137 1017.87 467.237C1018.68 466.73 1019.52 466.259 1020.37 465.826L1020.45 466.021L1021.44 468.391L1021.8 469.268ZM1028.6 467.752L1028.44 466.518L1028.11 463.974L1028 463.132C1029.33 462.849 1030.69 462.649 1032.07 462.537C1032.92 462.47 1033.77 462.435 1034.64 462.435H1036.36V463.718V466.283V467.565H1032.07C1030.9 467.565 1029.74 467.629 1028.6 467.752ZM1044.93 467.565H1053.49V466.283V463.718V462.435H1044.93V463.718V466.283V467.565ZM1062.06 462.435V463.718V466.283V467.565H1070.63V466.283V463.718V462.435H1062.06ZM1079.2 462.435V463.718V466.283V467.565H1087.77V466.283V463.718V462.435H1079.2ZM1096.34 462.435V463.718V466.283V467.565H1104.91V466.283V463.718V462.435H1096.34ZM1113.48 462.435V463.718V466.283V467.565H1122.05V466.283V463.718V462.435H1113.48ZM1130.61 462.435V463.718V466.283V467.565H1139.18V466.283V463.718V462.435H1130.61ZM1147.75 462.435V463.718V466.283V467.565H1156.32V466.283V463.718V462.435H1147.75ZM1164.89 462.435V463.718V466.283V467.565H1173.46V466.283V463.718V462.435H1164.89ZM1182.03 462.435V463.718V466.283V467.565H1190.6V466.283V463.718V462.435H1182.03ZM1199.16 462.435V463.718V466.283V467.565H1207.73V466.283V463.718V462.435H1199.16ZM1216.3 462.435V463.718V466.283V467.565H1224.87V466.283V463.718V462.435H1216.3ZM1233.44 462.435V463.718V466.283V467.565H1242.01V466.283V463.718V462.435H1233.44ZM1250.58 462.435V463.718V466.283V467.565H1259.15V466.283V463.718V462.435H1250.58ZM1267.72 462.435V463.718V466.283V467.565H1276.28V466.283V463.718V462.435H1267.72ZM1284.85 462.435V463.718V466.283V467.565H1293.42V466.283V463.718V462.435H1284.85ZM1301.99 462.435V463.718V466.283V467.565H1310.56V466.283V463.718V462.435H1301.99ZM1319.13 462.435V463.718V466.283V467.565H1327.7V466.283V463.718V462.435H1319.13ZM1336.27 462.435V463.718V466.283V467.565H1344.84V466.283V463.718V462.435H1336.27ZM1353.4 462.435V463.718V466.283V467.565H1361.97V466.283V463.718V462.435H1353.4ZM1370.54 462.435V463.718V466.283V467.565H1379.11V466.283V463.718V462.435H1370.54ZM1387.68 462.435V463.718V466.283V467.565H1396.25V466.283V463.718V462.435H1387.68ZM1404.82 462.435V463.718V466.283V467.565H1413.39V466.283V463.718V462.435H1404.82ZM1421.95 462.435V463.718V466.283V467.565H1430.52V466.283V463.718V462.435H1421.95ZM1439.09 462.435V463.718V466.283V467.565H1447.66V466.283V463.718V462.435H1439.09ZM1456.23 462.435V463.718V466.283V467.565H1464.8V466.283V463.718V462.435H1456.23ZM1473.37 462.435V463.718V466.283V467.565H1481.94V466.283V463.718V462.435H1473.37ZM1490.51 462.435V463.718V466.283V467.565H1499.07V466.283V463.718V462.435H1490.51ZM1507.64 462.435V463.718V466.283V467.565H1511.93C1512.37 467.565 1512.81 467.576 1513.24 467.597C1513.97 467.633 1514.68 467.697 1515.39 467.79L1515.56 466.518L1515.89 463.974L1516.06 462.702C1515.24 462.595 1514.41 462.52 1513.57 462.477C1513.03 462.449 1512.48 462.435 1511.93 462.435H1507.64ZM1522.56 468.391L1523.55 466.021L1524.04 464.837C1526.61 465.904 1529.01 467.3 1531.19 468.973L1530.41 469.99L1528.84 472.024L1528.06 473.041C1526.24 471.638 1524.23 470.469 1522.07 469.576L1522.56 468.391ZM1539.98 482.453L1537.61 483.435L1536.42 483.927C1535.87 482.581 1535.2 481.29 1534.44 480.066C1533.98 479.332 1533.49 478.621 1532.96 477.937L1533.98 477.155L1536.01 475.592L1537.03 474.811C1537.97 476.035 1538.82 477.33 1539.58 478.688C1540.17 479.743 1540.7 480.836 1541.16 481.961L1539.98 482.453ZM1539.48 490.441L1542.03 490.11L1543.3 489.944C1543.47 491.296 1543.57 492.674 1543.57 494.073V498.213H1542.28H1539.72H1538.43V494.073C1538.43 492.897 1538.36 491.74 1538.21 490.607L1539.48 490.441ZM1538.43 506.493V514.774H1539.72H1542.28H1543.57V506.493H1542.28H1539.72H1538.43ZM1543.57 523.054H1542.28H1539.72H1538.43V531.335H1539.72H1542.28H1543.57V523.054ZM1543.57 539.616H1542.28H1539.72H1538.43V547.896H1539.72H1542.28H1543.57V539.616ZM1543.57 556.177H1542.28H1539.72H1538.43V564.457H1539.72H1542.28H1543.57V556.177ZM1543.57 572.738H1542.28H1539.72H1538.43V581.018H1539.72H1542.28H1543.57V572.738ZM1543.57 589.299H1542.28H1539.72H1538.43V597.579H1539.72H1542.28H1543.57V589.299ZM1543.57 605.86H1542.28H1539.72H1538.43V610H1539.72H1541H1542.28H1543.57V605.86Z" fill="#1E1E1E" mask="url(#path-2-inside-1_5_3251)"/>
<mask id="path-4-inside-2_5_3251" fill="white">
<path d="M894 444.928C894 460.984 880.984 474 864.928 474H335.072C319.016 474 306 460.984 306 444.928V197H864.928C880.984 197 894 210.016 894 226.073V444.928Z"/>
</mask>
<path fill-rule="evenodd" clip-rule="evenodd" d="M894 444.928C894 446.215 893.899 447.48 893.705 448.718L893.774 448.727C893.923 447.482 894 446.214 894 444.928ZM891.403 455.894L891.961 456.126C891.044 458.549 889.838 460.83 888.384 462.927L887.172 461.995C888.87 460.158 890.298 458.108 891.403 455.894ZM875.201 469.732C877.483 468.946 879.627 467.906 881.594 466.65L881.845 466.977L883.197 468.737C881.926 469.85 880.565 470.863 879.126 471.764C878.318 472.27 877.484 472.741 876.628 473.174L876.547 472.979L875.565 470.609L875.201 469.732ZM868.398 471.248L868.559 472.483L868.891 475.026L869 475.868C867.672 476.151 866.312 476.352 864.928 476.463C864.081 476.531 863.226 476.565 862.362 476.565H860.655V475.283V472.718V471.435H864.928C866.102 471.435 867.26 471.371 868.398 471.248ZM852.108 471.435H843.562V472.718V475.283V476.565H852.108V475.283V472.718V471.435ZM835.016 476.565V475.283V472.718V471.435H826.47V472.718V475.283V476.565H835.016ZM817.924 476.565V475.283V472.718V471.435H809.378V472.718V475.283V476.565H817.924ZM800.832 476.565V475.283V472.718V471.435H792.286V472.718V475.283V476.565H800.832ZM783.74 476.565V475.283V472.718V471.435H775.194V472.718V475.283V476.565H783.74ZM766.648 476.565V475.283V472.718V471.435H758.102V472.718V475.283V476.565H766.648ZM749.556 476.565V475.283V472.718V471.435H741.01V472.718V475.283V476.565H749.556ZM732.464 476.565V475.283V472.718V471.435H723.918V472.718V475.283V476.565H732.464ZM715.372 476.565V475.283V472.718V471.435H706.826V472.718V475.283V476.565H715.372ZM698.28 476.565V475.283V472.718V471.435H689.734V472.718V475.283V476.565H698.28ZM681.187 476.565V475.283V472.718V471.435H672.641V472.718V475.283V476.565H681.187ZM664.095 476.565V475.283V472.718V471.435H655.549V472.718V475.283V476.565H664.095ZM647.003 476.565V475.283V472.718V471.435H638.457V472.718V475.283V476.565H647.003ZM629.911 476.565V475.283V472.718V471.435H621.365V472.718V475.283V476.565H629.911ZM612.819 476.565V475.283V472.718V471.435H604.273V472.718V475.283V476.565H612.819ZM595.727 476.565V475.283V472.718V471.435H587.181V472.718V475.283V476.565H595.727ZM578.635 476.565V475.283V472.718V471.435H570.089V472.718V475.283V476.565H578.635ZM561.543 476.565V475.283V472.718V471.435H552.997V472.718V475.283V476.565H561.543ZM544.451 476.565V475.283V472.718V471.435H535.905V472.718V475.283V476.565H544.451ZM527.359 476.565V475.283V472.718V471.435H518.812V472.718V475.283V476.565H527.359ZM510.266 476.565V475.283V472.718V471.435H501.72V472.718V475.283V476.565H510.266ZM493.174 476.565V475.283V472.718V471.435H484.628V472.718V475.283V476.565H493.174ZM476.082 476.565V475.283V472.718V471.435H467.536V472.718V475.283V476.565H476.082ZM458.99 476.565V475.283V472.718V471.435H450.444V472.718V475.283V476.565H458.99ZM441.898 476.565V475.283V472.718V471.435H433.352V472.718V475.283V476.565H441.898ZM424.806 476.565V475.283V472.718V471.435H416.26V472.718V475.283V476.565H424.806ZM407.714 476.565V475.283V472.718V471.435H399.168V472.718V475.283V476.565H407.714ZM390.622 476.565V475.283V472.718V471.435H382.076V472.718V475.283V476.565H390.622ZM373.53 476.565V475.283V472.718V471.435H364.984V472.718V475.283V476.565H373.53ZM356.438 476.565V475.283V472.718V471.435H347.891V472.718V475.283V476.565H356.438ZM339.345 476.565V475.283V472.718V471.435H335.072C334.632 471.435 334.193 471.424 333.758 471.403C333.033 471.368 332.315 471.303 331.607 471.211L331.441 472.483L331.109 475.026L330.944 476.298C331.765 476.405 332.596 476.481 333.436 476.524C333.978 476.551 334.524 476.565 335.072 476.565H339.345ZM324.435 470.609L323.453 472.979L322.961 474.164C320.388 473.096 317.987 471.7 315.811 470.028L316.592 469.011L318.155 466.977L318.937 465.96C320.761 467.362 322.773 468.531 324.927 469.425L324.435 470.609ZM313.023 461.845L310.989 463.408L309.972 464.19C309.149 463.119 308.393 461.993 307.71 460.82C307.005 459.609 306.379 458.346 305.836 457.039L307.021 456.548L309.391 455.565L310.576 455.074C311.022 456.15 311.538 457.192 312.117 458.192C312.696 459.192 313.339 460.151 314.04 461.063L313.023 461.845ZM307.518 448.559L304.974 448.891L303.702 449.057C303.526 447.704 303.435 446.326 303.435 444.928V440.5H304.717H307.283H308.565V444.928C308.565 446.103 308.642 447.26 308.789 448.393L307.518 448.559ZM308.565 431.646V422.791H307.283H304.717H303.435V431.646H304.717H307.283H308.565ZM303.435 413.937H304.717H307.283H308.565V405.082H307.283H304.717H303.435V413.937ZM303.435 396.228H304.717H307.283H308.565V387.373H307.283H304.717H303.435V396.228ZM303.435 378.519H304.717H307.283H308.565V369.664H307.283H304.717H303.435V378.519ZM303.435 360.809H304.717H307.283H308.565V351.955H307.283H304.717H303.435V360.809ZM303.435 343.1H304.717H307.283H308.565V334.246H307.283H304.717H303.435V343.1ZM303.435 325.391H304.717H307.283H308.565V316.537H307.283H304.717H303.435V325.391ZM303.435 307.682H304.717H307.283H308.565V298.828H307.283H304.717H303.435V307.682ZM303.435 289.973H304.717H307.283H308.565V281.118H307.283H304.717H303.435V289.973ZM303.435 272.264H304.717H307.283H308.565V263.409H307.283H304.717H303.435V272.264ZM303.435 254.555H304.717H307.283H308.565V245.7H307.283H304.717H303.435V254.555ZM303.435 236.846H304.717H307.283H308.565V227.991H307.283H304.717H303.435V236.846ZM303.435 219.137H304.717H307.283H308.565V210.282H307.283H304.717H303.435V219.137ZM303.435 201.427H304.717H307.283H308.565V197H307.283H306H304.717H303.435V201.427Z" fill="#1E1E1E" mask="url(#path-4-inside-2_5_3251)"/>
<mask id="path-6-inside-3_5_3251" fill="white">
<path d="M1991 29.0725C1991 13.0162 1977.98 0 1961.93 0H1413.07C1397.02 0 1384 13.0162 1384 29.0725V205H1961.93C1977.98 205 1991 191.984 1991 175.928V29.0725Z"/>
</mask>
<path fill-rule="evenodd" clip-rule="evenodd" d="M1991 29.0725C1991 27.7865 1990.92 26.5185 1990.77 25.2727L1990.7 25.2818C1990.9 26.5198 1991 27.7854 1991 29.0725ZM1988.4 18.106L1988.96 17.8745C1988.04 15.4514 1986.84 13.1702 1985.38 11.0733L1984.17 12.0048C1985.87 13.842 1987.3 15.8926 1988.4 18.106ZM1972.2 4.26779C1974.48 5.05376 1976.63 6.09391 1978.59 7.35035L1978.84 7.02339L1980.2 5.2634C1978.93 4.15015 1977.57 3.13705 1976.13 2.23643C1975.32 1.73005 1974.48 1.25922 1973.63 0.826136L1973.55 1.02126L1972.56 3.39081L1972.2 4.26779ZM1965.4 2.7521L1965.56 1.51756L1965.89 -1.02611L1966 -1.86769C1964.67 -2.15136 1963.31 -2.35162 1961.93 -2.46273C1961.08 -2.53062 1960.23 -2.56522 1959.36 -2.56522H1957.64V-1.28261V1.28261V2.56522H1961.93C1963.1 2.56522 1964.26 2.6287 1965.4 2.7521ZM1949.06 2.56522H1940.49V1.28261V-1.28261V-2.56522H1949.06V-1.28261V1.28261V2.56522ZM1931.91 -2.56522V-1.28261V1.28261V2.56522H1923.34V1.28261V-1.28261V-2.56522H1931.91ZM1914.76 -2.56522V-1.28261V1.28261V2.56522H1906.18V1.28261V-1.28261V-2.56522H1914.76ZM1897.61 -2.56522V-1.28261V1.28261V2.56522H1889.03V1.28261V-1.28261V-2.56522H1897.61ZM1880.46 -2.56522V-1.28261V1.28261V2.56522H1871.88V1.28261V-1.28261V-2.56522H1880.46ZM1863.31 -2.56522V-1.28261V1.28261V2.56522H1854.73V1.28261V-1.28261V-2.56522H1863.31ZM1846.15 -2.56522V-1.28261V1.28261V2.56522H1837.58V1.28261V-1.28261V-2.56522H1846.15ZM1829 -2.56522V-1.28261V1.28261V2.56522H1820.43V1.28261V-1.28261V-2.56522H1829ZM1811.85 -2.56522V-1.28261V1.28261V2.56522H1803.27V1.28261V-1.28261V-2.56522H1811.85ZM1794.7 -2.56522V-1.28261V1.28261V2.56522H1786.12V1.28261V-1.28261V-2.56522H1794.7ZM1777.55 -2.56522V-1.28261V1.28261V2.56522H1768.97V1.28261V-1.28261V-2.56522H1777.55ZM1760.39 -2.56522V-1.28261V1.28261V2.56522H1751.82V1.28261V-1.28261V-2.56522H1760.39ZM1743.24 -2.56522V-1.28261V1.28261V2.56522H1734.67V1.28261V-1.28261V-2.56522H1743.24ZM1726.09 -2.56522V-1.28261V1.28261V2.56522H1717.52V1.28261V-1.28261V-2.56522H1726.09ZM1708.94 -2.56522V-1.28261V1.28261V2.56522H1700.36V1.28261V-1.28261V-2.56522H1708.94ZM1691.79 -2.56522V-1.28261V1.28261V2.56522H1683.21V1.28261V-1.28261V-2.56522H1691.79ZM1674.64 -2.56522V-1.28261V1.28261V2.56522H1666.06V1.28261V-1.28261V-2.56522H1674.64ZM1657.48 -2.56522V-1.28261V1.28261V2.56522H1648.91V1.28261V-1.28261V-2.56522H1657.48ZM1640.33 -2.56522V-1.28261V1.28261V2.56522H1631.76V1.28261V-1.28261V-2.56522H1640.33ZM1623.18 -2.56522V-1.28261V1.28261V2.56522H1614.61V1.28261V-1.28261V-2.56522H1623.18ZM1606.03 -2.56522V-1.28261V1.28261V2.56522H1597.45V1.28261V-1.28261V-2.56522H1606.03ZM1588.88 -2.56522V-1.28261V1.28261V2.56522H1580.3V1.28261V-1.28261V-2.56522H1588.88ZM1571.73 -2.56522V-1.28261V1.28261V2.56522H1563.15V1.28261V-1.28261V-2.56522H1571.73ZM1554.57 -2.56522V-1.28261V1.28261V2.56522H1546V1.28261V-1.28261V-2.56522H1554.57ZM1537.42 -2.56522V-1.28261V1.28261V2.56522H1528.85V1.28261V-1.28261V-2.56522H1537.42ZM1520.27 -2.56522V-1.28261V1.28261V2.56522H1511.69V1.28261V-1.28261V-2.56522H1520.27ZM1503.12 -2.56522V-1.28261V1.28261V2.56522H1494.54V1.28261V-1.28261V-2.56522H1503.12ZM1485.97 -2.56522V-1.28261V1.28261V2.56522H1477.39V1.28261V-1.28261V-2.56522H1485.97ZM1468.82 -2.56522V-1.28261V1.28261V2.56522H1460.24V1.28261V-1.28261V-2.56522H1468.82ZM1451.66 -2.56522V-1.28261V1.28261V2.56522H1443.09V1.28261V-1.28261V-2.56522H1451.66ZM1434.51 -2.56522V-1.28261V1.28261V2.56522H1425.94V1.28261V-1.28261V-2.56522H1434.51ZM1417.36 -2.56522V-1.28261V1.28261V2.56522H1413.07C1412.63 2.56522 1412.19 2.57596 1411.76 2.59718C1411.03 2.63255 1410.32 2.69703 1409.61 2.7894L1409.44 1.51756L1409.11 -1.02611L1408.94 -2.29794C1409.77 -2.40512 1410.6 -2.48072 1411.44 -2.52356C1411.98 -2.55122 1412.52 -2.56522 1413.07 -2.56522H1417.36ZM1402.44 3.39081L1401.45 1.02126L1400.96 -0.163524C1398.39 0.903648 1395.99 2.30003 1393.81 3.97238L1394.59 4.98938L1396.16 7.02339L1396.94 8.0404C1398.76 6.6381 1400.77 5.46865 1402.93 4.57559L1402.44 3.39081ZM1391.02 12.1551L1388.99 10.5921L1387.97 9.81055C1387.15 10.8815 1386.39 12.007 1385.71 13.1806C1385.01 14.3918 1384.38 15.6543 1383.84 16.9613L1385.02 17.4526L1387.39 18.4352L1388.58 18.9265C1389.02 17.8497 1389.54 16.8085 1390.12 15.8083C1390.7 14.8081 1391.34 13.8491 1392.04 12.9367L1391.02 12.1551ZM1385.52 25.4412L1382.97 25.1094L1381.7 24.9435C1381.53 26.296 1381.43 27.6743 1381.43 29.0725V33.4706H1382.72H1385.28H1386.57V29.0725C1386.57 27.8967 1386.64 26.7402 1386.79 25.6071L1385.52 25.4412ZM1386.57 42.267V51.0634H1385.28H1382.72H1381.43V42.267H1382.72H1385.28H1386.57ZM1381.43 59.8598H1382.72H1385.28H1386.57V68.6562H1385.28H1382.72H1381.43V59.8598ZM1381.43 77.4525H1382.72H1385.28H1386.57V86.2489H1385.28H1382.72H1381.43V77.4525ZM1381.43 95.0453H1382.72H1385.28H1386.57V103.842H1385.28H1382.72H1381.43V95.0453ZM1381.43 112.638H1382.72H1385.28H1386.57V121.434H1385.28H1382.72H1381.43V112.638ZM1381.43 130.231H1382.72H1385.28H1386.57V139.027H1385.28H1382.72H1381.43V130.231ZM1381.43 147.824H1382.72H1385.28H1386.57V156.62H1385.28H1382.72H1381.43V147.824ZM1381.43 165.416H1382.72H1385.28H1386.57V174.213H1385.28H1382.72H1381.43V165.416ZM1381.43 183.009H1382.72H1385.28H1386.57V191.805H1385.28H1382.72H1381.43V183.009ZM1381.43 200.602H1382.72H1385.28H1386.57V205H1385.28H1384H1382.72H1381.43V200.602Z" fill="#1E1E1E" mask="url(#path-6-inside-3_5_3251)"/>
<line x1="-150" y1="156.717" x2="558" y2="156.717" stroke="#1E1E1E" stroke-width="2.56522" stroke-dasharray="8.55 8.55"/>
<path d="M360.993 157.522C360.993 187.044 337.19 210.964 307.843 210.964C278.495 210.964 254.693 187.044 254.693 157.522C254.693 128 278.495 104.08 307.843 104.08C337.19 104.08 360.993 128 360.993 157.522Z" fill="#FFF7F5" stroke="#1E1E1E" stroke-width="2.56522"/>
<path d="M567.367 144.411L568.389 145.438L558.521 155.337H557.521V154.332L567.367 144.411ZM571.28 137.855C571.008 137.855 570.725 137.964 570.519 138.172L568.53 140.172L572.605 144.269L574.594 142.269C575.018 141.843 575.018 141.133 574.594 140.729L572.051 138.172C571.834 137.954 571.562 137.855 571.28 137.855ZM567.367 141.341L555.348 153.425V157.522H559.423L571.443 145.438L567.367 141.341Z" fill="#1E1E1E"/>
<path d="M291.422 145.287L309.379 146.29L327.336 145.287L328.334 159.329L321.35 169.358L314.367 174.373L306.386 175.376L295.412 165.347L289.427 156.32L291.422 145.287Z" fill="#F16565"/>
<path d="M309.05 145.708L309.418 146.126L309.787 145.708C311.977 143.223 315.22 141.766 318.895 141.766C322.081 141.77 325.135 143.044 327.389 145.31C329.642 147.575 330.911 150.648 330.915 153.853C330.914 160.519 326.05 166.592 320.946 171.112C315.866 175.61 310.676 178.459 310.263 178.683C310.003 178.824 309.713 178.897 309.418 178.897C309.124 178.897 308.834 178.824 308.574 178.683C308.161 178.459 302.971 175.61 297.891 171.112C292.787 166.592 287.923 160.518 287.922 153.853C287.926 150.648 289.195 147.575 291.448 145.31C293.701 143.044 296.756 141.77 299.942 141.766C303.617 141.766 306.86 143.223 309.05 145.708ZM318.174 168.777L318.176 168.775C320.246 166.989 322.53 164.723 324.299 162.182C326.065 159.646 327.347 156.796 327.347 153.852C327.347 151.6 326.457 149.44 324.873 147.847C323.288 146.254 321.138 145.358 318.896 145.358C315.344 145.358 312.326 147.251 311.07 150.34L311.07 150.341C310.935 150.671 310.706 150.954 310.412 151.152C310.118 151.351 309.772 151.457 309.418 151.457C309.065 151.457 308.719 151.351 308.425 151.152C308.131 150.954 307.902 150.671 307.767 150.341L307.767 150.34C306.511 147.251 303.493 145.358 299.941 145.358C297.699 145.358 295.549 146.254 293.964 147.847C292.38 149.44 291.49 151.6 291.49 153.852C291.49 156.796 292.772 159.646 294.538 162.182C296.307 164.723 298.591 166.989 300.661 168.775L300.663 168.777C303.324 171.047 306.168 173.089 309.166 174.884L309.418 175.035L309.671 174.884C312.669 173.089 315.513 171.047 318.174 168.777Z" fill="#1E1E1E" stroke="#FFF7F5" stroke-width="0.981572"/>
</svg>
