<svg width="250" height="68" viewBox="0 0 250 68" fill="none" xmlns="http://www.w3.org/2000/svg">
<path d="M111.08 4.1235C138.226 4.55729 168.373 6.11889 197.998 10.8038C207.264 12.2786 216.269 14.0138 224.752 16.8768C228.536 18.1781 232.321 19.653 235.714 21.3881C238.194 22.6895 240.282 24.4246 241.848 26.2465C245.633 30.5844 244.589 35.009 238.846 38.219C235.453 40.1276 231.669 41.6893 227.623 42.9906C216.138 46.8079 203.871 49.3239 191.473 51.3193C181.163 52.9677 170.591 53.6617 160.02 54.0955C158.715 54.1823 157.41 54.0955 156.366 54.4425C155.453 54.7028 154.409 55.4836 154.409 56.0042C154.539 56.6982 155.583 57.3923 156.497 57.7393C157.41 58.0863 158.715 57.9128 159.759 57.9128C176.986 57.9996 193.561 55.7439 209.613 52.0133C217.443 50.1914 225.143 48.0225 232.713 45.6801C236.628 44.4655 240.413 42.6436 243.545 40.6482C250.331 36.3971 251.767 30.7579 247.851 25.1187C245.894 22.1689 242.762 19.8265 239.107 17.8311C232.452 14.2741 224.882 12.0184 217.052 10.1965C201.783 6.63945 185.991 4.55727 169.939 3.08241C150.885 1.26051 131.831 0.306183 112.516 0.0459061C89.5469 -0.214363 66.5778 0.56646 44.1306 4.1235C35.1257 5.51161 26.5122 7.59376 18.5513 10.717C13.3311 12.7992 8.63284 15.1416 4.97865 18.4384C-0.894144 23.7306 -1.54668 29.283 2.89054 35.1825C5.37016 38.4793 8.89386 41.1687 12.9396 43.5979C23.6411 50.0179 36.1697 54.3558 49.4814 57.8261C66.8388 62.3374 84.9792 64.7666 103.381 66.2415C127.002 68.1501 150.624 67.8899 174.246 66.1547C194.605 64.6799 214.703 62.1639 234.018 57.3055C236.497 56.6982 238.846 55.9174 241.196 55.1366C242.892 54.6161 243.936 53.8352 243.284 52.5339C242.762 51.5796 241.065 51.2325 238.977 51.9266C226.84 55.5704 213.92 57.3923 201 59.2142C185.861 61.2963 170.461 62.4242 155.061 63.1182C127.655 64.2461 100.509 62.858 73.8861 58.5201C59.5304 56.1777 45.6967 52.8809 32.7765 47.9358C26.1207 45.4198 19.8564 42.4701 14.5056 38.7395C12.548 37.3514 10.7209 35.7898 9.15484 34.1414C4.4566 29.0227 5.23967 23.9041 11.504 19.653C14.6361 17.4841 18.4208 15.6622 22.336 14.0138C30.9494 10.4568 40.6069 8.63485 50.5254 7.33349C69.3184 4.81754 88.5029 4.03674 111.08 4.1235Z" fill="#FF9C57"/>
</svg>
