<svg width="5" height="20" viewBox="0 0 5 20" fill="none" xmlns="http://www.w3.org/2000/svg">
<path d="M2.52721 18.6541C2.81726 18.6541 3.09543 18.5382 3.30052 18.332C3.50561 18.1258 3.62083 17.8462 3.62083 17.5546C3.62083 17.263 3.50561 16.9833 3.30052 16.7771C3.09543 16.5709 2.81726 16.4551 2.52721 16.4551C2.23717 16.4551 1.959 16.5709 1.75391 16.7771C1.54881 16.9833 1.43359 17.263 1.43359 17.5546C1.43359 17.8462 1.54881 18.1258 1.75391 18.332C1.959 18.5382 2.23717 18.6541 2.52721 18.6541ZM2.52721 10.9577C2.81726 10.9577 3.09543 10.8418 3.30052 10.6356C3.50561 10.4294 3.62083 10.1498 3.62083 9.85817C3.62083 9.56657 3.50561 9.28691 3.30052 9.08071C3.09543 8.87452 2.81726 8.75868 2.52721 8.75868C2.23717 8.75868 1.959 8.87452 1.75391 9.08071C1.54881 9.28691 1.43359 9.56657 1.43359 9.85817C1.43359 10.1498 1.54881 10.4294 1.75391 10.6356C1.959 10.8418 2.23717 10.9577 2.52721 10.9577ZM2.52721 3.26125C2.81726 3.26125 3.09543 3.14542 3.30052 2.93922C3.50561 2.73303 3.62083 2.45337 3.62083 2.16177C3.62083 1.87017 3.50561 1.59051 3.30052 1.38431C3.09543 1.17812 2.81726 1.06228 2.52721 1.06228C2.23717 1.06228 1.959 1.17812 1.75391 1.38431C1.54881 1.59051 1.43359 1.87017 1.43359 2.16177C1.43359 2.45337 1.54881 2.73303 1.75391 2.93922C1.959 3.14542 2.23717 3.26125 2.52721 3.26125Z" stroke="white" stroke-width="2.10151" stroke-linecap="round" stroke-linejoin="round"/>
</svg>
