<svg width="19" height="20" viewBox="0 0 19 20" fill="none" xmlns="http://www.w3.org/2000/svg">
<path d="M9.36787 0.876953C10.5939 0.876953 11.808 1.11974 12.9407 1.59145C14.0734 2.06316 15.1027 2.75455 15.9696 3.62615C17.7205 5.38643 18.7042 7.77389 18.7042 10.2633C18.7123 12.4307 17.9658 14.5327 16.5942 16.2049L18.4614 18.0821C18.591 18.2141 18.6787 18.3817 18.7136 18.5638C18.7485 18.7459 18.729 18.9343 18.6575 19.1052C18.5799 19.2741 18.4542 19.4161 18.2963 19.513C18.1384 19.6099 17.9554 19.6575 17.7705 19.6497H9.36787C6.89174 19.6497 4.51702 18.6607 2.76613 16.9005C1.01524 15.1402 0.0315947 12.7527 0.0315947 10.2633C0.0315947 7.77389 1.01524 5.38643 2.76613 3.62615C4.51702 1.86587 6.89174 0.876953 9.36787 0.876953ZM9.36787 17.7724H15.5205L14.6522 16.8995C14.4783 16.7236 14.3807 16.4857 14.3807 16.2377C14.3807 15.9897 14.4783 15.7518 14.6522 15.576C15.8747 14.3483 16.636 12.7324 16.8064 11.0037C16.9767 9.27497 16.5457 7.54033 15.5866 6.09532C14.6275 4.6503 13.1997 3.58431 11.5465 3.07897C9.89328 2.57362 8.11694 2.66018 6.52011 3.32389C4.92327 3.98761 3.60473 5.18742 2.78912 6.71892C1.97352 8.25041 1.71131 10.0188 2.04718 11.7229C2.38304 13.4269 3.2962 14.9612 4.63108 16.0643C5.96595 17.1674 7.63995 17.771 9.36787 17.7724Z" fill="white"/>
</svg>
