<svg width="21" height="21" viewBox="0 0 21 21" fill="none" xmlns="http://www.w3.org/2000/svg">
<path d="M18.8746 3.05316C18.9826 2.71757 18.8934 2.34976 18.6437 2.10087C18.3941 1.85198 18.026 1.76398 17.6907 1.87302L1.81904 7.03551C1.45208 7.15487 1.19556 7.48666 1.17243 7.87185C1.14929 8.25704 1.36426 8.61714 1.7143 8.77956L7.78288 11.5955C8.09012 11.738 8.45034 11.704 8.72546 11.5064L10.6863 10.0983L9.28004 12.0777C9.08564 12.3513 9.05214 12.7079 9.19217 13.0129L11.9931 19.114C12.1546 19.4659 12.5155 19.6824 12.9019 19.6594C13.2884 19.6364 13.621 19.3785 13.7396 19.01L18.8746 3.05316Z" stroke="white" stroke-width="1.87727" stroke-linecap="round" stroke-linejoin="round"/>
</svg>
